<svg id="svg" version="1.1" xmlns="http://www.w3.org/2000/svg" xmlns:xlink="http://www.w3.org/1999/xlink" width="400" height="400" viewBox="0, 0, 400,400"><g id="svgg"><path id="path0" d="M148.400 61.138 C 148.400 61.227,148.175 61.561,147.900 61.881 C 147.625 62.201,147.405 62.561,147.410 62.681 C 147.416 62.801,147.574 62.677,147.760 62.404 C 147.947 62.132,148.254 61.753,148.443 61.562 C 148.638 61.364,148.703 61.163,148.593 61.095 C 148.487 61.030,148.400 61.049,148.400 61.138 M242.346 61.600 C 242.158 61.820,242.071 62.001,242.152 62.003 C 242.233 62.005,242.168 62.090,242.006 62.192 C 241.844 62.295,241.754 62.421,241.806 62.473 C 241.983 62.650,242.614 62.047,242.696 61.623 C 242.796 61.102,242.774 61.101,242.346 61.600 M224.533 62.133 C 224.308 62.358,224.379 62.544,224.950 63.226 C 225.253 63.587,225.365 63.803,225.200 63.707 C 224.987 63.582,225.002 63.648,225.250 63.931 C 225.443 64.151,225.600 64.437,225.600 64.566 C 225.600 64.695,225.694 64.800,225.809 64.800 C 225.924 64.800,225.994 64.913,225.965 65.050 C 225.937 65.188,226.158 65.828,226.457 66.474 C 226.755 67.120,227.000 67.767,227.000 67.912 C 227.000 68.058,227.080 68.226,227.178 68.286 C 227.276 68.347,227.418 68.645,227.493 68.948 C 227.569 69.252,227.750 69.770,227.897 70.100 C 228.127 70.620,228.431 71.697,228.433 72.000 C 228.434 72.055,228.504 72.190,228.590 72.300 C 228.937 72.745,230.188 78.388,230.230 79.700 C 230.237 79.920,230.318 80.325,230.409 80.600 C 230.746 81.617,231.017 90.886,230.724 91.362 C 230.677 91.438,230.577 92.130,230.500 92.900 C 230.347 94.448,230.255 95.100,230.191 95.100 C 230.168 95.100,230.123 95.280,230.090 95.500 C 229.912 96.717,229.818 97.255,229.512 98.800 C 229.327 99.735,229.100 100.680,229.009 100.900 C 228.917 101.120,228.600 102.110,228.303 103.100 C 227.643 105.303,227.584 105.464,227.011 106.643 C 226.758 107.162,226.607 107.729,226.674 107.903 C 226.741 108.078,226.721 108.175,226.630 108.119 C 226.539 108.062,226.264 108.373,226.019 108.808 C 225.775 109.244,225.636 109.600,225.712 109.600 C 225.787 109.600,225.737 109.735,225.600 109.900 C 225.463 110.065,225.421 110.200,225.507 110.200 C 225.592 110.200,225.504 110.375,225.310 110.588 C 225.117 110.802,225.006 111.095,225.064 111.238 C 225.131 111.407,225.174 111.374,225.184 111.146 C 225.202 110.741,240.600 110.605,240.600 111.009 C 240.600 111.114,240.706 111.200,240.835 111.200 C 240.964 111.200,240.862 110.979,240.608 110.709 C 240.195 110.269,240.168 110.133,240.352 109.409 C 240.503 108.816,240.496 108.597,240.329 108.587 C 240.203 108.580,240.312 108.490,240.571 108.386 C 240.867 108.268,241.000 108.089,240.930 107.905 C 240.868 107.744,240.904 107.560,241.009 107.495 C 241.114 107.430,241.200 107.162,241.200 106.900 C 241.200 106.638,241.292 106.367,241.405 106.297 C 241.518 106.227,241.594 106.064,241.574 105.935 C 241.535 105.688,241.692 105.202,242.052 104.450 C 242.170 104.203,242.210 103.944,242.141 103.874 C 242.071 103.804,242.103 103.581,242.213 103.377 C 242.322 103.173,242.503 102.577,242.615 102.053 C 242.727 101.529,242.907 100.695,243.016 100.200 C 243.124 99.705,243.260 98.985,243.318 98.600 C 243.531 97.185,243.226 97.331,247.700 96.494 C 247.920 96.453,248.910 96.237,249.900 96.015 C 250.890 95.793,252.150 95.517,252.700 95.402 C 253.250 95.288,254.195 95.088,254.800 94.959 C 256.170 94.666,255.874 94.727,257.440 94.420 C 259.665 93.986,259.493 94.594,259.474 87.225 C 259.456 80.327,259.437 80.201,258.426 80.199 C 258.136 80.198,257.585 80.112,257.200 80.007 C 256.815 79.902,256.185 79.763,255.800 79.698 C 255.415 79.633,254.384 79.398,253.509 79.175 C 252.634 78.953,251.653 78.737,251.329 78.696 C 251.005 78.655,250.326 78.530,249.820 78.419 C 249.314 78.307,248.000 78.022,246.900 77.785 C 243.215 76.990,243.400 77.066,243.401 76.342 C 243.401 75.989,243.232 75.070,243.024 74.300 C 242.694 73.071,241.842 69.652,241.730 69.100 C 241.707 68.990,241.619 68.788,241.533 68.651 C 241.447 68.514,241.340 68.244,241.295 68.051 C 240.985 66.728,240.708 65.883,240.550 65.778 C 240.449 65.710,240.379 65.620,240.396 65.578 C 240.412 65.535,240.382 65.365,240.329 65.200 C 240.115 64.535,240.066 63.800,240.236 63.800 C 240.520 63.800,241.600 62.947,241.600 62.722 C 241.600 62.607,241.497 62.623,241.360 62.760 C 240.908 63.212,225.345 63.092,224.931 62.634 C 224.748 62.432,224.659 62.207,224.733 62.134 C 224.806 62.060,224.822 62.000,224.767 62.000 C 224.712 62.000,224.607 62.060,224.533 62.133 M135.090 62.550 L 134.953 63.000 126.877 63.000 C 121.105 63.000,118.800 63.063,118.800 63.221 C 118.800 63.343,118.930 63.393,119.090 63.332 C 119.284 63.257,119.343 63.316,119.268 63.510 C 119.200 63.688,119.279 63.800,119.474 63.800 C 119.793 63.800,119.747 64.808,119.405 65.300 C 119.191 65.607,118.509 67.876,118.568 68.082 C 118.597 68.182,118.541 68.317,118.444 68.382 C 118.266 68.500,117.839 69.878,117.702 70.772 C 117.663 71.031,117.539 71.481,117.428 71.772 C 117.168 72.449,116.785 74.245,116.653 75.400 C 116.474 76.981,116.346 77.144,115.163 77.294 C 114.578 77.369,113.470 77.598,112.700 77.803 C 111.930 78.008,110.985 78.224,110.600 78.283 C 110.215 78.342,109.270 78.531,108.500 78.702 C 107.730 78.872,106.425 79.147,105.600 79.312 C 104.775 79.477,103.758 79.704,103.340 79.816 C 102.922 79.929,102.247 80.064,101.840 80.116 C 100.264 80.317,100.232 80.558,100.402 91.100 C 100.452 94.177,100.480 94.219,102.700 94.497 C 102.810 94.511,103.260 94.598,103.700 94.691 C 104.984 94.962,105.068 94.978,105.750 95.088 C 106.730 95.245,107.234 95.357,107.950 95.574 C 108.308 95.683,108.600 95.722,108.600 95.662 C 108.600 95.601,108.713 95.638,108.850 95.743 C 108.988 95.849,109.775 96.049,110.600 96.189 C 111.425 96.328,112.235 96.486,112.400 96.540 C 112.565 96.595,112.970 96.679,113.300 96.729 C 113.630 96.778,114.161 96.905,114.480 97.009 C 114.799 97.114,115.309 97.200,115.614 97.200 C 116.252 97.200,116.448 97.631,116.794 99.800 C 116.909 100.515,117.133 101.595,117.293 102.200 C 117.974 104.770,118.410 106.319,118.533 106.600 C 118.605 106.765,118.648 106.971,118.629 107.057 C 118.610 107.144,118.834 107.729,119.127 108.357 C 119.739 109.673,119.834 110.344,119.428 110.500 C 118.717 110.773,119.830 110.818,126.976 110.805 C 132.045 110.796,134.600 110.860,134.600 110.996 C 134.600 111.108,134.687 111.200,134.794 111.200 C 134.913 111.200,134.920 111.027,134.813 110.750 C 134.717 110.503,134.529 110.326,134.395 110.358 C 134.255 110.392,134.198 110.294,134.262 110.128 C 134.323 109.969,134.311 109.778,134.236 109.703 C 134.161 109.628,134.094 109.507,134.086 109.433 C 134.043 109.037,133.501 108.200,133.287 108.200 C 133.140 108.200,133.078 108.043,133.137 107.820 C 133.192 107.611,133.052 107.024,132.828 106.516 C 132.603 106.007,132.437 105.562,132.459 105.527 C 132.482 105.491,132.392 105.332,132.260 105.173 C 132.129 105.014,131.929 104.528,131.817 104.092 C 131.705 103.656,131.306 102.220,130.931 100.900 C 130.555 99.580,130.198 98.140,130.137 97.700 C 130.075 97.260,129.923 96.450,129.798 95.900 C 129.026 92.486,128.857 83.187,129.516 80.300 C 129.566 80.080,129.640 79.630,129.680 79.300 C 129.864 77.791,130.245 75.861,130.437 75.469 C 130.552 75.232,130.590 74.946,130.520 74.833 C 130.451 74.720,130.485 74.571,130.597 74.502 C 130.709 74.433,130.800 74.072,130.800 73.700 C 130.800 73.328,130.878 72.975,130.974 72.916 C 131.121 72.825,131.339 72.139,131.487 71.300 C 131.528 71.071,131.693 70.636,132.167 69.506 C 132.350 69.070,132.503 68.665,132.507 68.606 C 132.511 68.548,132.612 68.320,132.731 68.100 C 132.850 67.880,132.923 67.542,132.892 67.349 C 132.861 67.156,132.907 67.043,132.995 67.097 C 133.083 67.151,133.220 66.994,133.300 66.748 C 133.381 66.501,133.466 66.255,133.491 66.200 C 133.515 66.145,133.764 65.605,134.043 65.000 C 134.322 64.395,134.567 63.810,134.587 63.700 C 134.608 63.590,134.808 63.304,135.034 63.064 C 135.259 62.825,135.394 62.510,135.335 62.364 C 135.264 62.191,135.180 62.255,135.090 62.550 M146.883 62.983 C 146.837 63.029,146.800 63.266,146.800 63.509 C 146.800 63.979,146.352 64.485,146.132 64.265 C 146.059 64.193,146.000 64.274,146.000 64.445 C 146.000 64.617,145.865 64.809,145.700 64.872 C 145.535 64.936,145.400 65.125,145.400 65.294 C 145.400 65.462,145.305 65.600,145.188 65.600 C 145.072 65.600,145.032 65.690,145.100 65.800 C 145.168 65.910,145.144 66.000,145.046 66.000 C 144.948 66.000,144.651 66.473,144.386 67.050 C 144.121 67.627,143.791 68.172,143.652 68.260 C 143.513 68.348,143.400 68.511,143.400 68.622 C 143.400 68.798,142.664 70.455,141.670 72.517 C 141.507 72.856,141.286 73.486,141.181 73.917 C 140.883 75.130,140.855 75.222,140.408 76.500 C 140.176 77.160,139.998 77.700,140.012 77.700 C 140.057 77.700,139.783 79.284,139.597 80.100 C 139.497 80.540,139.360 81.485,139.293 82.200 C 139.225 82.915,139.132 83.770,139.085 84.100 C 138.975 84.875,138.988 90.117,139.103 90.900 C 139.151 91.230,139.237 91.935,139.294 92.467 C 139.351 92.999,139.437 93.497,139.485 93.575 C 139.533 93.653,139.616 94.073,139.669 94.509 C 139.722 94.944,139.868 95.749,139.994 96.298 C 140.201 97.201,140.374 97.818,141.028 100.000 C 141.533 101.685,143.345 105.783,144.211 107.200 C 144.312 107.365,144.543 107.770,144.725 108.100 C 144.906 108.430,145.177 108.772,145.327 108.860 C 145.477 108.948,145.600 109.133,145.600 109.271 C 145.600 109.409,145.812 109.810,146.072 110.162 L 146.544 110.802 179.922 110.800 C 213.099 110.797,213.300 110.794,213.284 110.399 C 213.276 110.181,213.306 110.039,213.351 110.084 C 213.524 110.257,214.226 109.356,214.124 109.091 C 214.065 108.938,214.117 108.751,214.240 108.676 C 214.374 108.592,214.406 108.629,214.319 108.769 C 214.241 108.896,214.272 109.000,214.388 109.000 C 214.505 109.000,214.600 108.875,214.600 108.721 C 214.600 108.568,214.741 108.389,214.913 108.323 C 215.085 108.257,215.174 108.120,215.111 108.018 C 215.049 107.917,215.081 107.804,215.184 107.767 C 215.385 107.694,217.099 104.318,217.756 102.700 C 220.367 96.264,221.348 89.808,220.704 83.300 C 220.455 80.774,219.748 77.474,218.906 74.905 C 217.812 71.566,216.680 69.027,215.246 66.700 C 215.110 66.480,214.911 66.098,214.804 65.850 C 214.697 65.603,214.518 65.400,214.405 65.400 C 214.292 65.400,214.200 65.215,214.200 64.988 C 214.200 64.747,214.111 64.631,213.987 64.708 C 213.869 64.781,213.724 64.652,213.664 64.422 C 213.604 64.193,213.461 64.062,213.346 64.133 C 213.232 64.204,213.197 64.167,213.268 64.052 C 213.339 63.936,213.241 63.652,213.049 63.419 L 212.700 62.997 179.833 62.948 C 161.757 62.922,146.929 62.938,146.883 62.983 M241.087 111.421 C 240.993 111.574,241.023 111.610,241.169 111.519 C 241.305 111.435,241.400 111.502,241.400 111.681 C 241.400 111.849,241.587 112.086,241.815 112.208 C 242.187 112.407,242.209 112.391,242.026 112.049 C 241.692 111.425,241.262 111.138,241.087 111.421 M134.951 111.733 C 135.089 111.789,135.143 111.930,135.070 112.048 C 134.992 112.174,135.033 112.203,135.169 112.119 C 135.296 112.041,135.400 112.087,135.400 112.222 C 135.400 112.356,135.447 112.420,135.505 112.362 C 135.708 112.158,135.352 111.600,135.029 111.616 C 134.819 111.626,134.791 111.668,134.951 111.733 M117.536 112.209 C 117.334 112.404,117.258 112.612,117.364 112.678 C 117.585 112.814,118.071 112.299,117.969 112.036 C 117.931 111.938,117.736 112.016,117.536 112.209 M148.800 113.578 C 148.800 113.676,148.979 113.968,149.198 114.228 L 149.596 114.700 149.283 114.050 C 148.973 113.405,148.800 113.236,148.800 113.578 M210.453 113.904 C 210.537 113.997,210.363 114.326,210.065 114.636 C 209.768 114.946,209.570 115.200,209.625 115.200 C 209.967 115.200,210.808 114.029,210.566 113.890 C 210.420 113.805,210.369 113.812,210.453 113.904 M53.049 224.950 C 53.012 225.140,52.040 225.200,49.000 225.200 L 45.000 225.200 45.000 260.100 L 45.000 295.000 49.350 294.997 C 51.742 294.995,53.588 294.923,53.451 294.835 C 53.253 294.710,53.190 287.374,53.150 259.689 C 53.122 240.445,53.077 224.813,53.049 224.950 M57.950 225.150 C 53.510 225.206,53.101 225.272,53.668 225.840 C 53.945 226.117,54.480 227.010,54.493 227.217 C 54.500 227.330,55.422 229.005,55.805 229.600 C 55.912 229.765,56.613 230.980,57.365 232.300 C 58.116 233.620,59.904 236.725,61.337 239.200 C 65.868 247.024,69.571 253.445,70.778 255.573 L 71.500 256.846 71.552 248.682 L 71.605 240.517 70.377 238.409 C 69.702 237.249,68.945 235.940,68.695 235.500 C 66.454 231.561,65.334 229.683,65.165 229.579 C 65.056 229.511,64.975 229.397,64.987 229.326 C 65.029 229.065,64.384 228.000,64.183 228.000 C 64.069 228.000,64.034 227.906,64.105 227.791 C 64.176 227.676,64.118 227.442,63.975 227.270 C 63.634 226.859,63.237 226.186,63.080 225.750 C 63.010 225.558,62.869 225.400,62.765 225.400 C 62.661 225.400,62.632 225.310,62.700 225.200 C 62.768 225.090,62.751 225.021,62.662 225.046 C 62.573 225.071,60.453 225.118,57.950 225.150 M336.996 225.600 C 336.738 226.219,336.366 226.859,336.025 227.270 C 335.882 227.442,335.832 227.690,335.914 227.822 C 336.002 227.966,335.977 228.010,335.851 227.931 C 335.728 227.856,335.483 228.180,335.270 228.700 C 335.066 229.194,334.832 229.599,334.750 229.599 C 334.668 229.600,334.600 229.728,334.600 229.883 C 334.600 230.039,334.528 230.197,334.440 230.233 C 334.305 230.290,333.435 231.755,331.247 235.609 C 330.839 236.328,326.526 243.767,324.702 246.900 C 324.125 247.890,323.408 249.128,323.108 249.650 L 322.562 250.600 323.538 250.600 C 324.450 250.600,324.581 250.668,325.552 251.652 L 326.591 252.703 326.645 256.332 L 326.700 259.960 328.383 257.030 C 331.680 251.289,332.965 249.055,334.901 245.700 C 335.980 243.830,338.471 239.510,340.436 236.100 C 342.401 232.690,344.094 229.765,344.198 229.600 C 344.804 228.643,345.493 227.300,345.450 227.162 C 345.423 227.073,345.490 227.000,345.600 227.000 C 345.710 227.000,345.800 226.879,345.800 226.731 C 345.800 226.582,345.980 226.254,346.200 226.000 L 346.600 225.539 346.600 260.029 C 346.600 286.589,346.545 294.575,346.360 294.760 C 346.173 294.947,347.084 295.000,350.460 295.000 L 354.800 295.000 354.800 260.104 L 354.800 225.208 346.002 225.154 L 337.204 225.100 336.996 225.600 " stroke="none" fill="#0c5b0a" fill-rule="evenodd"></path><path id="path1" d="M173.400 208.372 L 173.400 265.800 179.200 265.800 L 185.000 265.800 185.000 239.100 L 185.000 212.400 192.350 212.407 L 199.700 212.414 216.033 239.057 L 232.366 265.700 239.505 265.753 C 245.191 265.794,246.625 265.754,246.546 265.553 C 246.491 265.414,239.154 253.420,230.240 238.900 L 214.034 212.500 215.667 212.379 C 221.329 211.957,229.340 208.874,234.126 205.273 C 249.141 193.978,248.692 168.589,233.283 157.568 C 225.518 152.013,220.635 151.266,190.750 151.062 L 173.400 150.943 173.400 208.372 M264.800 156.700 L 264.800 162.400 286.113 162.400 C 306.321 162.400,307.421 162.418,307.315 162.750 C 307.254 162.942,296.493 186.173,283.402 214.374 C 270.311 242.575,259.600 265.682,259.600 265.724 C 259.600 265.766,273.775 265.800,291.100 265.800 L 322.600 265.800 322.600 260.100 L 322.600 254.400 300.079 254.400 C 282.138 254.400,277.579 254.349,277.663 254.150 C 277.721 254.013,288.396 230.835,301.385 202.644 C 314.373 174.454,325.000 151.301,325.000 151.194 C 325.000 151.069,314.261 151.000,294.900 151.000 L 264.800 151.000 264.800 156.700 M75.600 208.700 L 75.600 266.000 81.500 266.000 L 87.400 266.000 87.404 238.850 L 87.407 211.700 94.253 205.669 C 98.018 202.352,101.149 199.669,101.211 199.707 C 101.273 199.745,110.851 214.677,122.496 232.888 L 143.669 266.000 151.336 266.000 L 159.003 266.000 157.674 263.850 C 143.194 240.428,112.735 190.840,112.720 190.667 C 112.709 190.538,122.105 181.732,133.600 171.096 C 145.095 160.461,154.530 151.678,154.567 151.580 C 154.605 151.475,150.993 151.400,145.934 151.400 L 137.234 151.400 112.367 173.299 L 87.500 195.199 87.449 173.299 L 87.398 151.400 81.499 151.400 L 75.600 151.400 75.600 208.700 M96.952 155.141 C 97.201 155.189,97.561 155.187,97.752 155.137 C 97.944 155.087,97.740 155.048,97.300 155.050 C 96.860 155.053,96.704 155.094,96.952 155.141 M213.500 162.785 C 220.092 163.531,223.607 164.840,226.770 167.728 C 236.413 176.528,234.373 192.719,222.900 198.453 C 217.845 200.980,213.596 201.378,193.050 201.250 L 185.000 201.200 185.000 181.777 L 185.000 162.355 198.250 162.457 C 206.071 162.517,212.319 162.652,213.500 162.785 M134.873 269.487 C 118.880 273.118,120.166 295.032,136.501 297.212 C 145.501 298.413,152.084 293.460,152.736 284.996 L 152.859 283.400 146.830 283.400 L 140.800 283.400 140.800 284.800 L 140.800 286.200 145.179 286.200 L 149.557 286.200 149.372 287.028 C 147.593 294.941,136.244 297.166,130.000 290.824 C 124.744 285.485,125.739 277.837,132.202 273.901 C 137.115 270.908,142.973 271.632,148.063 275.860 L 149.027 276.660 150.128 275.580 L 151.229 274.500 150.135 273.500 C 146.347 270.037,139.907 268.344,134.873 269.487 M306.473 269.487 C 291.634 272.856,291.245 292.864,305.941 296.833 C 315.663 299.458,324.400 293.467,324.400 284.174 L 324.400 283.400 318.400 283.400 L 312.400 283.400 312.400 284.800 L 312.400 286.200 316.782 286.200 L 321.164 286.200 320.905 287.183 C 318.825 295.067,307.872 297.130,301.583 290.822 C 296.462 285.686,297.239 278.279,303.327 274.208 C 308.304 270.879,314.435 271.497,319.663 275.857 L 320.627 276.660 321.728 275.580 L 322.829 274.500 321.735 273.500 C 317.947 270.037,311.507 268.344,306.473 269.487 M75.600 283.400 L 75.600 297.200 83.400 297.200 L 91.200 297.200 91.200 295.700 L 91.200 294.200 84.800 294.200 L 78.400 294.200 78.400 289.000 L 78.400 283.800 82.400 283.800 L 86.400 283.800 86.400 282.300 L 86.400 280.800 82.400 280.800 L 78.400 280.800 78.400 276.700 L 78.400 272.600 84.900 272.600 L 91.400 272.600 91.400 271.100 L 91.400 269.600 83.500 269.600 L 75.600 269.600 75.600 283.400 M96.600 283.400 L 96.600 297.200 98.098 297.200 L 99.596 297.200 99.648 287.034 L 99.700 276.868 108.573 287.034 C 114.414 293.726,117.574 297.200,117.823 297.200 C 118.189 297.200,118.200 296.789,118.200 283.400 L 118.200 269.600 116.802 269.600 L 115.404 269.600 115.352 279.937 L 115.300 290.274 106.300 279.938 C 100.840 273.667,97.162 269.601,96.950 269.601 C 96.620 269.600,96.600 270.390,96.600 283.400 M157.400 283.400 L 157.400 297.200 158.800 297.200 L 160.200 297.200 160.200 283.400 L 160.200 269.600 158.800 269.600 L 157.400 269.600 157.400 283.400 M166.400 283.386 L 166.400 297.200 167.900 297.200 L 169.400 297.200 169.400 286.994 L 169.400 276.788 178.312 286.994 C 184.338 293.895,187.350 297.200,187.612 297.200 C 187.992 297.200,188.000 296.921,188.000 283.400 L 188.000 269.600 186.600 269.600 L 185.200 269.600 185.200 280.006 L 185.200 290.413 176.177 280.056 C 171.214 274.360,166.984 269.671,166.777 269.636 C 166.411 269.574,166.400 269.967,166.400 283.386 M194.400 283.400 L 194.400 297.200 202.300 297.200 L 210.200 297.200 210.200 295.700 L 210.200 294.200 203.800 294.200 L 197.400 294.200 197.400 289.000 L 197.400 283.800 201.300 283.800 L 205.200 283.800 205.200 282.300 L 205.200 280.800 201.300 280.800 L 197.400 280.800 197.400 276.700 L 197.400 272.600 203.800 272.600 L 210.200 272.600 210.200 271.100 L 210.200 269.600 202.300 269.600 L 194.400 269.600 194.400 283.400 M215.400 283.400 L 215.400 297.200 223.300 297.200 L 231.200 297.200 231.200 295.700 L 231.200 294.200 224.800 294.200 L 218.400 294.200 218.400 289.000 L 218.400 283.800 222.300 283.800 L 226.200 283.800 226.200 282.300 L 226.200 280.800 222.300 280.800 L 218.400 280.800 218.400 276.700 L 218.400 272.600 224.900 272.600 L 231.400 272.600 231.400 271.100 L 231.400 269.600 223.400 269.600 L 215.400 269.600 215.400 283.400 M236.600 283.369 L 236.600 297.200 238.100 297.200 L 239.600 297.200 239.600 290.800 L 239.600 284.400 241.262 284.400 L 242.924 284.400 246.841 290.750 L 250.758 297.100 252.579 297.158 C 253.581 297.189,254.400 297.175,254.400 297.127 C 254.400 297.078,252.658 294.218,250.529 290.771 L 246.659 284.503 247.797 284.270 C 255.812 282.636,256.148 271.616,248.232 269.990 C 247.720 269.884,244.893 269.740,241.950 269.668 L 236.600 269.538 236.600 283.369 M259.200 283.400 L 259.200 297.200 260.700 297.200 L 262.200 297.200 262.200 283.400 L 262.200 269.600 260.700 269.600 L 259.200 269.600 259.200 283.400 M268.200 283.386 L 268.200 297.200 269.700 297.200 L 271.200 297.200 271.200 286.986 L 271.200 276.771 280.121 286.986 C 286.026 293.748,289.169 297.200,289.421 297.200 C 289.789 297.200,289.800 296.818,289.800 283.400 L 289.800 269.600 288.402 269.600 L 287.004 269.600 286.952 279.945 L 286.900 290.290 277.937 279.995 C 272.884 274.190,268.806 269.672,268.587 269.636 C 268.207 269.573,268.200 269.834,268.200 283.386 M247.677 272.883 C 251.699 274.093,251.972 279.422,248.100 281.132 C 247.450 281.419,246.578 281.500,243.450 281.561 L 239.600 281.637 239.600 277.118 L 239.600 272.600 243.168 272.600 C 245.669 272.600,247.018 272.685,247.677 272.883 " stroke="none" fill="#040404" fill-rule="evenodd"></path><path id="path2" d="M151.018 20.800 C 151.165 21.075,151.258 21.390,151.226 21.500 C 151.193 21.610,151.233 21.633,151.315 21.552 C 151.396 21.470,151.606 21.512,151.782 21.646 C 151.957 21.779,151.876 21.621,151.603 21.294 C 150.786 20.318,150.739 20.278,151.018 20.800 M144.439 23.750 C 137.296 23.793,135.410 23.857,135.528 24.052 C 135.627 24.217,135.563 24.208,135.338 24.026 C 134.919 23.685,134.910 23.846,135.308 24.616 C 135.478 24.944,135.571 25.285,135.515 25.376 C 135.459 25.466,135.594 25.733,135.815 25.970 C 136.035 26.206,136.123 26.400,136.011 26.400 C 135.896 26.400,135.980 26.841,136.200 27.400 C 136.417 27.950,136.548 28.400,136.492 28.400 C 136.436 28.400,136.527 28.666,136.695 28.990 C 136.863 29.315,137.000 29.804,137.000 30.078 C 137.000 30.352,137.091 30.633,137.203 30.702 C 137.315 30.771,137.363 30.898,137.310 30.984 C 137.256 31.071,137.342 31.312,137.500 31.521 C 137.658 31.729,137.790 32.148,137.794 32.452 C 137.797 32.756,137.973 33.386,138.184 33.852 C 138.640 34.861,138.895 35.641,138.838 35.856 C 138.815 35.942,138.927 36.265,139.086 36.573 C 139.370 37.122,139.356 37.151,138.465 37.917 C 137.964 38.348,137.130 39.105,136.611 39.600 C 136.092 40.095,135.315 40.835,134.884 41.245 C 134.453 41.654,134.010 42.084,133.900 42.199 C 133.790 42.314,133.475 42.617,133.200 42.870 C 132.925 43.124,132.526 43.550,132.313 43.816 C 130.150 46.525,129.467 46.943,128.471 46.165 C 128.345 46.066,128.165 46.003,128.071 46.025 C 127.977 46.046,127.720 45.996,127.500 45.913 C 127.280 45.830,126.830 45.659,126.500 45.534 C 126.170 45.408,125.855 45.296,125.800 45.286 C 125.305 45.194,124.461 44.915,124.300 44.790 C 124.190 44.705,123.740 44.571,123.300 44.492 C 122.860 44.413,122.410 44.286,122.300 44.210 C 122.190 44.134,121.695 43.950,121.200 43.800 C 120.705 43.650,120.188 43.443,120.050 43.339 C 119.913 43.236,119.800 43.208,119.800 43.278 C 119.800 43.348,119.508 43.283,119.150 43.134 C 118.793 42.984,118.455 42.854,118.400 42.844 C 118.345 42.834,118.165 42.783,118.000 42.730 C 117.690 42.630,116.576 42.373,116.400 42.360 C 116.345 42.356,116.122 42.228,115.905 42.076 C 114.895 41.369,114.302 41.740,113.156 43.800 C 112.881 44.295,112.181 45.510,111.600 46.500 C 110.482 48.407,109.312 50.448,108.681 51.591 C 108.472 51.971,108.188 52.405,108.050 52.555 C 107.513 53.143,108.324 54.045,113.212 58.298 C 113.591 58.627,114.333 59.282,114.862 59.753 C 115.391 60.224,115.924 60.547,116.046 60.472 C 116.185 60.386,116.225 60.447,116.153 60.635 C 116.046 60.913,116.890 61.614,117.233 61.532 C 117.307 61.514,117.434 61.567,117.517 61.650 C 117.599 61.733,117.539 61.804,117.383 61.808 C 117.227 61.812,117.341 61.947,117.636 62.107 C 117.931 62.267,118.223 62.556,118.284 62.749 C 118.388 63.077,118.932 63.096,126.727 63.044 C 134.693 62.990,135.048 63.003,134.789 63.344 C 134.558 63.650,134.560 63.664,134.804 63.446 C 134.960 63.306,135.091 62.991,135.094 62.746 C 135.098 62.475,135.208 62.323,135.375 62.358 C 135.549 62.395,135.606 62.304,135.531 62.108 C 135.453 61.905,135.529 61.799,135.756 61.797 C 136.051 61.794,136.058 61.766,135.800 61.600 C 135.544 61.435,135.553 61.406,135.855 61.403 C 136.089 61.401,136.251 61.194,136.331 60.793 C 136.398 60.459,136.501 60.234,136.559 60.292 C 136.617 60.351,136.823 60.046,137.015 59.615 C 137.208 59.185,137.554 58.732,137.783 58.609 C 138.012 58.486,138.200 58.298,138.200 58.191 C 138.200 57.979,139.398 56.221,139.955 55.615 C 140.145 55.409,140.615 54.851,141.000 54.377 C 142.550 52.466,146.297 48.882,148.300 47.394 C 148.960 46.903,149.553 46.429,149.619 46.340 C 149.968 45.862,154.672 43.009,157.100 41.803 C 161.057 39.837,166.494 37.895,169.100 37.515 C 169.430 37.467,170.330 37.331,171.100 37.213 C 171.870 37.096,173.291 36.878,174.257 36.731 C 179.458 35.938,191.003 36.961,194.800 38.551 C 194.965 38.621,195.190 38.691,195.300 38.708 C 195.410 38.725,195.635 38.796,195.800 38.867 C 196.454 39.146,198.921 40.027,199.254 40.100 C 199.598 40.176,200.163 40.442,202.000 41.391 C 202.495 41.647,203.670 42.240,204.610 42.710 C 205.551 43.180,206.437 43.704,206.580 43.875 C 206.722 44.047,207.437 44.520,208.169 44.927 C 210.445 46.193,216.442 51.380,218.161 53.569 C 218.741 54.308,219.627 55.356,220.350 56.159 C 220.597 56.434,220.800 56.722,220.800 56.800 C 220.800 56.878,221.022 57.181,221.293 57.474 C 221.565 57.767,222.035 58.433,222.338 58.953 C 222.641 59.474,223.046 60.071,223.237 60.280 C 223.429 60.489,223.546 60.726,223.497 60.805 C 223.448 60.885,223.621 61.180,223.883 61.462 C 224.144 61.745,224.300 62.040,224.229 62.120 C 224.158 62.199,224.262 62.205,224.460 62.134 C 224.660 62.062,224.770 62.086,224.707 62.188 C 224.645 62.290,224.679 62.425,224.784 62.490 C 224.889 62.555,224.942 62.781,224.902 62.991 C 224.861 63.202,224.979 63.493,225.164 63.637 C 225.458 63.867,225.469 63.860,225.252 63.582 C 224.816 63.023,225.126 63.000,233.183 63.000 L 241.100 63.000 241.646 62.530 C 241.947 62.271,242.161 62.024,242.122 61.980 C 242.083 61.936,242.234 61.720,242.457 61.500 C 242.679 61.280,242.797 61.213,242.719 61.350 C 242.632 61.502,242.693 61.600,242.875 61.600 C 243.039 61.600,243.231 61.419,243.301 61.197 C 243.371 60.975,243.502 60.840,243.592 60.895 C 243.681 60.950,243.877 60.844,244.027 60.659 C 244.259 60.374,244.258 60.349,244.019 60.493 C 243.827 60.608,243.784 60.588,243.883 60.428 C 243.963 60.299,244.111 60.245,244.213 60.308 C 244.315 60.371,244.785 60.012,245.259 59.511 C 245.732 59.010,246.189 58.600,246.274 58.600 C 246.420 58.600,247.166 57.936,249.470 55.753 C 250.020 55.233,250.731 54.606,251.050 54.362 C 252.252 53.441,252.311 53.615,248.704 47.400 C 248.289 46.685,247.713 45.693,247.425 45.195 C 247.136 44.698,246.585 43.731,246.200 43.048 C 245.399 41.626,245.155 41.548,243.504 42.190 C 242.952 42.405,241.645 42.850,240.600 43.179 C 239.555 43.508,237.634 44.143,236.331 44.589 C 235.028 45.035,233.806 45.400,233.615 45.400 C 233.423 45.400,233.205 45.462,233.130 45.537 C 232.951 45.715,231.706 46.156,230.733 46.385 C 229.872 46.587,230.021 46.691,228.200 44.626 C 226.404 42.590,224.044 40.258,222.250 38.747 C 220.420 37.205,220.277 36.784,221.142 35.465 C 221.314 35.202,221.398 34.931,221.329 34.862 C 221.260 34.793,221.276 34.639,221.366 34.518 C 221.455 34.398,221.646 33.895,221.790 33.400 C 222.050 32.508,222.542 30.977,222.755 30.400 C 222.816 30.235,222.877 30.055,222.890 30.000 C 222.904 29.945,222.982 29.630,223.065 29.300 C 223.147 28.970,223.340 28.430,223.494 28.100 C 224.076 26.853,224.389 25.517,224.138 25.357 C 223.985 25.260,223.978 25.205,224.118 25.203 C 224.511 25.198,224.781 24.327,224.476 24.043 C 224.069 23.662,205.876 23.782,205.955 24.165 C 205.985 24.311,205.928 24.379,205.829 24.318 C 205.729 24.256,205.344 24.578,204.974 25.033 C 203.627 26.686,203.282 27.018,202.895 27.037 C 202.346 27.064,201.956 26.943,201.639 26.648 C 201.490 26.510,201.287 26.446,201.188 26.507 C 200.952 26.653,199.400 26.186,199.400 25.968 C 199.400 25.876,199.305 25.800,199.188 25.800 C 199.072 25.800,199.033 25.913,199.103 26.050 C 199.173 26.188,199.084 26.120,198.907 25.901 C 198.630 25.558,198.558 25.544,198.395 25.801 C 198.239 26.048,198.206 26.033,198.203 25.710 C 198.201 25.407,198.147 25.373,197.960 25.560 C 197.828 25.692,197.626 25.799,197.510 25.797 C 197.395 25.795,197.435 25.707,197.600 25.600 C 197.856 25.434,197.849 25.406,197.550 25.403 C 197.088 25.399,196.987 25.370,196.414 25.072 C 196.147 24.934,195.832 24.881,195.714 24.955 C 195.372 25.169,195.011 25.180,194.887 24.979 C 194.824 24.877,194.675 24.854,194.555 24.928 C 194.432 25.004,194.395 24.969,194.471 24.847 C 194.631 24.588,193.517 24.304,193.174 24.516 C 193.035 24.602,192.991 24.576,193.067 24.454 C 193.229 24.192,192.403 24.027,191.170 24.075 C 190.653 24.095,190.245 24.041,190.265 23.954 C 190.296 23.813,171.326 23.755,169.600 23.891 C 169.131 23.928,168.917 24.038,168.953 24.223 C 168.983 24.381,168.876 24.334,168.703 24.112 C 168.433 23.765,168.400 23.761,168.400 24.069 C 168.400 24.352,168.328 24.376,168.000 24.200 C 167.691 24.034,167.600 24.048,167.600 24.260 C 167.600 24.410,167.469 24.533,167.309 24.533 C 167.149 24.533,167.057 24.470,167.105 24.392 C 167.153 24.314,166.971 24.250,166.700 24.250 C 166.429 24.250,166.246 24.313,166.294 24.390 C 166.341 24.467,166.182 24.523,165.940 24.515 C 165.649 24.505,165.522 24.602,165.564 24.800 C 165.613 25.027,165.572 25.044,165.394 24.870 C 165.240 24.719,164.959 24.697,164.576 24.807 C 163.904 25.000,163.902 25.000,163.488 25.000 C 163.317 25.000,163.226 25.081,163.287 25.179 C 163.442 25.429,162.921 25.596,162.323 25.487 C 161.986 25.426,161.755 25.512,161.617 25.748 C 161.504 25.942,161.409 25.996,161.406 25.869 C 161.399 25.601,160.600 25.754,160.600 26.023 C 160.600 26.120,160.505 26.200,160.388 26.200 C 160.272 26.200,160.244 26.088,160.327 25.950 C 160.415 25.804,160.325 25.823,160.111 25.997 C 159.910 26.160,159.600 26.295,159.423 26.297 C 159.245 26.299,159.115 26.390,159.133 26.500 C 159.151 26.610,158.807 26.705,158.369 26.710 C 157.899 26.716,157.499 26.839,157.393 27.010 C 157.197 27.328,156.250 26.923,156.200 26.500 C 156.160 26.168,155.354 25.405,155.166 25.521 C 155.069 25.581,155.015 25.549,155.045 25.451 C 155.075 25.353,154.764 24.955,154.354 24.566 C 153.943 24.177,153.666 23.801,153.737 23.730 C 153.808 23.658,153.784 23.622,153.683 23.648 C 153.583 23.674,149.423 23.720,144.439 23.750 M178.147 46.316 C 178.121 46.340,177.245 46.419,176.200 46.492 C 175.155 46.564,174.152 46.666,173.971 46.719 C 173.790 46.771,173.385 46.853,173.071 46.902 C 172.757 46.950,172.365 47.021,172.200 47.059 C 172.035 47.098,171.360 47.244,170.700 47.384 C 168.589 47.831,166.844 48.412,163.300 49.845 C 161.653 50.511,157.471 52.956,155.690 54.294 C 153.046 56.280,149.225 59.968,149.582 60.189 C 149.691 60.256,149.509 60.431,149.177 60.578 C 148.846 60.725,148.610 60.947,148.653 61.072 C 148.723 61.276,148.133 62.016,147.967 61.933 C 147.930 61.915,147.919 61.934,147.943 61.976 C 148.060 62.184,147.551 62.793,147.359 62.675 C 147.226 62.592,147.195 62.630,147.281 62.769 C 147.388 62.942,155.609 63.000,180.072 63.000 C 198.028 63.000,212.807 63.067,212.914 63.150 C 213.021 63.233,212.967 63.165,212.795 63.000 C 212.622 62.835,212.418 62.537,212.342 62.337 C 212.265 62.138,212.112 62.031,212.001 62.099 C 211.891 62.168,211.800 62.078,211.800 61.900 C 211.800 61.722,211.720 61.626,211.623 61.686 C 211.525 61.746,211.323 61.639,211.173 61.448 C 210.926 61.133,210.933 61.126,211.250 61.374 C 211.443 61.525,211.600 61.558,211.600 61.447 C 211.600 61.337,211.375 61.099,211.100 60.918 C 210.825 60.738,210.600 60.474,210.600 60.331 C 210.600 60.048,206.596 56.195,205.300 55.231 C 204.860 54.904,204.294 54.448,204.043 54.218 C 203.792 53.988,203.507 53.800,203.410 53.800 C 203.313 53.800,203.203 53.725,203.167 53.634 C 203.109 53.491,201.814 52.690,199.500 51.369 C 196.847 49.854,192.103 47.953,189.899 47.522 C 188.091 47.169,186.204 46.831,185.500 46.734 C 185.060 46.673,184.340 46.570,183.900 46.504 C 183.124 46.388,178.241 46.229,178.147 46.316 M146.592 63.500 C 146.570 63.610,146.563 63.767,146.576 63.850 C 146.589 63.933,146.510 64.000,146.400 64.000 C 146.290 64.000,146.200 64.109,146.200 64.243 C 146.200 64.400,146.314 64.372,146.523 64.163 C 146.701 63.985,146.798 63.718,146.739 63.570 C 146.680 63.421,146.614 63.390,146.592 63.500 M45.000 297.176 C 45.000 298.865,45.067 299.407,45.300 299.600 C 45.465 299.737,45.601 299.770,45.603 299.674 C 45.605 299.579,45.672 299.602,45.753 299.728 C 45.834 299.853,46.530 300.296,47.300 300.712 C 48.070 301.129,48.925 301.621,49.200 301.806 C 49.475 301.991,50.150 302.396,50.700 302.705 C 52.249 303.577,53.840 304.493,58.549 307.223 C 62.816 309.697,66.611 311.892,74.400 316.392 C 83.672 321.748,87.964 324.228,92.000 326.561 C 94.365 327.929,98.955 330.578,102.200 332.449 C 105.445 334.320,108.370 336.008,108.700 336.201 C 110.559 337.287,111.993 338.111,112.700 338.502 C 113.140 338.745,113.976 339.226,114.559 339.572 C 115.141 339.917,115.674 340.200,115.743 340.200 C 115.812 340.200,116.011 340.323,116.184 340.474 C 116.482 340.732,117.408 341.270,119.338 342.306 C 120.501 342.930,121.425 343.583,121.923 344.133 C 122.199 344.437,122.570 344.600,122.987 344.600 C 123.361 344.600,123.898 344.807,124.281 345.099 C 124.641 345.374,124.995 345.539,125.068 345.466 C 125.140 345.393,125.200 345.453,125.200 345.600 C 125.200 345.747,125.255 345.812,125.321 345.745 C 125.388 345.679,125.635 345.807,125.871 346.031 C 126.255 346.396,127.293 346.926,127.305 346.764 C 127.307 346.729,127.523 346.899,127.785 347.143 C 128.047 347.387,128.327 347.545,128.408 347.495 C 128.489 347.445,128.665 347.537,128.800 347.700 C 128.935 347.863,129.113 347.954,129.196 347.903 C 129.279 347.851,129.515 347.996,129.721 348.223 C 129.927 348.451,130.277 348.724,130.498 348.830 C 130.896 349.020,130.897 349.019,130.506 348.706 C 130.145 348.418,130.799 348.396,138.137 348.445 C 142.551 348.475,146.125 348.440,146.080 348.367 C 146.035 348.294,145.571 348.031,145.049 347.781 C 144.527 347.532,144.045 347.246,143.978 347.147 C 143.910 347.047,143.820 346.996,143.778 347.032 C 143.735 347.069,143.340 346.879,142.900 346.612 C 142.460 346.344,142.032 346.142,141.950 346.162 C 141.868 346.183,141.800 346.106,141.800 345.992 C 141.800 345.877,141.238 345.517,140.550 345.192 L 139.300 344.600 199.900 344.600 L 260.500 344.600 259.250 345.192 C 258.563 345.517,258.000 345.882,258.000 346.003 C 258.000 346.124,257.910 346.168,257.800 346.100 C 257.690 346.032,257.600 346.055,257.600 346.151 C 257.600 346.341,256.195 347.095,255.950 347.036 C 255.868 347.016,255.800 347.090,255.800 347.200 C 255.800 347.310,255.665 347.400,255.500 347.400 C 255.335 347.400,255.200 347.490,255.200 347.600 C 255.200 347.710,255.030 347.800,254.822 347.800 C 254.614 347.800,254.250 347.957,254.012 348.150 C 253.599 348.484,253.936 348.498,261.634 348.445 C 269.099 348.395,269.660 348.415,269.294 348.717 C 268.986 348.971,269.030 348.966,269.500 348.690 C 269.830 348.496,270.173 348.214,270.262 348.064 C 270.352 347.914,270.499 347.837,270.590 347.894 C 270.680 347.950,270.865 347.863,271.000 347.700 C 271.135 347.537,271.311 347.445,271.392 347.495 C 271.473 347.545,271.733 347.406,271.970 347.185 C 272.206 346.965,272.400 346.831,272.400 346.888 C 272.400 346.945,272.693 346.815,273.050 346.598 C 273.407 346.382,273.903 346.116,274.150 346.007 C 274.397 345.899,274.600 345.703,274.600 345.572 C 274.600 345.441,274.656 345.389,274.725 345.458 C 274.793 345.527,275.139 345.362,275.494 345.091 C 275.916 344.769,276.399 344.600,276.896 344.600 C 277.514 344.600,277.765 344.472,278.246 343.908 C 278.571 343.528,279.391 342.910,280.068 342.536 C 281.509 341.741,282.076 341.416,284.500 340.000 C 285.490 339.421,286.660 338.748,287.100 338.504 C 287.540 338.260,288.485 337.721,289.200 337.306 C 289.915 336.891,290.799 336.380,291.164 336.171 C 291.530 335.962,293.195 335.000,294.864 334.033 C 296.534 333.067,299.475 331.369,301.400 330.260 C 303.325 329.151,307.735 326.604,311.200 324.600 C 320.945 318.964,325.938 316.079,330.400 313.508 C 334.465 311.165,335.865 310.354,340.500 307.658 C 341.820 306.890,343.512 305.910,344.259 305.481 C 345.007 305.051,346.177 304.378,346.859 303.984 C 347.542 303.590,348.550 303.016,349.100 302.707 C 349.650 302.399,350.190 302.077,350.300 301.992 C 350.410 301.908,351.040 301.547,351.700 301.192 C 352.360 300.836,353.192 300.328,353.550 300.063 C 353.908 299.797,354.200 299.640,354.200 299.714 C 354.200 299.788,354.335 299.737,354.500 299.600 C 354.733 299.407,354.800 298.865,354.800 297.176 L 354.800 295.000 350.412 295.000 C 347.655 295.000,345.977 295.076,345.898 295.203 C 345.829 295.315,345.689 295.355,345.586 295.291 C 345.484 295.228,345.400 295.262,345.400 295.367 C 345.400 295.472,344.815 295.840,344.100 296.185 C 343.385 296.530,342.800 296.905,342.800 297.018 C 342.800 297.131,342.710 297.168,342.600 297.100 C 342.490 297.032,342.400 297.072,342.400 297.188 C 342.400 297.305,342.228 297.400,342.017 297.400 C 341.806 297.400,341.603 297.468,341.567 297.550 C 341.530 297.632,340.987 297.964,340.361 298.287 C 339.734 298.609,339.277 298.962,339.344 299.071 C 339.415 299.186,339.330 299.216,339.139 299.143 C 338.960 299.074,338.754 299.113,338.682 299.229 C 338.610 299.346,338.270 299.569,337.926 299.726 C 337.582 299.883,336.940 300.235,336.500 300.509 C 336.060 300.783,335.520 301.096,335.300 301.206 C 335.080 301.315,334.585 301.597,334.200 301.832 C 333.815 302.066,333.005 302.531,332.400 302.866 C 331.795 303.200,330.895 303.724,330.400 304.031 C 329.905 304.337,329.005 304.860,328.400 305.193 C 327.795 305.525,326.940 306.022,326.500 306.297 C 326.060 306.572,325.565 306.861,325.400 306.939 C 325.105 307.078,323.845 307.801,317.100 311.699 C 315.230 312.779,312.350 314.443,310.700 315.396 C 306.037 318.088,298.848 322.243,292.600 325.858 C 289.465 327.672,286.870 329.128,286.834 329.095 C 286.797 329.062,287.390 327.969,288.152 326.667 C 289.597 324.195,291.426 321.032,294.146 316.300 C 296.328 312.504,300.814 304.748,302.238 302.311 C 303.849 299.553,304.176 299.784,298.750 299.846 L 294.100 299.900 292.782 302.200 C 292.057 303.465,290.579 306.030,289.497 307.900 C 288.415 309.770,287.066 312.110,286.499 313.100 C 285.932 314.090,284.945 315.800,284.306 316.900 C 283.667 318.000,282.288 320.385,281.241 322.200 C 280.194 324.015,278.713 326.580,277.951 327.900 C 277.189 329.220,275.785 331.671,274.832 333.346 L 273.100 336.391 242.800 336.392 L 212.500 336.393 214.200 335.430 C 215.135 334.901,217.115 333.763,218.600 332.902 C 220.085 332.041,222.425 330.690,223.800 329.900 C 227.069 328.021,230.871 325.828,234.100 323.958 C 235.530 323.130,237.870 321.781,239.300 320.959 C 240.730 320.138,244.285 318.086,247.200 316.400 C 250.115 314.714,254.210 312.346,256.300 311.138 C 258.390 309.931,260.640 308.630,261.300 308.247 C 261.960 307.864,262.770 307.396,263.100 307.206 C 264.676 306.301,267.764 304.505,268.300 304.182 C 268.630 303.984,269.125 303.696,269.400 303.543 C 270.172 303.114,271.173 302.543,272.656 301.685 C 273.403 301.253,274.438 300.655,274.956 300.355 L 275.900 299.809 267.738 299.805 L 259.577 299.800 258.738 300.269 C 258.277 300.527,257.000 301.260,255.900 301.897 C 254.800 302.535,253.540 303.260,253.100 303.508 C 251.840 304.218,248.760 306.014,248.100 306.424 C 247.770 306.629,247.365 306.860,247.200 306.938 C 247.035 307.016,245.820 307.704,244.500 308.467 C 243.180 309.229,240.120 310.995,237.700 312.390 C 235.280 313.785,231.770 315.811,229.900 316.892 C 223.944 320.334,221.607 321.684,217.000 324.343 C 214.525 325.772,211.600 327.463,210.500 328.101 C 209.400 328.740,207.375 329.910,206.000 330.702 C 204.625 331.495,202.705 332.606,201.734 333.171 C 200.763 333.737,199.938 334.200,199.900 334.200 C 199.862 334.200,199.037 333.737,198.066 333.171 C 197.095 332.606,195.175 331.495,193.800 330.702 C 192.425 329.910,190.400 328.740,189.300 328.101 C 188.200 327.463,185.275 325.772,182.800 324.343 C 178.193 321.684,175.856 320.334,169.900 316.892 C 168.030 315.811,164.520 313.785,162.100 312.390 C 159.680 310.995,156.620 309.229,155.300 308.467 C 153.980 307.704,152.765 307.016,152.600 306.938 C 152.435 306.860,152.030 306.629,151.700 306.424 C 151.040 306.014,147.960 304.218,146.700 303.508 C 146.260 303.260,145.000 302.535,143.900 301.897 C 142.800 301.260,141.523 300.527,141.062 300.269 L 140.223 299.800 132.062 299.805 L 123.900 299.809 124.844 300.355 C 125.362 300.655,126.397 301.253,127.144 301.685 C 128.627 302.543,129.628 303.114,130.400 303.543 C 130.675 303.696,131.170 303.985,131.500 304.185 C 131.830 304.385,133.315 305.248,134.800 306.104 C 136.285 306.959,137.995 307.948,138.600 308.301 C 139.741 308.967,143.533 311.159,152.600 316.394 C 158.074 319.555,161.158 321.336,165.550 323.873 C 166.953 324.684,169.630 326.227,171.500 327.302 C 173.370 328.378,175.755 329.754,176.800 330.360 C 179.452 331.897,183.582 334.274,185.600 335.424 L 187.300 336.393 157.100 336.392 L 126.900 336.391 125.168 333.346 C 123.339 330.128,121.913 327.648,118.702 322.100 C 116.351 318.039,115.504 316.569,114.896 315.500 C 114.646 315.060,113.969 313.890,113.392 312.900 C 112.316 311.055,111.270 309.242,107.854 303.300 L 105.900 299.900 101.250 299.846 C 96.100 299.787,96.277 299.734,97.067 301.100 C 97.322 301.540,98.388 303.385,99.437 305.200 C 100.486 307.015,101.866 309.400,102.503 310.500 C 103.140 311.600,104.323 313.648,105.131 315.050 C 109.704 322.987,112.495 327.815,113.015 328.688 C 113.273 329.121,113.398 329.426,113.292 329.366 C 113.089 329.250,108.643 326.684,100.700 322.101 C 98.060 320.578,94.865 318.730,93.600 317.994 C 92.335 317.258,89.770 315.774,87.900 314.697 C 86.030 313.619,83.330 312.062,81.900 311.236 C 80.470 310.410,78.265 309.138,77.000 308.407 C 75.735 307.677,74.565 307.016,74.400 306.938 C 74.235 306.860,73.785 306.602,73.400 306.364 C 72.443 305.773,70.438 304.617,68.400 303.481 C 67.465 302.959,66.475 302.381,66.200 302.195 C 65.925 302.009,65.295 301.632,64.800 301.356 C 64.305 301.081,63.585 300.666,63.200 300.434 C 62.815 300.202,62.218 299.883,61.874 299.726 C 61.530 299.569,61.190 299.346,61.118 299.229 C 61.046 299.113,60.840 299.074,60.661 299.143 C 60.470 299.216,60.385 299.186,60.456 299.071 C 60.523 298.962,60.066 298.609,59.439 298.287 C 58.813 297.964,58.270 297.632,58.233 297.550 C 58.197 297.468,57.994 297.400,57.783 297.400 C 57.573 297.400,57.400 297.305,57.400 297.188 C 57.400 297.072,57.310 297.032,57.200 297.100 C 57.090 297.168,57.000 297.131,57.000 297.018 C 57.000 296.905,56.415 296.530,55.700 296.185 C 54.985 295.840,54.400 295.472,54.400 295.367 C 54.400 295.262,54.310 295.232,54.200 295.300 C 54.090 295.368,54.000 295.328,54.000 295.212 C 54.000 295.069,52.534 295.000,49.500 295.000 L 45.000 295.000 45.000 297.176 " stroke="none" fill="#0c6c13" fill-rule="evenodd"></path><path id="path3" d="M173.410 7.990 C 173.250 8.091,173.062 8.139,172.993 8.096 C 172.923 8.053,172.861 8.126,172.854 8.259 C 172.830 8.695,172.583 10.094,172.475 10.400 C 172.417 10.565,172.326 11.055,172.273 11.489 C 172.219 11.923,172.114 12.373,172.038 12.489 C 171.962 12.605,171.884 12.970,171.865 13.300 C 171.846 13.630,171.779 14.125,171.716 14.400 C 171.653 14.675,171.559 15.125,171.508 15.400 C 171.456 15.675,171.326 16.255,171.219 16.689 C 171.112 17.123,171.072 17.554,171.129 17.648 C 171.187 17.741,171.126 17.949,170.993 18.109 C 170.860 18.269,170.818 18.400,170.900 18.400 C 170.982 18.400,170.925 18.552,170.774 18.738 C 170.548 19.017,170.548 19.048,170.771 18.914 C 170.978 18.789,170.972 18.862,170.743 19.225 C 170.579 19.486,170.471 19.858,170.504 20.050 C 170.538 20.243,170.471 20.400,170.357 20.400 C 170.226 20.400,170.197 20.701,170.279 21.215 C 170.365 21.750,170.339 21.986,170.205 21.903 C 170.092 21.833,170.000 21.872,170.000 21.988 C 170.000 22.105,170.158 22.206,170.350 22.213 C 170.618 22.222,170.595 22.268,170.250 22.406 C 169.754 22.605,169.662 22.911,170.050 23.068 C 170.242 23.145,170.240 23.172,170.038 23.184 C 169.894 23.193,169.832 23.290,169.900 23.400 C 169.968 23.510,169.889 23.600,169.724 23.600 C 169.559 23.600,169.366 23.693,169.296 23.807 C 169.214 23.939,169.373 23.976,169.734 23.911 C 170.649 23.744,190.303 23.781,190.266 23.949 C 190.248 24.033,190.621 24.102,191.097 24.101 C 191.572 24.101,191.919 24.032,191.869 23.950 C 191.818 23.868,191.526 23.800,191.219 23.800 C 190.912 23.800,190.378 23.658,190.031 23.485 C 189.354 23.148,189.173 22.928,189.750 23.144 C 190.049 23.256,190.062 23.228,189.842 22.957 C 189.631 22.697,189.631 22.620,189.842 22.535 C 190.050 22.450,190.051 22.396,189.845 22.251 C 189.566 22.053,189.350 21.350,189.355 20.650 C 189.356 20.403,189.286 20.200,189.198 20.200 C 189.110 20.200,189.084 20.021,189.141 19.803 C 189.198 19.585,189.179 19.247,189.097 19.053 C 189.016 18.859,188.920 18.430,188.884 18.100 C 188.848 17.770,188.675 16.960,188.499 16.300 C 188.324 15.640,188.177 14.965,188.174 14.800 C 188.166 14.386,187.617 11.714,187.291 10.500 C 187.143 9.950,186.923 9.117,186.803 8.650 L 186.585 7.800 180.142 7.803 C 176.578 7.805,173.570 7.888,173.410 7.990 M144.989 15.580 C 144.720 15.752,144.445 15.970,144.378 16.064 C 144.310 16.157,144.175 16.236,144.078 16.239 C 143.761 16.246,141.952 17.285,141.444 17.750 C 141.294 17.887,141.043 18.000,140.886 18.000 C 140.729 18.000,140.600 18.105,140.600 18.233 C 140.600 18.362,140.544 18.411,140.476 18.343 C 140.408 18.274,139.866 18.529,139.272 18.909 C 138.678 19.289,138.104 19.600,137.996 19.600 C 137.888 19.600,137.800 19.672,137.800 19.760 C 137.800 19.848,137.478 20.036,137.085 20.178 C 136.692 20.320,136.420 20.487,136.482 20.548 C 136.543 20.610,136.178 20.860,135.670 21.104 C 135.100 21.380,134.853 21.591,135.024 21.659 C 135.236 21.743,135.240 21.772,135.038 21.784 C 134.894 21.793,134.831 21.889,134.899 21.998 C 134.969 22.111,134.888 22.145,134.710 22.076 C 134.540 22.011,134.400 22.057,134.400 22.179 C 134.400 22.300,134.513 22.401,134.650 22.403 C 134.834 22.405,134.828 22.452,134.629 22.578 C 134.436 22.700,134.423 22.790,134.582 22.889 C 134.705 22.965,134.763 23.098,134.709 23.185 C 134.656 23.271,134.849 23.557,135.138 23.821 C 135.428 24.084,135.600 24.188,135.520 24.050 C 135.406 23.852,137.233 23.800,144.376 23.800 C 150.161 23.800,153.421 23.729,153.500 23.600 C 153.568 23.490,153.528 23.400,153.412 23.400 C 153.295 23.400,153.200 23.272,153.200 23.116 C 153.200 22.724,151.594 21.381,151.321 21.544 C 151.199 21.617,151.235 21.507,151.400 21.300 C 151.565 21.093,151.592 20.988,151.460 21.067 C 151.318 21.152,151.128 21.039,150.995 20.790 C 150.789 20.407,150.575 20.143,149.677 19.170 C 149.509 18.989,149.150 18.539,148.878 18.170 C 148.606 17.802,148.342 17.523,148.292 17.550 C 148.241 17.578,148.207 17.549,148.215 17.486 C 148.223 17.424,147.795 16.909,147.265 16.341 C 146.233 15.238,145.765 15.082,144.989 15.580 M212.744 16.215 C 212.225 16.774,211.800 17.319,211.800 17.427 C 211.800 17.535,211.720 17.574,211.623 17.514 C 211.525 17.454,211.323 17.556,211.173 17.741 C 210.939 18.029,210.942 18.055,211.200 17.924 C 211.365 17.839,211.325 17.912,211.112 18.085 C 210.898 18.258,210.790 18.400,210.872 18.400 C 210.954 18.400,210.778 18.625,210.481 18.900 C 210.184 19.175,209.850 19.400,209.737 19.400 C 209.625 19.400,209.588 19.454,209.654 19.521 C 209.721 19.588,209.533 19.868,209.238 20.145 C 208.942 20.422,208.722 20.727,208.750 20.824 C 208.777 20.921,208.662 21.000,208.494 21.000 C 208.325 21.000,208.129 21.157,208.057 21.350 C 207.985 21.543,207.761 21.819,207.560 21.964 C 207.358 22.109,207.245 22.311,207.308 22.414 C 207.372 22.516,207.273 22.600,207.088 22.600 C 206.856 22.600,206.784 22.718,206.855 22.987 C 206.914 23.215,206.838 23.420,206.668 23.485 C 206.478 23.558,206.429 23.511,206.524 23.348 C 206.604 23.211,206.473 23.271,206.234 23.481 C 205.995 23.691,205.800 23.871,205.800 23.881 C 205.800 23.891,209.985 23.874,215.100 23.843 C 221.414 23.804,224.400 23.852,224.400 23.993 C 224.400 24.107,224.537 24.200,224.704 24.200 C 224.919 24.200,224.981 24.054,224.917 23.700 C 224.867 23.425,224.908 23.200,225.007 23.200 C 225.106 23.200,225.130 23.050,225.060 22.867 C 224.974 22.643,225.009 22.582,225.166 22.679 C 225.308 22.767,225.400 22.696,225.400 22.500 C 225.400 22.294,225.309 22.231,225.150 22.327 C 224.975 22.432,224.981 22.377,225.170 22.144 C 225.433 21.819,224.215 20.796,223.750 20.950 C 223.668 20.978,223.600 20.895,223.600 20.767 C 223.600 20.638,223.543 20.590,223.474 20.660 C 223.404 20.729,223.029 20.523,222.640 20.202 C 222.250 19.881,221.857 19.665,221.766 19.721 C 221.675 19.778,221.600 19.719,221.600 19.590 C 221.600 19.462,221.465 19.409,221.300 19.472 C 221.135 19.536,221.000 19.496,221.000 19.384 C 221.000 19.271,220.691 19.051,220.314 18.893 C 219.936 18.735,219.570 18.513,219.500 18.400 C 219.430 18.286,219.289 18.245,219.186 18.309 C 219.084 18.372,219.000 18.342,219.000 18.243 C 219.000 18.144,218.663 17.892,218.250 17.683 C 217.838 17.474,217.343 17.176,217.150 17.021 C 216.957 16.865,216.800 16.814,216.800 16.907 C 216.800 17.000,216.685 16.919,216.545 16.727 C 216.404 16.535,216.127 16.354,215.929 16.325 C 215.730 16.296,215.508 16.186,215.434 16.081 C 215.224 15.783,214.243 15.200,213.951 15.200 C 213.806 15.200,213.263 15.657,212.744 16.215 M153.946 24.200 C 154.135 24.420,154.358 24.600,154.442 24.600 C 154.527 24.600,154.442 24.420,154.254 24.200 C 154.065 23.980,153.842 23.800,153.758 23.800 C 153.673 23.800,153.758 23.980,153.946 24.200 M135.014 24.300 C 135.014 24.410,135.143 24.725,135.300 25.000 C 135.457 25.275,135.586 25.410,135.586 25.300 C 135.586 25.190,135.457 24.875,135.300 24.600 C 135.143 24.325,135.014 24.190,135.014 24.300 M194.467 24.689 C 194.467 24.848,194.519 24.972,194.583 24.965 C 194.648 24.958,194.745 24.970,194.800 24.992 C 195.174 25.137,195.615 25.138,195.705 24.993 C 195.763 24.898,195.635 24.855,195.421 24.896 C 195.207 24.937,194.982 24.842,194.922 24.685 C 194.780 24.314,194.467 24.317,194.467 24.689 M224.616 24.536 C 224.607 24.665,224.459 24.913,224.286 25.086 C 224.113 25.259,224.057 25.400,224.161 25.400 C 224.465 25.400,224.847 24.837,224.735 24.557 C 224.665 24.383,224.626 24.376,224.616 24.536 M162.501 25.274 C 162.147 25.533,162.153 25.546,162.613 25.500 C 163.403 25.421,163.429 25.409,163.300 25.200 C 163.134 24.931,162.947 24.948,162.501 25.274 M204.299 25.479 C 204.190 25.633,203.885 26.061,203.622 26.429 L 203.144 27.100 203.622 26.592 C 204.555 25.600,204.860 25.200,204.680 25.200 C 204.580 25.200,204.408 25.326,204.299 25.479 M200.000 26.300 C 200.947 26.665,201.470 26.658,200.627 26.292 C 200.257 26.131,199.807 26.007,199.627 26.015 C 199.447 26.024,199.615 26.152,200.000 26.300 M275.600 345.016 L 275.100 345.424 275.750 345.107 C 276.108 344.932,276.400 344.747,276.400 344.695 C 276.400 344.496,276.081 344.624,275.600 345.016 M142.400 346.275 C 142.400 346.322,142.720 346.550,143.112 346.781 C 143.504 347.012,143.768 347.110,143.699 346.999 C 143.565 346.782,142.400 346.133,142.400 346.275 M256.650 346.598 C 255.747 347.148,255.831 347.283,256.750 346.757 C 257.674 346.228,257.711 346.200,257.483 346.201 C 257.382 346.201,257.007 346.380,256.650 346.598 M130.895 348.996 C 131.313 349.328,131.748 349.600,131.862 349.600 C 131.975 349.600,132.211 349.722,132.384 349.870 C 132.558 350.019,133.105 350.354,133.600 350.614 C 134.095 350.874,134.673 351.225,134.884 351.394 C 135.218 351.660,135.247 351.661,135.102 351.400 C 135.010 351.235,135.159 351.303,135.433 351.552 C 135.706 351.800,135.988 351.945,136.060 351.873 C 136.132 351.801,136.245 351.885,136.312 352.059 C 136.384 352.248,136.560 352.326,136.749 352.253 C 136.934 352.182,137.014 352.215,136.942 352.332 C 136.874 352.442,137.511 352.913,138.359 353.377 C 139.207 353.842,140.350 354.498,140.900 354.835 C 141.450 355.172,142.305 355.668,142.800 355.937 C 143.295 356.207,143.970 356.590,144.300 356.788 C 144.630 356.987,148.635 359.310,153.200 361.951 C 188.364 382.291,199.684 388.800,199.900 388.800 C 200.037 388.800,210.983 382.535,224.224 374.878 C 237.466 367.221,248.705 360.727,249.200 360.448 C 250.187 359.890,254.545 357.357,255.500 356.786 C 255.830 356.588,256.505 356.207,257.000 355.937 C 257.495 355.668,258.350 355.172,258.900 354.835 C 259.450 354.498,260.593 353.842,261.441 353.377 C 262.289 352.913,262.926 352.442,262.858 352.332 C 262.786 352.215,262.866 352.182,263.051 352.253 C 263.236 352.325,263.415 352.251,263.482 352.075 C 263.545 351.910,263.678 351.824,263.776 351.885 C 263.874 351.946,264.065 351.863,264.200 351.700 C 264.335 351.537,264.515 351.447,264.600 351.500 C 264.685 351.553,264.866 351.462,265.002 351.298 C 265.138 351.134,265.320 351.000,265.407 351.000 C 265.659 351.000,268.444 349.373,269.070 348.859 L 269.640 348.392 261.570 348.404 L 253.500 348.417 251.900 349.342 C 251.020 349.852,250.181 350.410,250.035 350.584 C 249.825 350.834,249.801 350.838,249.917 350.600 C 249.998 350.435,249.825 350.518,249.532 350.785 C 249.240 351.052,248.999 351.187,248.997 351.085 C 248.995 350.983,248.928 350.990,248.847 351.100 C 248.766 351.210,248.183 351.567,247.550 351.893 C 246.918 352.219,246.400 352.572,246.400 352.676 C 246.400 352.781,246.343 352.809,246.273 352.739 C 246.202 352.669,245.910 352.773,245.623 352.971 C 245.335 353.168,244.079 353.908,242.831 354.615 C 241.583 355.322,240.278 356.071,239.931 356.279 C 239.584 356.488,238.805 356.928,238.200 357.257 C 237.595 357.587,236.958 357.978,236.784 358.128 C 236.611 358.278,236.411 358.400,236.342 358.400 C 236.272 358.400,233.984 359.692,231.257 361.270 C 211.155 372.909,200.078 379.267,199.900 379.267 C 199.786 379.267,191.279 374.406,180.996 368.466 C 170.713 362.525,161.895 357.438,161.400 357.160 C 160.905 356.883,160.216 356.486,159.869 356.278 C 159.522 356.070,158.217 355.322,156.969 354.615 C 155.721 353.908,154.465 353.168,154.177 352.971 C 153.890 352.773,153.598 352.669,153.527 352.739 C 153.457 352.809,153.400 352.781,153.400 352.676 C 153.400 352.572,152.883 352.219,152.250 351.893 C 151.618 351.567,151.070 351.233,151.033 351.150 C 150.997 351.068,150.869 351.000,150.749 351.000 C 150.629 351.000,150.351 350.843,150.131 350.650 C 149.835 350.390,149.770 350.377,149.880 350.600 C 149.998 350.837,149.974 350.834,149.765 350.584 C 149.619 350.410,148.780 349.852,147.900 349.342 L 146.300 348.417 138.217 348.404 L 130.135 348.392 130.895 348.996 " stroke="none" fill="#0b7414" fill-rule="evenodd"></path><path id="path4" d="M138.846 88.400 C 138.846 88.785,138.888 88.942,138.938 88.750 C 138.988 88.558,138.988 88.243,138.938 88.050 C 138.888 87.858,138.846 88.015,138.846 88.400 M100.246 89.400 C 100.246 89.785,100.288 89.942,100.338 89.750 C 100.388 89.558,100.388 89.243,100.338 89.050 C 100.288 88.858,100.246 89.015,100.246 89.400 M259.454 90.600 C 259.454 91.095,259.493 91.298,259.541 91.050 C 259.589 90.803,259.589 90.398,259.541 90.150 C 259.493 89.903,259.454 90.105,259.454 90.600 M213.684 109.870 C 213.615 110.050,213.479 110.149,213.381 110.088 C 213.284 110.028,213.260 110.123,213.327 110.299 C 213.432 110.573,213.492 110.558,213.745 110.196 C 213.908 109.964,213.989 109.722,213.925 109.658 C 213.861 109.595,213.753 109.690,213.684 109.870 M118.919 111.121 C 118.855 111.289,118.712 111.369,118.601 111.301 C 118.491 111.232,118.400 111.322,118.400 111.500 C 118.400 111.678,118.310 111.768,118.200 111.700 C 118.090 111.632,118.000 111.751,118.000 111.964 C 118.000 112.393,117.539 112.873,117.329 112.663 C 117.256 112.589,116.904 112.831,116.548 113.201 C 116.191 113.570,116.035 113.797,116.200 113.704 C 116.379 113.604,116.433 113.610,116.333 113.718 C 116.242 113.818,116.081 113.900,115.976 113.900 C 115.690 113.900,114.852 114.580,113.696 115.750 C 113.126 116.328,112.551 116.800,112.418 116.800 C 112.285 116.800,112.232 116.890,112.300 117.000 C 112.368 117.110,112.341 117.200,112.241 117.200 C 112.141 117.200,111.827 117.403,111.544 117.650 C 111.262 117.897,110.559 118.505,109.983 119.000 C 107.426 121.198,107.511 120.997,108.500 122.487 C 108.885 123.067,109.204 123.622,109.209 123.721 C 109.214 123.819,109.663 124.620,110.208 125.500 C 110.752 126.380,111.309 127.325,111.446 127.600 C 111.583 127.875,111.809 128.219,111.948 128.364 C 112.086 128.510,112.200 128.737,112.200 128.869 C 112.200 129.001,112.557 129.647,112.994 130.304 C 113.431 130.962,113.791 131.579,113.794 131.677 C 113.818 132.424,115.036 132.758,116.106 132.310 C 116.488 132.151,116.800 132.072,116.800 132.135 C 116.800 132.198,116.913 132.160,117.050 132.051 C 117.312 131.842,118.440 131.446,119.171 131.305 C 119.408 131.260,119.714 131.151,119.851 131.064 C 119.988 130.977,120.640 130.755,121.300 130.572 C 121.960 130.389,122.975 130.057,123.556 129.835 C 124.136 129.612,124.631 129.429,124.656 129.428 C 124.680 129.427,124.835 129.382,125.000 129.328 C 126.307 128.903,126.919 128.716,127.033 128.709 C 127.107 128.704,127.234 128.633,127.317 128.550 C 127.399 128.468,127.626 128.400,127.820 128.400 C 128.015 128.400,128.427 128.296,128.737 128.169 C 129.793 127.737,129.927 127.786,130.922 128.955 C 132.232 130.495,137.112 135.373,138.060 136.088 C 139.331 137.049,139.333 137.096,138.286 140.261 C 137.769 141.822,137.280 143.238,137.199 143.407 C 137.117 143.575,136.989 144.025,136.914 144.407 C 136.782 145.073,136.553 145.708,136.177 146.447 C 135.561 147.658,134.965 147.587,146.250 147.646 C 151.888 147.676,156.635 147.641,156.800 147.570 C 157.076 147.450,158.332 147.766,159.300 148.198 C 159.520 148.296,160.012 148.438,160.393 148.514 C 160.775 148.589,161.225 148.724,161.393 148.814 C 161.930 149.099,164.449 149.800,164.936 149.800 C 165.194 149.800,165.562 149.881,165.753 149.981 C 165.944 150.080,166.730 150.268,167.500 150.398 C 168.270 150.528,169.058 150.678,169.250 150.731 C 169.539 150.810,169.600 150.694,169.600 150.057 C 169.600 149.392,169.745 149.143,170.656 148.243 L 171.713 147.200 187.724 147.200 C 203.518 147.200,203.763 147.194,205.718 146.758 C 210.022 145.797,217.612 146.150,222.171 147.522 C 224.109 148.106,224.158 148.088,223.750 146.954 C 223.581 146.485,222.978 144.615,222.412 142.800 C 221.846 140.985,221.206 139.048,220.991 138.496 C 220.453 137.115,220.337 137.368,222.220 135.802 C 223.562 134.687,228.800 129.396,228.800 129.157 C 228.800 128.232,230.291 127.849,231.777 128.392 C 232.367 128.607,232.906 128.768,232.975 128.749 C 233.044 128.730,233.303 128.827,233.550 128.965 C 233.798 129.102,234.000 129.163,234.000 129.100 C 234.000 129.037,234.170 129.077,234.378 129.188 C 234.586 129.300,235.090 129.432,235.499 129.483 C 235.907 129.533,236.400 129.719,236.595 129.896 C 236.790 130.072,237.029 130.194,237.125 130.166 C 237.221 130.138,237.482 130.216,237.704 130.340 C 237.926 130.463,238.466 130.624,238.904 130.696 C 239.638 130.817,240.701 131.173,241.709 131.636 C 241.933 131.739,242.262 131.844,242.438 131.870 C 242.615 131.896,242.881 132.013,243.030 132.130 C 244.168 133.023,246.800 131.778,246.800 130.346 C 246.800 130.172,247.006 129.776,247.258 129.465 C 247.681 128.943,249.315 126.205,249.940 124.971 C 250.088 124.680,250.341 124.332,250.504 124.197 C 250.667 124.062,250.800 123.803,250.800 123.622 C 250.800 123.441,251.012 122.979,251.272 122.596 C 252.109 121.361,252.103 121.122,251.216 120.216 C 250.776 119.767,250.361 119.400,250.294 119.400 C 250.226 119.400,250.059 119.288,249.921 119.150 C 249.783 119.013,249.331 118.630,248.915 118.300 C 248.499 117.970,247.899 117.453,247.581 117.150 C 247.264 116.847,246.853 116.600,246.668 116.600 C 246.484 116.600,246.388 116.545,246.455 116.478 C 246.647 116.286,243.877 113.602,243.468 113.584 C 243.266 113.576,243.207 113.525,243.338 113.472 C 243.568 113.378,242.974 112.600,242.672 112.600 C 242.602 112.600,242.415 112.442,242.257 112.250 C 242.099 112.058,242.033 112.021,242.109 112.170 C 242.220 112.384,242.166 112.396,241.847 112.225 C 241.627 112.107,241.390 111.786,241.321 111.512 C 241.237 111.177,241.098 111.052,240.898 111.128 C 240.734 111.191,240.600 111.147,240.600 111.030 C 240.600 110.884,238.193 110.814,232.900 110.805 C 226.010 110.793,225.200 110.825,225.200 111.108 C 225.200 111.281,225.123 111.376,225.028 111.317 C 224.933 111.259,224.695 111.568,224.498 112.005 C 224.300 112.442,224.052 112.800,223.946 112.800 C 223.840 112.800,223.801 112.981,223.859 113.203 C 223.928 113.469,223.835 113.674,223.582 113.810 C 223.372 113.922,223.200 114.196,223.200 114.419 C 223.200 114.641,223.110 114.768,223.000 114.700 C 222.890 114.632,222.800 114.662,222.800 114.767 C 222.800 114.872,222.577 115.170,222.303 115.429 C 222.030 115.688,221.805 116.043,221.803 116.217 C 221.802 116.391,221.470 116.863,221.067 117.267 C 220.663 117.670,220.396 118.000,220.472 118.000 C 220.596 118.000,220.298 118.361,218.850 119.961 C 218.603 120.235,218.400 120.525,218.400 120.606 C 218.400 120.861,213.187 125.869,212.845 125.942 C 212.738 125.965,212.282 126.325,211.831 126.742 C 210.718 127.773,210.439 128.000,210.286 128.000 C 210.175 128.000,208.801 128.971,207.309 130.103 C 207.094 130.267,206.824 130.400,206.709 130.400 C 206.594 130.400,206.236 130.628,205.912 130.906 C 205.589 131.184,205.117 131.464,204.862 131.527 C 204.608 131.591,204.400 131.729,204.400 131.833 C 204.400 131.938,204.309 131.968,204.199 131.899 C 204.088 131.831,203.750 131.941,203.449 132.145 C 203.147 132.348,202.675 132.619,202.400 132.747 C 199.885 133.914,199.071 134.282,198.900 134.327 C 198.790 134.356,197.935 134.650,197.000 134.979 C 188.818 137.860,178.909 138.703,171.200 137.173 C 170.045 136.943,168.920 136.732,168.700 136.703 C 168.480 136.675,168.300 136.633,168.300 136.611 C 168.300 136.588,168.075 136.533,167.800 136.486 C 167.387 136.417,166.680 136.247,166.200 136.102 C 165.011 135.743,164.250 135.544,164.050 135.539 C 163.913 135.536,163.800 135.462,163.800 135.374 C 163.800 135.287,163.418 135.119,162.950 135.000 C 160.626 134.412,155.108 131.722,152.010 129.667 C 149.226 127.821,149.147 127.765,148.601 127.250 C 148.339 127.003,148.066 126.800,147.994 126.800 C 147.923 126.800,147.469 126.463,146.985 126.050 C 145.895 125.120,140.755 120.000,140.911 120.000 C 140.974 120.000,140.547 119.435,139.963 118.745 C 139.378 118.054,138.500 116.884,138.012 116.145 C 137.524 115.405,137.046 114.800,136.950 114.800 C 136.855 114.800,136.826 114.720,136.886 114.623 C 136.946 114.525,136.862 114.334,136.698 114.198 C 136.534 114.062,136.400 113.822,136.400 113.664 C 136.400 113.495,136.303 113.436,136.166 113.521 C 136.011 113.617,135.973 113.559,136.054 113.348 C 136.131 113.147,135.928 112.767,135.501 112.315 C 135.130 111.922,134.911 111.600,135.013 111.600 C 135.116 111.600,135.200 111.510,135.200 111.400 C 135.200 111.290,135.065 111.200,134.900 111.200 C 134.735 111.200,134.600 111.108,134.600 110.996 C 134.600 110.625,119.062 110.749,118.919 111.121 M146.976 110.981 C 147.127 111.077,147.196 111.244,147.129 111.352 C 146.990 111.578,147.868 112.600,148.202 112.600 C 148.324 112.600,148.368 112.691,148.299 112.802 C 148.158 113.030,148.689 113.645,148.871 113.463 C 148.936 113.398,149.079 113.581,149.188 113.869 C 149.359 114.318,152.862 118.000,153.118 118.000 C 153.167 118.000,153.513 118.315,153.887 118.700 C 154.261 119.085,154.664 119.400,154.783 119.400 C 154.902 119.400,155.000 119.490,155.000 119.600 C 155.000 119.710,155.135 119.800,155.300 119.800 C 155.465 119.800,155.600 119.877,155.600 119.970 C 155.600 120.126,157.568 121.446,157.800 121.446 C 157.855 121.446,158.225 121.703,158.623 122.018 C 159.575 122.772,164.669 125.400,165.178 125.400 C 165.397 125.400,165.624 125.478,165.683 125.573 C 165.768 125.710,167.108 126.173,167.850 126.320 C 167.933 126.337,168.067 126.375,168.150 126.405 C 168.233 126.436,168.390 126.475,168.500 126.493 C 168.610 126.510,169.195 126.668,169.800 126.844 C 173.966 128.053,181.299 128.509,185.200 127.801 C 185.805 127.691,186.719 127.553,187.232 127.494 C 187.744 127.435,188.644 127.253,189.232 127.089 C 189.819 126.925,190.435 126.754,190.600 126.710 C 190.765 126.667,190.900 126.616,190.900 126.599 C 190.900 126.581,191.080 126.544,191.300 126.517 C 191.775 126.457,195.273 125.272,195.760 125.005 C 195.947 124.902,197.061 124.368,198.235 123.817 C 199.409 123.267,200.556 122.615,200.785 122.370 C 201.013 122.125,201.200 121.993,201.200 122.076 C 201.200 122.220,202.389 121.465,202.600 121.188 C 202.655 121.115,202.993 120.906,203.350 120.723 C 203.708 120.540,204.000 120.297,204.000 120.183 C 204.000 120.069,204.071 120.020,204.158 120.074 C 204.245 120.128,204.678 119.840,205.120 119.436 C 205.563 119.031,206.357 118.340,206.885 117.900 C 208.451 116.595,210.543 114.296,210.452 113.980 C 210.426 113.889,210.553 113.871,210.735 113.941 C 210.957 114.026,211.018 113.991,210.921 113.834 C 210.839 113.701,210.890 113.599,211.038 113.597 C 211.228 113.595,211.218 113.541,211.000 113.400 C 210.757 113.243,210.784 113.206,211.145 113.203 C 211.410 113.201,211.733 112.977,211.943 112.650 C 212.136 112.347,212.431 111.980,212.597 111.834 C 212.861 111.602,212.848 111.582,212.500 111.684 C 212.106 111.799,212.106 111.797,212.488 111.500 C 212.702 111.335,212.955 111.200,213.050 111.200 C 213.145 111.200,213.168 111.110,213.100 111.000 C 213.018 110.868,201.718 110.801,179.838 110.803 C 160.885 110.805,146.818 110.881,146.976 110.981 M271.468 125.299 C 271.294 125.426,271.066 126.018,270.961 126.615 C 270.673 128.256,270.673 128.259,269.904 131.900 C 269.510 133.770,269.104 135.615,269.002 136.000 C 268.792 136.798,268.387 138.835,267.888 141.600 C 267.498 143.756,267.382 143.905,265.942 144.089 C 263.624 144.384,254.302 146.945,253.153 147.601 C 252.510 147.969,251.881 147.817,251.284 147.150 C 250.964 146.792,249.990 145.690,249.120 144.700 C 248.250 143.710,247.480 142.855,247.409 142.800 C 247.337 142.745,247.038 142.379,246.743 141.986 C 246.448 141.593,245.982 141.151,245.707 141.004 C 245.432 140.856,245.153 140.567,245.087 140.360 C 244.952 139.934,243.673 138.471,241.888 136.702 C 241.222 136.041,240.382 135.118,240.021 134.650 C 239.227 133.619,239.177 133.616,237.688 134.528 C 234.787 136.305,234.231 136.631,233.100 137.212 C 232.440 137.551,231.450 138.095,230.900 138.420 C 230.350 138.745,229.682 139.102,229.416 139.214 C 229.150 139.325,228.816 139.570,228.673 139.758 C 228.530 139.946,228.410 140.028,228.406 139.940 C 228.403 139.853,228.018 140.035,227.550 140.347 C 227.082 140.658,226.459 141.034,226.165 141.182 C 225.237 141.650,225.268 142.116,226.401 144.700 C 226.498 144.920,226.638 145.415,226.713 145.800 C 226.788 146.185,227.018 146.834,227.224 147.242 C 227.431 147.650,227.600 148.219,227.600 148.505 C 227.600 149.448,227.995 149.800,230.279 150.894 C 236.537 153.891,242.903 160.038,245.752 165.834 C 247.069 168.513,246.947 168.442,248.510 167.428 C 249.165 167.004,249.925 166.587,250.200 166.501 C 250.475 166.416,250.745 166.285,250.800 166.209 C 250.990 165.950,255.473 163.800,255.824 163.800 C 256.018 163.800,256.225 163.722,256.284 163.626 C 256.343 163.530,256.956 163.246,257.646 162.993 C 258.336 162.741,258.993 162.465,259.106 162.379 C 259.220 162.294,259.556 162.180,259.853 162.126 C 260.150 162.072,260.485 161.971,260.597 161.902 C 260.727 161.821,260.800 159.547,260.800 155.531 L 260.800 149.286 261.856 148.243 L 262.913 147.200 283.706 147.182 C 297.154 147.170,304.253 147.097,303.800 146.975 C 303.415 146.871,302.920 146.704,302.700 146.603 C 301.762 146.175,298.349 145.234,296.200 144.811 C 295.595 144.692,294.875 144.547,294.600 144.487 C 293.421 144.233,293.057 144.161,292.305 144.029 C 291.566 143.900,291.495 143.828,291.284 142.995 C 290.892 141.449,290.210 138.392,289.701 135.900 C 289.431 134.580,289.074 132.889,288.907 132.143 C 288.740 131.397,288.555 130.497,288.496 130.143 C 288.209 128.417,287.336 125.218,287.131 125.140 C 286.568 124.924,271.775 125.074,271.468 125.299 M90.808 131.690 C 90.558 131.991,90.306 132.977,89.629 136.300 C 89.171 138.543,89.205 138.380,88.493 141.800 C 87.873 144.782,88.168 144.456,85.600 144.994 C 83.654 145.401,82.047 145.821,79.800 146.508 C 79.305 146.659,78.510 146.898,78.033 147.037 L 77.167 147.292 76.463 146.496 C 76.077 146.058,75.432 145.333,75.030 144.885 C 74.629 144.436,73.000 142.614,71.412 140.835 C 68.218 137.258,68.322 137.316,66.828 138.300 C 66.243 138.685,65.683 139.000,65.583 139.000 C 65.482 139.000,65.400 139.090,65.400 139.200 C 65.400 139.310,65.298 139.400,65.174 139.400 C 64.778 139.400,59.032 142.829,58.914 143.135 C 58.852 143.297,58.890 143.595,58.999 143.798 C 59.108 144.001,59.327 144.647,59.487 145.234 C 59.646 145.820,59.951 146.795,60.164 147.400 C 60.377 148.005,61.079 150.104,61.725 152.064 L 62.900 155.627 62.100 156.341 C 60.034 158.185,58.370 159.810,56.943 161.380 C 55.078 163.430,54.960 163.507,54.249 163.130 C 53.947 162.970,52.215 162.376,50.400 161.809 C 48.585 161.242,46.695 160.641,46.200 160.473 C 45.705 160.304,44.940 160.054,44.500 159.917 C 44.060 159.780,43.548 159.600,43.362 159.517 C 42.579 159.168,42.284 159.532,39.652 164.102 C 36.816 169.024,36.809 169.043,37.372 169.439 C 37.820 169.754,40.383 172.036,42.189 173.728 C 42.910 174.403,43.860 175.259,44.300 175.630 C 44.740 176.000,45.491 176.669,45.968 177.115 L 46.836 177.927 46.503 178.713 C 45.718 180.568,44.381 185.439,44.106 187.445 C 43.952 188.576,44.549 188.366,37.400 189.794 C 31.658 190.940,31.084 191.094,30.918 191.526 C 30.670 192.172,30.790 201.710,31.050 202.040 C 31.329 202.393,32.163 202.679,33.800 202.984 C 34.405 203.096,35.980 203.417,37.300 203.696 C 38.620 203.976,40.587 204.384,41.671 204.603 C 44.042 205.084,43.924 205.018,44.084 205.948 C 44.155 206.362,44.263 206.947,44.323 207.250 L 44.432 207.800 50.116 207.800 C 54.926 207.800,55.800 207.756,55.800 207.512 C 55.800 207.354,55.669 206.657,55.509 205.962 C 51.996 190.713,57.876 173.733,69.950 164.261 L 71.600 162.967 71.600 156.327 L 71.600 149.686 72.656 148.643 L 73.713 147.600 81.413 147.600 L 89.114 147.600 90.157 148.656 L 91.200 149.713 91.200 152.511 L 91.200 155.310 93.150 155.149 C 101.250 154.480,112.233 157.126,118.271 161.201 L 119.191 161.822 124.945 156.744 C 131.772 150.719,131.045 151.531,131.700 149.200 C 131.994 148.155,132.310 147.208,132.404 147.096 C 132.553 146.915,133.268 144.636,133.538 143.477 C 133.661 142.947,133.593 142.899,128.467 139.934 C 123.928 137.307,124.043 137.343,123.309 138.306 C 123.013 138.694,122.611 139.167,122.416 139.356 C 122.221 139.545,121.139 140.735,120.012 142.000 C 118.885 143.265,117.378 144.953,116.663 145.750 C 115.167 147.419,115.342 147.377,113.053 146.620 C 111.480 146.100,107.908 145.164,106.600 144.930 C 104.710 144.592,104.595 144.548,104.515 144.127 C 104.441 143.738,103.789 140.797,102.801 136.400 C 102.591 135.465,102.311 134.123,102.177 133.418 C 101.793 131.380,102.058 131.467,96.155 131.432 C 91.930 131.407,91.006 131.452,90.808 131.690 M317.754 135.650 C 316.798 136.667,315.810 137.768,315.558 138.096 C 315.306 138.423,314.868 138.918,314.584 139.196 C 314.049 139.718,312.896 141.003,311.000 143.190 C 310.395 143.888,309.385 145.009,308.756 145.680 C 308.127 146.351,307.610 146.968,307.606 147.050 C 307.603 147.133,311.901 147.200,317.157 147.200 L 326.714 147.200 327.757 148.256 L 328.800 149.313 328.800 151.335 L 328.800 153.358 324.383 162.929 C 321.954 168.193,319.835 172.823,319.675 173.217 L 319.383 173.935 322.048 176.617 C 328.717 183.331,334.124 192.001,336.382 199.600 C 336.627 200.425,336.998 201.595,337.207 202.200 C 337.416 202.805,337.777 204.155,338.009 205.200 C 338.241 206.245,338.475 207.257,338.529 207.450 C 338.620 207.776,339.188 207.800,346.837 207.800 L 355.047 207.800 354.923 207.350 C 354.855 207.103,354.614 206.000,354.388 204.900 C 353.556 200.858,352.352 196.469,351.163 193.150 C 350.712 191.890,350.754 191.742,351.799 190.901 C 352.399 190.419,355.687 187.504,356.424 186.800 C 356.713 186.525,357.388 185.926,357.924 185.470 C 358.461 185.013,359.322 184.248,359.837 183.770 C 360.353 183.291,361.385 182.360,362.132 181.700 C 365.202 178.986,365.133 179.130,364.129 177.554 C 363.759 176.974,363.115 175.870,362.698 175.100 C 362.280 174.330,361.067 172.215,360.001 170.400 C 358.936 168.585,357.848 166.708,357.584 166.229 C 356.967 165.113,356.879 165.123,351.298 166.964 C 337.115 171.643,338.703 171.294,337.692 169.950 C 336.687 168.613,330.004 161.915,328.758 160.995 C 327.531 160.089,327.431 159.237,328.348 157.495 C 328.462 157.278,328.756 156.425,329.000 155.600 C 329.727 153.144,329.874 152.709,330.041 152.510 C 330.128 152.405,330.200 152.131,330.200 151.900 C 330.200 151.669,330.276 151.395,330.369 151.290 C 330.461 151.186,330.697 150.560,330.892 149.900 C 331.087 149.240,331.470 148.025,331.744 147.200 C 332.017 146.375,332.263 145.610,332.290 145.500 C 332.317 145.390,332.392 145.165,332.455 145.000 C 333.629 141.958,333.580 141.512,331.981 140.709 C 331.463 140.449,330.185 139.733,329.140 139.118 C 328.095 138.503,327.148 138.000,327.036 138.000 C 326.925 138.000,326.803 137.927,326.767 137.838 C 326.678 137.623,321.716 134.800,321.426 134.800 C 321.302 134.800,321.200 134.727,321.200 134.637 C 321.200 134.479,319.935 133.800,319.640 133.800 C 319.559 133.800,318.710 134.633,317.754 135.650 M44.729 210.350 C 44.823 210.543,44.925 213.963,44.955 217.950 L 45.010 225.200 48.988 225.200 C 51.984 225.200,52.992 225.138,53.068 224.950 C 53.137 224.779,53.173 224.795,53.184 225.000 C 53.198 225.261,53.810 225.287,57.850 225.200 C 63.075 225.088,62.801 225.207,61.718 223.514 C 61.350 222.939,60.987 222.273,60.911 222.034 C 60.835 221.795,60.689 221.600,60.587 221.600 C 60.484 221.600,60.423 221.518,60.450 221.418 C 60.478 221.317,60.386 221.070,60.248 220.868 C 59.774 220.177,58.200 217.332,58.200 217.166 C 58.200 217.075,58.120 217.000,58.023 217.000 C 57.926 217.000,57.796 216.843,57.734 216.650 C 57.672 216.457,57.350 215.850,57.017 215.300 C 56.685 214.750,56.246 213.985,56.041 213.600 C 55.542 212.664,54.849 211.445,54.364 210.650 L 53.967 210.000 49.262 210.000 C 44.849 210.000,44.568 210.022,44.729 210.350 M345.636 210.650 C 345.151 211.445,344.458 212.664,343.959 213.600 C 343.754 213.985,343.315 214.750,342.983 215.300 C 342.650 215.850,342.328 216.457,342.266 216.650 C 342.204 216.843,342.074 217.000,341.977 217.000 C 341.880 217.000,341.800 217.099,341.800 217.219 C 341.800 217.340,341.634 217.677,341.432 217.969 C 341.229 218.261,340.801 218.995,340.482 219.600 C 340.162 220.205,339.787 220.820,339.648 220.966 C 339.510 221.112,339.447 221.315,339.510 221.416 C 339.572 221.517,339.551 221.601,339.462 221.602 C 339.373 221.604,339.121 221.986,338.903 222.452 C 338.685 222.919,338.455 223.345,338.392 223.400 C 338.216 223.555,337.400 224.932,337.400 225.074 C 337.400 225.143,341.315 225.200,346.100 225.200 L 354.800 225.200 354.807 218.250 C 354.813 212.602,354.868 211.206,355.100 210.800 C 355.257 210.525,355.389 210.232,355.393 210.150 C 355.397 210.068,353.292 210.000,350.716 210.000 L 346.033 210.000 345.636 210.650 " stroke="none" fill="#0c4c04" fill-rule="evenodd"></path></g></svg>