<svg id="svg" version="1.1" xmlns="http://www.w3.org/2000/svg" xmlns:xlink="http://www.w3.org/1999/xlink" width="400" height="400" viewBox="0, 0, 400,400"><g id="svgg"><path id="path0" d="M115.400 60.382 C 115.954 60.835,116.200 60.902,116.200 60.600 C 116.200 60.490,116.133 60.419,116.050 60.442 C 115.968 60.466,115.675 60.370,115.400 60.229 L 114.900 59.973 115.400 60.382 M148.119 61.650 L 147.751 62.300 148.276 61.759 C 148.817 61.200,148.914 61.000,148.643 61.000 C 148.557 61.000,148.321 61.292,148.119 61.650 M242.489 61.417 C 242.415 61.537,242.445 61.725,242.555 61.835 C 242.688 61.968,242.800 61.962,242.889 61.817 C 242.963 61.698,242.923 61.600,242.800 61.600 C 242.677 61.600,242.632 61.510,242.700 61.400 C 242.768 61.290,242.779 61.200,242.724 61.200 C 242.669 61.200,242.563 61.298,242.489 61.417 M116.900 61.600 C 116.968 61.710,117.159 61.800,117.324 61.800 C 117.489 61.800,117.568 61.710,117.500 61.600 C 117.432 61.490,117.241 61.400,117.076 61.400 C 116.911 61.400,116.832 61.490,116.900 61.600 M224.510 62.184 C 224.447 62.285,224.528 62.499,224.689 62.660 C 224.849 62.821,224.938 62.995,224.886 63.048 C 224.833 63.100,224.922 63.252,225.083 63.386 C 225.244 63.520,225.327 63.758,225.267 63.915 C 225.206 64.072,225.257 64.200,225.379 64.200 C 225.500 64.200,225.600 64.385,225.600 64.612 C 225.600 64.853,225.689 64.969,225.813 64.892 C 225.931 64.819,226.003 64.881,225.974 65.030 C 225.946 65.178,226.109 65.705,226.337 66.200 C 226.566 66.695,226.814 67.302,226.890 67.550 C 226.965 67.797,227.116 68.000,227.225 68.000 C 227.334 68.000,227.366 68.094,227.295 68.209 C 227.224 68.324,227.310 68.639,227.487 68.909 C 227.664 69.179,227.767 69.400,227.715 69.400 C 227.664 69.400,227.803 69.918,228.025 70.550 C 228.431 71.710,229.149 74.138,229.576 75.800 C 229.820 76.749,230.170 78.823,230.284 80.000 C 230.321 80.385,230.371 80.700,230.394 80.700 C 230.417 80.700,230.465 81.015,230.499 81.400 C 230.534 81.785,230.616 82.595,230.683 83.200 C 230.749 83.805,230.804 85.695,230.806 87.400 C 230.809 90.305,230.738 91.500,230.463 93.200 C 230.401 93.585,230.331 94.132,230.308 94.415 C 230.285 94.699,230.222 95.014,230.168 95.115 C 230.114 95.217,230.051 95.615,230.028 96.000 C 230.006 96.385,229.895 97.042,229.783 97.460 C 229.671 97.878,229.539 98.537,229.489 98.924 C 229.439 99.312,229.308 99.798,229.197 100.006 C 229.086 100.214,229.010 100.455,229.029 100.542 C 229.048 100.629,229.011 100.835,228.948 101.000 C 228.622 101.846,227.717 104.920,227.755 105.050 C 227.780 105.133,227.727 105.200,227.638 105.200 C 227.549 105.200,227.360 105.650,227.219 106.200 C 227.067 106.796,226.879 107.149,226.755 107.072 C 226.621 106.989,226.579 107.164,226.637 107.559 C 226.691 107.931,226.643 108.161,226.514 108.138 C 226.396 108.117,226.323 108.213,226.350 108.350 C 226.378 108.488,226.313 108.600,226.208 108.600 C 226.102 108.600,225.913 108.983,225.788 109.450 C 225.663 109.918,225.469 110.413,225.356 110.550 C 225.189 110.753,239.279 111.009,240.450 110.824 C 240.532 110.811,240.600 110.890,240.600 111.000 C 240.600 111.110,240.713 111.197,240.850 111.194 C 240.988 111.190,240.875 110.982,240.600 110.731 C 240.079 110.256,239.872 109.800,240.177 109.800 C 240.437 109.800,240.573 108.603,240.315 108.587 C 240.197 108.580,240.296 108.496,240.534 108.400 C 240.846 108.274,240.939 108.108,240.861 107.812 C 240.800 107.578,240.850 107.400,240.977 107.400 C 241.100 107.400,241.200 107.180,241.200 106.912 C 241.200 106.643,241.291 106.367,241.403 106.298 C 241.515 106.229,241.552 106.085,241.486 105.977 C 241.420 105.870,241.451 105.674,241.555 105.541 C 241.748 105.296,242.046 104.353,242.107 103.792 C 242.126 103.622,242.236 103.307,242.351 103.092 C 242.466 102.876,242.609 102.430,242.669 102.100 C 242.947 100.558,243.229 99.073,243.296 98.800 C 243.336 98.635,243.376 98.360,243.385 98.188 C 243.417 97.533,243.909 97.170,244.868 97.097 C 245.391 97.057,246.107 96.935,246.459 96.825 C 246.812 96.715,247.548 96.569,248.095 96.501 C 248.643 96.432,249.138 96.303,249.195 96.214 C 249.253 96.125,249.615 96.005,250.000 95.949 C 250.385 95.893,251.375 95.708,252.200 95.538 C 253.025 95.369,254.103 95.171,254.596 95.099 C 255.088 95.026,255.579 94.913,255.687 94.846 C 255.794 94.780,256.156 94.700,256.491 94.669 C 258.030 94.525,259.378 93.961,259.470 93.421 C 259.544 92.987,259.503 81.618,259.425 80.857 C 259.392 80.541,258.825 80.244,257.978 80.101 C 257.605 80.037,257.165 79.949,257.000 79.904 C 256.835 79.860,256.352 79.772,255.927 79.709 C 255.501 79.646,255.090 79.556,255.013 79.508 C 254.871 79.420,254.412 79.313,253.300 79.107 C 252.970 79.046,252.475 78.941,252.200 78.874 C 251.925 78.806,251.441 78.718,251.125 78.677 C 250.809 78.636,250.224 78.516,249.825 78.410 C 249.426 78.304,248.830 78.170,248.500 78.111 C 247.487 77.931,247.132 77.851,246.199 77.595 C 245.705 77.460,245.165 77.329,245.000 77.305 C 243.542 77.094,243.497 77.049,243.237 75.533 C 242.925 73.714,242.907 73.640,242.739 73.472 C 242.663 73.396,242.600 73.122,242.600 72.863 C 242.600 72.604,242.418 71.713,242.195 70.881 C 241.972 70.050,241.770 69.264,241.745 69.135 C 241.720 69.006,241.638 68.853,241.562 68.796 C 241.486 68.738,241.375 68.468,241.315 68.196 C 240.971 66.629,240.714 65.800,240.573 65.800 C 240.485 65.800,240.465 65.664,240.529 65.498 C 240.612 65.281,240.553 65.231,240.322 65.319 C 240.105 65.402,240.000 65.334,240.000 65.110 C 240.000 64.926,240.084 64.828,240.187 64.892 C 240.302 64.963,240.307 64.774,240.201 64.404 C 240.066 63.933,240.091 63.800,240.314 63.800 C 240.471 63.800,240.600 63.731,240.600 63.647 C 240.600 63.564,240.797 63.406,241.037 63.297 C 241.277 63.189,241.514 62.965,241.562 62.800 C 241.633 62.558,241.599 62.548,241.385 62.750 C 240.897 63.211,225.353 63.101,224.931 62.634 C 224.748 62.432,224.659 62.207,224.733 62.134 C 224.806 62.060,224.812 62.000,224.745 62.000 C 224.678 62.000,224.572 62.083,224.510 62.184 M135.131 62.691 C 135.027 62.963,134.028 63.000,126.906 63.000 C 121.113 63.000,118.800 63.063,118.800 63.221 C 118.800 63.343,118.930 63.393,119.090 63.332 C 119.284 63.257,119.343 63.316,119.268 63.510 C 119.202 63.683,119.277 63.800,119.454 63.800 C 119.807 63.800,119.777 65.041,119.421 65.160 C 119.299 65.200,119.200 65.446,119.200 65.705 C 119.200 65.964,119.120 66.226,119.023 66.286 C 118.842 66.398,118.499 67.760,118.573 68.071 C 118.596 68.165,118.530 68.345,118.427 68.471 C 118.268 68.665,118.132 69.067,117.677 70.700 C 117.646 70.810,117.567 71.161,117.501 71.481 C 117.435 71.800,117.292 72.228,117.183 72.431 C 117.075 72.634,117.025 72.800,117.072 72.800 C 117.119 72.800,117.069 73.183,116.961 73.650 C 116.743 74.596,116.679 74.939,116.507 76.092 C 116.372 76.995,116.153 77.193,115.283 77.197 C 114.944 77.199,114.604 77.262,114.528 77.338 C 114.452 77.415,114.190 77.503,113.945 77.536 C 113.700 77.568,113.140 77.680,112.700 77.783 C 112.260 77.887,111.495 78.060,111.000 78.166 C 108.489 78.709,108.062 78.800,107.600 78.886 C 107.325 78.937,106.920 79.022,106.700 79.073 C 106.227 79.184,102.434 80.019,102.000 80.108 C 101.835 80.142,101.543 80.176,101.350 80.185 C 100.331 80.229,100.299 80.447,100.318 87.052 C 100.336 93.669,100.408 94.175,101.334 94.225 C 101.966 94.259,102.061 94.281,102.350 94.465 C 102.488 94.552,102.694 94.566,102.809 94.495 C 102.924 94.424,103.126 94.445,103.259 94.543 C 103.391 94.641,103.815 94.748,104.200 94.780 C 104.585 94.813,105.059 94.925,105.254 95.029 C 105.449 95.133,105.690 95.168,105.790 95.106 C 105.890 95.044,106.034 95.094,106.110 95.217 C 106.190 95.345,106.493 95.391,106.824 95.325 C 107.141 95.262,107.400 95.288,107.400 95.383 C 107.400 95.478,107.692 95.605,108.050 95.664 C 108.408 95.723,109.105 95.874,109.600 96.000 C 110.095 96.125,110.792 96.244,111.150 96.264 C 111.507 96.284,111.800 96.353,111.800 96.417 C 111.800 96.481,111.913 96.541,112.050 96.551 C 112.443 96.580,113.451 96.768,114.000 96.915 C 114.275 96.988,114.860 97.093,115.300 97.148 C 116.346 97.279,116.419 97.427,116.907 100.400 C 117.004 100.994,117.266 102.156,117.470 102.900 C 117.740 103.885,118.242 105.558,118.340 105.800 C 118.407 105.965,118.442 106.258,118.418 106.450 C 118.394 106.642,118.451 106.800,118.544 106.800 C 118.637 106.800,118.733 107.041,118.757 107.335 C 118.781 107.629,118.936 108.019,119.101 108.201 C 119.266 108.383,119.343 108.590,119.272 108.661 C 119.201 108.732,119.262 108.933,119.407 109.108 C 119.697 109.457,119.806 110.400,119.557 110.400 C 119.470 110.400,119.400 110.513,119.400 110.650 C 119.400 110.847,121.042 110.888,127.092 110.845 C 133.765 110.798,134.769 110.752,134.671 110.497 C 134.609 110.335,134.462 110.262,134.345 110.334 C 134.211 110.417,134.180 110.342,134.260 110.133 C 134.330 109.950,134.291 109.800,134.172 109.800 C 134.054 109.800,134.006 109.672,134.067 109.515 C 134.127 109.358,134.047 109.122,133.888 108.990 C 133.730 108.859,133.600 108.627,133.600 108.476 C 133.600 108.324,133.465 108.200,133.300 108.200 C 133.135 108.200,133.000 108.110,133.000 108.000 C 133.000 107.890,133.085 107.800,133.189 107.800 C 133.293 107.800,133.191 107.350,132.962 106.800 C 132.734 106.250,132.465 105.800,132.365 105.800 C 132.264 105.800,132.201 105.688,132.223 105.550 C 132.245 105.413,132.209 105.165,132.143 105.000 C 131.738 103.986,131.411 102.744,131.509 102.585 C 131.572 102.483,131.523 102.400,131.400 102.400 C 131.277 102.400,131.232 102.310,131.300 102.200 C 131.368 102.090,131.324 102.000,131.203 102.000 C 131.082 102.000,131.002 101.888,131.026 101.750 C 131.050 101.613,130.967 101.140,130.841 100.700 C 130.715 100.260,130.584 99.720,130.550 99.500 C 130.516 99.280,130.436 99.010,130.372 98.900 C 130.307 98.790,130.272 98.498,130.294 98.250 C 130.316 98.002,130.264 97.800,130.179 97.800 C 130.094 97.800,130.015 97.642,130.003 97.450 C 129.957 96.706,129.845 95.695,129.798 95.600 C 129.771 95.545,129.720 95.320,129.685 95.100 C 129.649 94.880,129.573 94.430,129.516 94.100 C 128.996 91.121,129.031 81.985,129.569 80.100 C 129.664 79.770,129.717 79.343,129.688 79.150 C 129.659 78.958,129.705 78.800,129.790 78.800 C 129.876 78.800,129.932 78.598,129.915 78.350 C 129.898 78.103,129.963 77.540,130.060 77.100 C 130.156 76.660,130.270 76.120,130.313 75.900 C 130.603 74.401,130.871 73.243,131.006 72.900 C 131.396 71.911,131.459 71.680,131.423 71.381 C 131.402 71.205,131.523 70.947,131.690 70.808 C 131.858 70.669,131.948 70.477,131.889 70.383 C 131.831 70.289,131.920 70.003,132.086 69.749 C 132.253 69.495,132.419 69.110,132.454 68.893 C 132.490 68.677,132.631 68.297,132.767 68.050 C 132.903 67.802,132.964 67.600,132.902 67.600 C 132.840 67.600,132.946 67.308,133.136 66.950 C 133.327 66.593,133.490 66.255,133.499 66.200 C 133.507 66.145,133.623 65.905,133.755 65.666 C 133.945 65.325,133.944 65.211,133.748 65.132 C 133.602 65.073,133.644 65.025,133.850 65.016 C 134.042 65.007,134.200 64.901,134.200 64.781 C 134.200 64.660,134.398 64.284,134.639 63.945 C 134.890 63.593,134.954 63.400,134.789 63.496 C 134.630 63.589,134.718 63.425,134.984 63.133 C 135.250 62.841,135.419 62.552,135.359 62.492 C 135.299 62.432,135.196 62.522,135.131 62.691 M147.131 62.766 C 146.949 62.967,146.800 63.316,146.800 63.541 C 146.800 63.767,146.665 64.063,146.500 64.200 C 146.319 64.350,146.200 64.367,146.200 64.241 C 146.200 64.127,146.292 63.988,146.405 63.932 C 146.518 63.876,146.495 63.853,146.355 63.881 C 146.215 63.909,146.071 64.127,146.036 64.366 C 146.001 64.605,145.866 64.801,145.736 64.803 C 145.597 64.805,145.623 64.886,145.800 65.000 C 146.055 65.165,146.047 65.194,145.744 65.197 C 145.548 65.199,145.329 65.358,145.258 65.550 C 145.187 65.742,145.076 65.945,145.010 66.000 C 144.759 66.210,144.113 67.307,144.156 67.450 C 144.180 67.533,144.113 67.600,144.006 67.600 C 143.900 67.600,143.869 67.758,143.938 67.950 C 144.007 68.142,143.993 68.236,143.906 68.158 C 143.754 68.020,143.040 69.193,142.908 69.800 C 142.872 69.965,142.608 70.541,142.321 71.080 C 142.034 71.619,141.800 72.167,141.800 72.299 C 141.800 72.431,141.647 72.845,141.460 73.219 C 141.273 73.594,141.105 74.035,141.087 74.200 C 141.029 74.743,140.903 75.098,140.722 75.229 C 140.625 75.300,140.535 75.637,140.522 75.978 C 140.510 76.320,140.444 76.599,140.376 76.600 C 140.308 76.600,140.196 76.938,140.127 77.350 C 140.058 77.763,139.909 78.550,139.796 79.100 C 139.408 80.990,139.332 81.527,139.079 84.200 C 138.915 85.924,138.916 89.896,139.081 90.900 C 139.153 91.340,139.247 92.060,139.289 92.500 C 139.362 93.263,139.413 93.603,139.697 95.200 C 139.765 95.585,139.968 96.395,140.148 97.000 C 140.328 97.605,140.503 98.213,140.537 98.350 C 140.572 98.488,140.631 98.713,140.669 98.850 C 140.707 98.988,140.809 99.370,140.896 99.700 C 140.984 100.030,141.120 100.390,141.200 100.500 C 141.280 100.610,141.409 100.970,141.488 101.300 C 141.566 101.630,141.751 102.170,141.898 102.500 C 142.959 104.887,143.512 105.954,143.645 105.872 C 143.730 105.819,143.800 105.968,143.800 106.202 C 143.800 106.435,144.015 106.913,144.277 107.263 C 144.539 107.614,144.819 108.114,144.899 108.376 C 144.996 108.698,145.093 108.774,145.194 108.610 C 145.296 108.444,145.381 108.506,145.459 108.803 C 145.534 109.093,145.662 109.190,145.837 109.091 C 146.045 108.973,146.049 108.996,145.858 109.203 C 145.548 109.537,146.151 110.662,146.556 110.506 C 146.702 110.450,146.771 110.485,146.710 110.584 C 146.559 110.828,146.795 111.400,147.046 111.400 C 147.163 111.400,147.143 111.272,146.999 111.099 C 146.777 110.831,150.412 110.798,180.025 110.798 C 213.133 110.799,213.300 110.797,213.284 110.400 C 213.276 110.181,213.302 110.036,213.344 110.077 C 213.543 110.276,214.358 109.290,214.176 109.070 C 214.046 108.915,214.061 108.786,214.221 108.687 C 214.374 108.593,214.410 108.623,214.319 108.769 C 214.241 108.896,214.272 109.000,214.388 109.000 C 214.505 109.000,214.600 108.888,214.600 108.750 C 214.601 108.613,214.851 108.208,215.156 107.850 C 215.941 106.932,218.813 100.442,219.116 98.900 C 219.159 98.680,219.286 98.275,219.397 98.000 C 219.509 97.725,219.682 97.095,219.783 96.600 C 219.884 96.105,220.009 95.520,220.060 95.300 C 220.111 95.080,220.216 94.495,220.292 94.000 C 220.369 93.505,220.476 92.830,220.530 92.500 C 220.985 89.728,220.973 84.050,220.509 81.808 C 220.453 81.537,220.357 80.952,220.297 80.508 C 220.206 79.835,220.114 79.348,219.900 78.400 C 219.888 78.345,219.809 77.985,219.726 77.600 C 219.174 75.051,216.883 69.210,215.970 68.026 C 215.770 67.766,215.655 67.474,215.715 67.376 C 215.775 67.279,215.728 67.200,215.612 67.200 C 215.495 67.200,215.400 67.106,215.400 66.992 C 215.400 66.738,214.606 65.588,214.219 65.283 C 214.052 65.150,214.004 64.956,214.100 64.799 C 214.200 64.639,214.183 64.587,214.058 64.664 C 213.945 64.734,213.684 64.597,213.477 64.361 C 213.237 64.088,213.209 63.994,213.400 64.104 C 213.659 64.253,213.662 64.230,213.426 63.938 C 213.275 63.752,213.224 63.600,213.314 63.600 C 213.403 63.600,213.302 63.468,213.088 63.306 C 212.751 63.051,208.439 63.012,180.029 63.006 C 151.071 63.001,147.370 62.966,147.472 62.700 C 147.624 62.304,147.533 62.322,147.131 62.766 M117.309 112.386 C 117.108 112.710,117.544 112.809,117.802 112.498 C 118.003 112.256,117.991 112.200,117.736 112.200 C 117.564 112.200,117.372 112.284,117.309 112.386 M178.552 128.141 C 178.801 128.189,179.161 128.187,179.352 128.137 C 179.544 128.087,179.340 128.048,178.900 128.050 C 178.460 128.053,178.304 128.094,178.552 128.141 M98.450 155.138 C 98.642 155.188,98.958 155.188,99.150 155.138 C 99.343 155.088,99.185 155.046,98.800 155.046 C 98.415 155.046,98.258 155.088,98.450 155.138 M53.048 224.950 C 53.012 225.140,52.041 225.200,49.000 225.200 L 45.000 225.200 45.000 260.100 L 45.000 295.000 49.312 295.000 C 52.182 295.000,53.582 294.932,53.498 294.797 C 53.429 294.685,53.311 294.631,53.236 294.678 C 53.161 294.724,53.123 284.713,53.152 272.431 C 53.202 250.615,53.145 224.451,53.048 224.950 M57.950 225.150 C 53.510 225.206,53.101 225.272,53.668 225.840 C 53.980 226.151,54.463 226.997,54.519 227.328 C 54.541 227.454,54.928 228.113,55.379 228.792 C 55.831 229.472,56.200 230.104,56.200 230.198 C 56.200 230.291,56.621 231.072,57.135 231.933 C 57.649 232.795,58.402 234.085,58.809 234.800 C 59.216 235.515,60.203 237.225,61.002 238.600 C 63.259 242.481,66.168 247.540,67.133 249.260 C 67.614 250.118,68.395 251.468,68.867 252.260 C 69.340 253.052,70.126 254.409,70.613 255.275 L 71.500 256.850 71.552 248.640 L 71.604 240.430 70.533 238.665 C 69.944 237.694,69.235 236.495,68.959 236.000 C 67.273 232.975,65.324 229.682,65.159 229.578 C 65.053 229.510,64.974 229.398,64.983 229.328 C 65.029 228.987,64.964 228.857,64.496 228.352 C 64.218 228.053,63.995 227.739,64.000 227.654 C 64.013 227.425,63.324 226.111,63.150 226.033 C 63.067 225.997,63.000 225.839,63.000 225.683 C 63.000 225.528,62.905 225.400,62.788 225.400 C 62.672 225.400,62.632 225.310,62.700 225.200 C 62.768 225.090,62.751 225.021,62.662 225.046 C 62.573 225.071,60.453 225.118,57.950 225.150 M337.071 225.500 C 337.002 225.720,336.891 225.945,336.823 226.000 C 336.661 226.132,335.946 227.543,335.970 227.682 C 335.981 227.742,335.767 228.031,335.495 228.324 C 335.223 228.618,335.000 229.025,335.000 229.229 C 335.000 229.433,334.910 229.600,334.800 229.600 C 334.690 229.600,334.600 229.728,334.600 229.883 C 334.600 230.039,334.530 230.197,334.444 230.233 C 334.307 230.292,333.326 231.950,331.333 235.492 C 331.021 236.046,330.156 237.535,329.412 238.800 C 328.667 240.065,327.407 242.225,326.612 243.600 C 325.817 244.975,324.590 247.090,323.886 248.300 L 322.606 250.500 323.553 250.561 C 324.389 250.614,324.623 250.743,325.550 251.654 L 326.600 252.686 326.600 256.392 L 326.600 260.098 327.825 257.999 C 328.498 256.845,329.431 255.225,329.898 254.400 C 330.365 253.575,332.253 250.290,334.093 247.100 C 335.934 243.910,337.898 240.490,338.458 239.500 C 339.018 238.510,339.774 237.232,340.138 236.660 C 340.502 236.087,340.800 235.573,340.800 235.516 C 340.800 235.459,341.475 234.279,342.300 232.893 C 343.125 231.508,343.800 230.299,343.800 230.206 C 343.800 230.113,344.200 229.428,344.690 228.683 C 345.179 227.938,345.534 227.255,345.478 227.164 C 345.422 227.074,345.472 227.000,345.588 227.000 C 345.705 227.000,345.800 226.879,345.800 226.731 C 345.800 226.582,345.979 226.254,346.199 226.001 C 346.598 225.542,346.598 225.551,346.649 260.152 C 346.677 279.187,346.639 294.724,346.564 294.678 C 346.489 294.631,346.371 294.685,346.302 294.797 C 346.218 294.932,347.618 295.000,350.488 295.000 L 354.800 295.000 354.800 260.104 L 354.800 225.208 345.998 225.154 C 337.346 225.101,337.193 225.107,337.071 225.500 " stroke="none" fill="#0c5b0a" fill-rule="evenodd"></path><path id="path1" d="M173.400 208.372 L 173.400 265.800 179.200 265.800 L 185.000 265.800 185.000 239.100 L 185.000 212.400 192.350 212.407 L 199.700 212.414 216.033 239.057 L 232.366 265.700 239.505 265.753 C 245.191 265.794,246.625 265.754,246.546 265.553 C 246.491 265.414,239.154 253.420,230.240 238.900 L 214.034 212.500 215.667 212.379 C 221.329 211.957,229.340 208.874,234.126 205.273 C 249.141 193.978,248.692 168.589,233.283 157.568 C 225.518 152.013,220.635 151.266,190.750 151.062 L 173.400 150.943 173.400 208.372 M264.800 156.700 L 264.800 162.400 286.113 162.400 C 306.321 162.400,307.421 162.418,307.315 162.750 C 307.254 162.942,296.493 186.173,283.402 214.374 C 270.311 242.575,259.600 265.682,259.600 265.724 C 259.600 265.766,273.775 265.800,291.100 265.800 L 322.600 265.800 322.600 260.100 L 322.600 254.400 300.079 254.400 C 282.138 254.400,277.579 254.349,277.663 254.150 C 277.721 254.013,288.396 230.835,301.385 202.644 C 314.373 174.454,325.000 151.301,325.000 151.194 C 325.000 151.069,314.261 151.000,294.900 151.000 L 264.800 151.000 264.800 156.700 M75.600 208.700 L 75.600 266.000 81.500 266.000 L 87.400 266.000 87.404 238.850 L 87.407 211.700 94.253 205.669 C 98.018 202.352,101.149 199.669,101.211 199.707 C 101.273 199.745,110.851 214.677,122.496 232.888 L 143.669 266.000 151.336 266.000 L 159.003 266.000 157.674 263.850 C 143.194 240.428,112.735 190.840,112.720 190.667 C 112.709 190.538,122.105 181.732,133.600 171.096 C 145.095 160.461,154.530 151.678,154.567 151.580 C 154.605 151.475,150.993 151.400,145.934 151.400 L 137.234 151.400 112.367 173.299 L 87.500 195.199 87.449 173.299 L 87.398 151.400 81.499 151.400 L 75.600 151.400 75.600 208.700 M96.952 155.141 C 97.201 155.189,97.561 155.187,97.752 155.137 C 97.944 155.087,97.740 155.048,97.300 155.050 C 96.860 155.053,96.704 155.094,96.952 155.141 M213.500 162.785 C 220.092 163.531,223.607 164.840,226.770 167.728 C 236.413 176.528,234.373 192.719,222.900 198.453 C 217.845 200.980,213.596 201.378,193.050 201.250 L 185.000 201.200 185.000 181.777 L 185.000 162.355 198.250 162.457 C 206.071 162.517,212.319 162.652,213.500 162.785 M134.873 269.487 C 118.880 273.118,120.166 295.032,136.501 297.212 C 145.501 298.413,152.084 293.460,152.736 284.996 L 152.859 283.400 146.830 283.400 L 140.800 283.400 140.800 284.800 L 140.800 286.200 145.179 286.200 L 149.557 286.200 149.372 287.028 C 147.593 294.941,136.244 297.166,130.000 290.824 C 124.744 285.485,125.739 277.837,132.202 273.901 C 137.115 270.908,142.973 271.632,148.063 275.860 L 149.027 276.660 150.128 275.580 L 151.229 274.500 150.135 273.500 C 146.347 270.037,139.907 268.344,134.873 269.487 M306.473 269.487 C 291.634 272.856,291.245 292.864,305.941 296.833 C 315.663 299.458,324.400 293.467,324.400 284.174 L 324.400 283.400 318.400 283.400 L 312.400 283.400 312.400 284.800 L 312.400 286.200 316.782 286.200 L 321.164 286.200 320.905 287.183 C 318.825 295.067,307.872 297.130,301.583 290.822 C 296.462 285.686,297.239 278.279,303.327 274.208 C 308.304 270.879,314.435 271.497,319.663 275.857 L 320.627 276.660 321.728 275.580 L 322.829 274.500 321.735 273.500 C 317.947 270.037,311.507 268.344,306.473 269.487 M75.600 283.400 L 75.600 297.200 83.400 297.200 L 91.200 297.200 91.200 295.700 L 91.200 294.200 84.800 294.200 L 78.400 294.200 78.400 289.000 L 78.400 283.800 82.400 283.800 L 86.400 283.800 86.400 282.300 L 86.400 280.800 82.400 280.800 L 78.400 280.800 78.400 276.700 L 78.400 272.600 84.900 272.600 L 91.400 272.600 91.400 271.100 L 91.400 269.600 83.500 269.600 L 75.600 269.600 75.600 283.400 M96.600 283.400 L 96.600 297.200 98.098 297.200 L 99.596 297.200 99.648 287.034 L 99.700 276.868 108.573 287.034 C 114.414 293.726,117.574 297.200,117.823 297.200 C 118.189 297.200,118.200 296.789,118.200 283.400 L 118.200 269.600 116.802 269.600 L 115.404 269.600 115.352 279.937 L 115.300 290.274 106.300 279.938 C 100.840 273.667,97.162 269.601,96.950 269.601 C 96.620 269.600,96.600 270.390,96.600 283.400 M157.400 283.400 L 157.400 297.200 158.800 297.200 L 160.200 297.200 160.200 283.400 L 160.200 269.600 158.800 269.600 L 157.400 269.600 157.400 283.400 M166.400 283.386 L 166.400 297.200 167.900 297.200 L 169.400 297.200 169.400 286.994 L 169.400 276.788 178.312 286.994 C 184.338 293.895,187.350 297.200,187.612 297.200 C 187.992 297.200,188.000 296.921,188.000 283.400 L 188.000 269.600 186.600 269.600 L 185.200 269.600 185.200 280.006 L 185.200 290.413 176.177 280.056 C 171.214 274.360,166.984 269.671,166.777 269.636 C 166.411 269.574,166.400 269.967,166.400 283.386 M194.400 283.400 L 194.400 297.200 202.300 297.200 L 210.200 297.200 210.200 295.700 L 210.200 294.200 203.800 294.200 L 197.400 294.200 197.400 289.000 L 197.400 283.800 201.300 283.800 L 205.200 283.800 205.200 282.300 L 205.200 280.800 201.300 280.800 L 197.400 280.800 197.400 276.700 L 197.400 272.600 203.800 272.600 L 210.200 272.600 210.200 271.100 L 210.200 269.600 202.300 269.600 L 194.400 269.600 194.400 283.400 M215.400 283.400 L 215.400 297.200 223.300 297.200 L 231.200 297.200 231.200 295.700 L 231.200 294.200 224.800 294.200 L 218.400 294.200 218.400 289.000 L 218.400 283.800 222.300 283.800 L 226.200 283.800 226.200 282.300 L 226.200 280.800 222.300 280.800 L 218.400 280.800 218.400 276.700 L 218.400 272.600 224.900 272.600 L 231.400 272.600 231.400 271.100 L 231.400 269.600 223.400 269.600 L 215.400 269.600 215.400 283.400 M236.600 283.369 L 236.600 297.200 238.100 297.200 L 239.600 297.200 239.600 290.800 L 239.600 284.400 241.262 284.400 L 242.924 284.400 246.841 290.750 L 250.758 297.100 252.579 297.158 C 253.581 297.189,254.400 297.175,254.400 297.127 C 254.400 297.078,252.658 294.218,250.529 290.771 L 246.659 284.503 247.797 284.270 C 255.812 282.636,256.148 271.616,248.232 269.990 C 247.720 269.884,244.893 269.740,241.950 269.668 L 236.600 269.538 236.600 283.369 M259.200 283.400 L 259.200 297.200 260.700 297.200 L 262.200 297.200 262.200 283.400 L 262.200 269.600 260.700 269.600 L 259.200 269.600 259.200 283.400 M268.200 283.386 L 268.200 297.200 269.700 297.200 L 271.200 297.200 271.200 286.986 L 271.200 276.771 280.121 286.986 C 286.026 293.748,289.169 297.200,289.421 297.200 C 289.789 297.200,289.800 296.818,289.800 283.400 L 289.800 269.600 288.402 269.600 L 287.004 269.600 286.952 279.945 L 286.900 290.290 277.937 279.995 C 272.884 274.190,268.806 269.672,268.587 269.636 C 268.207 269.573,268.200 269.834,268.200 283.386 M247.677 272.883 C 251.699 274.093,251.972 279.422,248.100 281.132 C 247.450 281.419,246.578 281.500,243.450 281.561 L 239.600 281.637 239.600 277.118 L 239.600 272.600 243.168 272.600 C 245.669 272.600,247.018 272.685,247.677 272.883 " stroke="none" fill="#040404" fill-rule="evenodd"></path><path id="path2" d="M134.513 21.779 C 134.452 21.878,134.541 22.011,134.712 22.077 C 134.882 22.142,134.971 22.114,134.909 22.015 C 134.848 21.915,134.911 21.789,135.049 21.733 C 135.205 21.670,135.172 21.626,134.962 21.616 C 134.776 21.607,134.574 21.681,134.513 21.779 M144.300 23.801 C 139.240 23.861,135.084 23.930,135.065 23.955 C 135.046 23.980,135.165 24.269,135.329 24.597 C 135.493 24.926,135.579 25.272,135.520 25.367 C 135.462 25.462,135.588 25.726,135.801 25.955 C 136.032 26.203,136.100 26.400,135.970 26.443 C 135.829 26.490,135.903 26.847,136.176 27.447 C 136.409 27.959,136.600 28.518,136.600 28.689 C 136.600 28.860,136.671 29.000,136.757 29.000 C 136.844 29.000,136.936 29.280,136.962 29.622 C 136.988 29.964,137.101 30.414,137.212 30.622 C 137.323 30.830,137.361 31.000,137.296 31.000 C 137.231 31.000,137.314 31.248,137.481 31.550 C 137.648 31.852,137.884 32.617,138.006 33.250 C 138.128 33.883,138.327 34.400,138.448 34.400 C 138.568 34.400,138.610 34.456,138.541 34.525 C 138.472 34.594,138.544 34.898,138.700 35.200 C 138.856 35.502,138.936 35.797,138.877 35.856 C 138.819 35.915,138.910 36.232,139.080 36.561 C 139.389 37.159,139.388 37.161,138.471 37.930 C 137.422 38.810,134.898 41.128,134.421 41.650 C 134.244 41.843,133.883 42.203,133.618 42.450 C 133.352 42.698,132.992 43.072,132.818 43.282 C 132.643 43.493,132.127 44.078,131.670 44.582 C 131.214 45.087,130.629 45.746,130.370 46.047 C 129.933 46.556,129.845 46.580,129.100 46.389 C 128.004 46.108,128.024 46.115,126.500 45.534 C 126.170 45.408,125.855 45.301,125.800 45.297 C 125.657 45.286,122.777 44.379,122.300 44.195 C 121.742 43.979,119.985 43.390,119.800 43.356 C 119.745 43.346,119.430 43.225,119.100 43.087 C 118.770 42.949,118.455 42.834,118.400 42.831 C 118.345 42.828,118.165 42.783,118.000 42.730 C 117.669 42.623,116.655 42.368,116.224 42.283 C 116.072 42.252,115.851 42.131,115.734 42.014 C 115.088 41.368,113.000 42.912,113.000 44.036 C 113.000 44.113,112.340 45.284,111.533 46.638 C 110.726 47.992,109.803 49.595,109.483 50.200 C 109.162 50.805,108.833 51.330,108.750 51.367 C 108.668 51.403,108.600 51.547,108.600 51.686 C 108.600 51.825,108.420 52.146,108.200 52.400 C 107.542 53.159,107.946 53.671,111.991 57.200 C 112.685 57.805,113.374 58.418,113.524 58.562 C 114.596 59.596,115.894 60.566,116.064 60.460 C 116.184 60.386,116.219 60.461,116.150 60.642 C 116.035 60.941,116.331 61.163,117.300 61.505 C 117.531 61.587,117.599 61.684,117.463 61.736 C 117.296 61.798,117.326 61.932,117.563 62.181 C 117.748 62.376,117.961 62.505,118.036 62.465 C 118.110 62.426,118.222 62.553,118.283 62.747 C 118.388 63.078,118.913 63.096,126.727 63.044 C 134.696 62.990,135.047 63.003,134.780 63.344 C 134.525 63.668,134.532 63.675,134.848 63.427 C 135.039 63.277,135.151 63.082,135.096 62.993 C 135.041 62.905,135.132 62.696,135.298 62.530 C 135.464 62.364,135.600 62.132,135.600 62.014 C 135.600 61.896,135.713 61.799,135.850 61.797 C 136.017 61.795,136.000 61.729,135.800 61.600 C 135.541 61.432,135.545 61.406,135.834 61.403 C 136.043 61.401,136.219 61.170,136.303 60.786 C 136.377 60.448,136.491 60.225,136.556 60.290 C 136.621 60.355,136.843 60.041,137.048 59.594 C 137.253 59.146,137.558 58.727,137.726 58.662 C 137.893 58.598,138.118 58.355,138.224 58.123 C 138.618 57.261,138.994 56.701,139.644 56.010 C 140.011 55.619,140.553 54.973,140.849 54.572 C 141.775 53.319,146.028 49.143,147.700 47.846 C 148.580 47.163,149.430 46.491,149.588 46.352 C 151.184 44.957,158.058 41.116,160.750 40.116 C 161.218 39.942,161.938 39.671,162.350 39.514 C 164.747 38.599,169.168 37.357,169.436 37.522 C 169.522 37.575,169.751 37.535,169.946 37.434 C 170.141 37.333,170.795 37.195,171.400 37.128 C 172.005 37.061,173.040 36.906,173.700 36.783 C 177.193 36.134,188.145 36.624,190.800 37.548 C 190.965 37.606,191.280 37.682,191.500 37.718 C 191.720 37.754,192.620 37.969,193.500 38.195 C 194.380 38.421,195.258 38.644,195.451 38.692 C 195.644 38.739,195.889 38.831,195.996 38.898 C 196.260 39.061,198.812 40.003,199.254 40.100 C 199.594 40.175,200.051 40.389,202.000 41.386 C 202.495 41.639,203.676 42.240,204.624 42.722 C 205.572 43.203,206.458 43.729,206.593 43.892 C 206.728 44.054,207.437 44.519,208.169 44.926 C 209.319 45.564,213.026 48.428,214.330 49.685 C 216.495 51.774,217.209 52.500,217.900 53.314 C 218.340 53.833,218.970 54.557,219.300 54.923 C 220.258 55.985,220.469 56.246,220.960 56.969 C 221.214 57.344,221.530 57.772,221.661 57.919 C 222.218 58.543,222.358 58.754,222.489 59.164 C 222.564 59.403,222.733 59.713,222.863 59.855 C 223.595 60.650,223.877 61.057,223.600 60.917 C 223.435 60.834,223.525 60.961,223.800 61.200 C 224.075 61.439,224.165 61.575,224.000 61.503 C 223.802 61.415,223.818 61.467,224.047 61.655 C 224.238 61.811,224.328 62.012,224.247 62.102 C 224.166 62.191,224.270 62.202,224.478 62.127 C 224.814 62.006,224.825 62.029,224.578 62.334 C 224.425 62.522,224.402 62.615,224.527 62.541 C 224.652 62.466,224.868 62.540,225.006 62.707 C 225.217 62.962,225.197 62.990,224.878 62.886 C 224.603 62.796,224.573 62.814,224.767 62.953 C 224.914 63.059,225.026 63.202,225.017 63.272 C 224.966 63.655,225.023 63.800,225.224 63.800 C 225.390 63.800,225.390 63.729,225.226 63.532 C 224.810 63.030,225.263 63.000,233.183 63.000 L 241.100 63.000 241.676 62.504 C 241.993 62.232,242.340 62.063,242.448 62.129 C 242.564 62.202,242.591 62.086,242.513 61.842 C 242.439 61.608,242.486 61.371,242.623 61.286 C 242.774 61.193,242.809 61.223,242.719 61.369 C 242.633 61.508,242.708 61.600,242.907 61.600 C 243.089 61.600,243.284 61.421,243.341 61.202 C 243.399 60.983,243.515 60.847,243.600 60.900 C 243.685 60.953,243.877 60.844,244.027 60.659 C 244.259 60.374,244.258 60.349,244.019 60.493 C 243.827 60.608,243.784 60.588,243.883 60.428 C 243.963 60.299,244.107 60.242,244.203 60.302 C 244.300 60.362,244.777 60.026,245.263 59.555 C 245.749 59.085,246.329 58.565,246.552 58.400 C 246.901 58.142,247.963 57.180,251.337 54.064 L 252.025 53.429 251.440 52.264 C 251.119 51.624,250.381 50.290,249.802 49.300 C 248.536 47.136,248.132 46.437,247.581 45.450 C 245.286 41.342,245.278 41.335,243.773 42.114 C 243.458 42.277,243.200 42.352,243.200 42.281 C 243.200 42.209,243.088 42.242,242.950 42.352 C 242.813 42.463,242.385 42.627,242.000 42.716 C 241.147 42.913,241.170 42.906,240.800 43.056 C 240.635 43.122,240.050 43.320,239.500 43.495 C 238.950 43.670,238.365 43.870,238.200 43.939 C 238.035 44.009,237.855 44.081,237.800 44.100 C 237.745 44.119,237.565 44.187,237.400 44.252 C 237.036 44.395,235.597 44.855,235.250 44.939 C 235.113 44.973,234.868 45.027,234.706 45.061 C 234.544 45.094,234.349 45.184,234.272 45.261 C 234.196 45.337,233.938 45.400,233.700 45.400 C 233.462 45.400,233.205 45.462,233.130 45.537 C 232.925 45.742,231.614 46.187,230.654 46.378 C 229.856 46.537,229.779 46.511,229.322 45.924 C 228.049 44.285,224.267 40.445,222.278 38.770 C 220.516 37.286,220.209 36.541,221.016 35.710 C 221.117 35.606,221.200 35.313,221.200 35.060 C 221.200 34.807,221.280 34.600,221.377 34.600 C 221.475 34.600,221.613 34.307,221.685 33.950 C 221.997 32.388,222.055 32.200,222.223 32.200 C 222.320 32.200,222.383 32.133,222.362 32.050 C 222.311 31.851,222.614 30.553,222.770 30.300 C 222.838 30.190,222.900 30.055,222.908 30.000 C 222.999 29.364,223.311 28.416,223.548 28.054 C 223.711 27.806,223.790 27.463,223.724 27.291 C 223.656 27.112,223.689 27.031,223.802 27.101 C 223.911 27.169,224.000 27.136,224.000 27.028 C 224.000 26.921,223.889 26.796,223.754 26.751 C 223.559 26.686,223.560 26.568,223.755 26.185 C 223.986 25.733,223.994 25.730,223.888 26.150 C 223.728 26.776,223.966 26.715,224.213 26.067 C 224.364 25.669,224.350 25.492,224.158 25.370 C 223.969 25.250,223.997 25.205,224.262 25.203 C 224.461 25.201,224.579 25.128,224.525 25.040 C 224.471 24.953,224.502 24.758,224.595 24.608 C 224.699 24.440,224.658 24.230,224.491 24.062 C 224.106 23.677,205.873 23.764,205.950 24.150 C 205.978 24.288,205.921 24.378,205.825 24.350 C 205.619 24.291,204.200 25.744,204.200 26.014 C 204.200 26.116,204.060 26.200,203.888 26.200 C 203.717 26.200,203.626 26.280,203.686 26.377 C 204.089 27.030,202.303 27.266,201.639 26.648 C 201.490 26.510,201.283 26.449,201.180 26.512 C 200.910 26.679,199.548 26.194,199.234 25.819 C 198.997 25.536,198.982 25.545,199.096 25.900 C 199.214 26.268,199.191 26.264,198.805 25.850 C 198.347 25.360,198.092 25.290,197.900 25.600 C 197.832 25.710,197.669 25.799,197.538 25.797 C 197.395 25.795,197.420 25.716,197.600 25.600 C 197.856 25.434,197.849 25.406,197.550 25.403 C 197.088 25.399,196.987 25.370,196.411 25.070 C 196.027 24.871,195.856 24.869,195.622 25.058 C 195.455 25.193,195.380 25.204,195.453 25.083 C 195.524 24.964,195.455 24.867,195.300 24.867 C 195.145 24.867,195.073 24.957,195.142 25.067 C 195.217 25.189,195.128 25.215,194.916 25.134 C 194.724 25.060,194.524 25.000,194.472 25.000 C 194.419 25.000,194.441 24.895,194.521 24.766 C 194.618 24.609,194.557 24.574,194.333 24.660 C 194.150 24.730,194.000 24.694,194.000 24.579 C 194.000 24.465,193.798 24.396,193.550 24.426 C 193.303 24.455,192.888 24.363,192.629 24.221 C 192.288 24.034,192.097 24.023,191.939 24.181 C 191.818 24.302,191.626 24.399,191.510 24.397 C 191.395 24.395,191.435 24.300,191.600 24.186 C 191.822 24.032,191.682 24.000,191.059 24.062 C 190.597 24.108,190.237 24.067,190.259 23.971 C 190.295 23.817,171.458 23.745,169.600 23.891 C 169.131 23.928,168.917 24.038,168.953 24.223 C 168.983 24.381,168.876 24.334,168.703 24.112 C 168.433 23.765,168.400 23.761,168.400 24.069 C 168.400 24.352,168.328 24.376,168.000 24.200 C 167.691 24.034,167.600 24.048,167.600 24.260 C 167.600 24.410,167.465 24.533,167.300 24.533 C 167.135 24.533,167.000 24.477,167.000 24.409 C 167.000 24.341,166.818 24.271,166.596 24.255 C 166.373 24.238,166.234 24.293,166.286 24.377 C 166.338 24.461,166.182 24.523,165.940 24.515 C 165.649 24.505,165.522 24.602,165.564 24.800 C 165.613 25.027,165.572 25.044,165.394 24.870 C 165.240 24.719,164.959 24.697,164.576 24.807 C 163.904 25.000,163.902 25.000,163.488 25.000 C 163.317 25.000,163.226 25.081,163.287 25.179 C 163.442 25.429,162.921 25.596,162.323 25.487 C 161.986 25.426,161.755 25.512,161.617 25.748 C 161.504 25.942,161.409 25.996,161.406 25.869 C 161.399 25.601,160.600 25.754,160.600 26.023 C 160.600 26.120,160.505 26.200,160.388 26.200 C 160.272 26.200,160.244 26.088,160.327 25.950 C 160.415 25.804,160.325 25.823,160.111 25.997 C 159.910 26.160,159.600 26.295,159.423 26.297 C 159.245 26.299,159.125 26.420,159.156 26.567 C 159.197 26.766,159.056 26.800,158.606 26.701 C 158.208 26.614,158.000 26.646,158.000 26.796 C 158.000 26.921,157.900 26.962,157.778 26.886 C 157.655 26.811,157.478 26.873,157.385 27.024 C 157.192 27.336,156.059 26.784,156.145 26.421 C 156.199 26.189,154.873 25.000,154.560 25.000 C 154.435 25.000,154.386 24.948,154.450 24.883 C 154.606 24.728,153.867 24.001,153.550 23.997 C 153.383 23.995,153.400 23.929,153.600 23.800 C 153.765 23.693,153.810 23.625,153.700 23.649 C 153.590 23.673,149.360 23.741,144.300 23.801 M177.100 46.407 C 176.550 46.481,175.515 46.605,174.800 46.681 C 171.862 46.993,167.635 48.035,165.530 48.966 C 165.019 49.192,164.600 49.343,164.600 49.300 C 164.600 48.876,157.911 52.626,155.690 54.294 C 152.727 56.520,149.212 59.958,149.630 60.223 C 149.825 60.346,149.772 60.395,149.438 60.397 C 149.182 60.399,149.031 60.489,149.100 60.600 C 149.168 60.710,149.078 60.800,148.900 60.800 C 148.722 60.800,148.631 60.889,148.699 60.998 C 148.766 61.106,148.580 61.444,148.285 61.748 C 147.990 62.051,147.819 62.165,147.904 62.000 C 148.009 61.796,147.993 61.764,147.852 61.900 C 147.738 62.010,147.584 62.303,147.509 62.550 L 147.373 63.000 180.047 63.000 C 205.898 63.000,212.780 63.052,213.008 63.250 C 213.167 63.388,213.028 63.186,212.698 62.802 C 212.369 62.418,212.032 62.073,211.950 62.035 C 211.868 61.998,211.800 61.845,211.800 61.697 C 211.800 61.549,211.530 61.235,211.200 61.000 C 210.870 60.765,210.597 60.466,210.593 60.336 C 210.581 59.969,206.693 56.245,205.021 55.000 C 204.652 54.725,204.195 54.365,204.007 54.200 C 203.616 53.857,203.316 53.656,201.844 52.750 C 199.194 51.120,196.242 49.600,195.723 49.600 C 195.545 49.600,195.400 49.520,195.400 49.422 C 195.400 49.248,194.449 48.902,194.150 48.967 C 194.067 48.985,194.000 48.910,194.000 48.800 C 194.000 48.690,193.793 48.600,193.540 48.600 C 193.287 48.600,192.972 48.492,192.840 48.360 C 192.708 48.228,192.600 48.186,192.600 48.267 C 192.600 48.348,192.415 48.315,192.190 48.194 C 191.619 47.889,186.994 46.866,185.500 46.715 C 185.170 46.681,184.495 46.593,184.000 46.519 C 182.677 46.322,178.256 46.249,177.100 46.407 M146.592 63.500 C 146.570 63.610,146.563 63.767,146.576 63.850 C 146.589 63.933,146.510 64.000,146.400 64.000 C 146.290 64.000,146.200 64.109,146.200 64.243 C 146.200 64.400,146.314 64.372,146.523 64.163 C 146.701 63.985,146.798 63.718,146.739 63.570 C 146.680 63.421,146.614 63.390,146.592 63.500 M213.271 63.844 C 213.325 64.207,214.395 65.571,214.398 65.279 C 214.399 65.158,214.197 64.840,213.950 64.573 C 213.703 64.306,213.485 64.015,213.467 63.927 C 213.406 63.633,213.229 63.559,213.271 63.844 M45.043 297.245 C 45.094 299.256,45.142 299.510,45.500 299.695 C 46.029 299.966,48.027 301.101,49.400 301.910 C 50.005 302.267,51.220 302.976,52.100 303.487 C 52.980 303.998,53.835 304.495,54.000 304.592 C 54.567 304.926,64.827 310.860,73.700 315.987 C 76.230 317.449,80.415 319.866,83.000 321.360 C 85.585 322.853,89.635 325.195,92.000 326.565 C 94.365 327.934,98.955 330.582,102.200 332.450 C 105.445 334.319,108.370 336.006,108.700 336.199 C 111.143 337.632,112.000 338.118,112.700 338.467 C 113.140 338.686,113.635 338.976,113.800 339.111 C 113.965 339.245,114.595 339.608,115.200 339.917 C 115.805 340.227,116.345 340.540,116.400 340.614 C 116.455 340.687,117.040 341.043,117.700 341.403 C 118.360 341.764,119.170 342.207,119.500 342.388 C 120.576 342.977,121.800 343.849,121.800 344.027 C 121.800 344.124,155.952 344.200,199.913 344.200 L 278.026 344.200 278.509 343.626 C 278.775 343.310,279.264 342.939,279.596 342.802 C 279.928 342.664,280.200 342.457,280.200 342.342 C 280.200 342.227,280.256 342.189,280.324 342.257 C 280.392 342.326,280.773 342.161,281.171 341.891 C 281.568 341.621,281.976 341.400,282.078 341.400 C 282.179 341.400,282.557 341.175,282.918 340.900 C 283.278 340.625,283.631 340.400,283.702 340.400 C 283.772 340.400,284.476 340.021,285.265 339.557 C 286.054 339.094,286.970 338.569,287.300 338.390 C 287.630 338.211,288.485 337.724,289.200 337.308 C 289.915 336.892,290.799 336.380,291.164 336.171 C 291.530 335.962,293.195 335.000,294.864 334.033 C 296.534 333.067,299.475 331.369,301.400 330.260 C 303.325 329.151,307.735 326.604,311.200 324.600 C 314.665 322.595,319.615 319.734,322.200 318.241 C 324.785 316.748,328.790 314.433,331.100 313.098 C 333.410 311.762,337.460 309.428,340.100 307.910 C 342.740 306.393,345.144 304.982,345.442 304.775 C 345.740 304.569,346.031 304.400,346.089 304.400 C 346.200 304.400,349.170 302.675,350.446 301.871 C 350.856 301.612,351.237 301.400,351.292 301.400 C 351.348 301.400,352.002 301.037,352.746 300.594 C 353.491 300.151,354.235 299.714,354.400 299.623 C 354.633 299.494,354.713 298.960,354.757 297.229 L 354.813 295.000 350.418 295.000 C 347.657 295.000,345.977 295.076,345.898 295.203 C 345.829 295.315,345.689 295.355,345.586 295.291 C 345.484 295.228,345.400 295.264,345.400 295.371 C 345.400 295.478,344.867 295.818,344.215 296.126 C 343.563 296.434,343.082 296.770,343.146 296.874 C 343.209 296.977,343.165 297.002,343.047 296.929 C 342.929 296.856,342.696 296.932,342.530 297.098 C 342.364 297.264,342.143 297.400,342.039 297.400 C 341.934 297.400,341.325 297.715,340.686 298.100 C 340.047 298.485,339.445 298.800,339.350 298.800 C 339.254 298.800,339.231 298.889,339.299 298.998 C 339.366 299.106,339.296 299.147,339.142 299.089 C 338.989 299.030,338.749 299.121,338.608 299.291 C 338.466 299.461,338.261 299.600,338.152 299.600 C 338.042 299.600,337.401 299.937,336.727 300.350 C 335.152 301.314,334.948 301.435,334.266 301.817 C 333.955 301.992,333.340 302.342,332.900 302.595 C 332.460 302.849,331.531 303.381,330.837 303.778 C 330.142 304.175,329.422 304.593,329.237 304.707 C 329.051 304.821,328.540 305.113,328.100 305.356 C 327.660 305.599,326.940 306.023,326.500 306.298 C 326.060 306.572,325.566 306.861,325.403 306.938 C 325.070 307.096,322.264 308.712,302.900 319.902 C 299.539 321.844,293.364 325.406,287.450 328.812 C 286.750 329.215,286.639 329.121,287.075 328.495 C 287.226 328.278,288.229 326.570,289.303 324.700 C 290.378 322.830,291.753 320.445,292.358 319.400 C 295.034 314.780,295.400 314.138,295.400 314.062 C 295.400 314.017,295.715 313.488,296.100 312.887 C 296.485 312.285,296.800 311.755,296.800 311.710 C 296.800 311.664,297.476 310.485,298.302 309.090 C 299.128 307.694,300.320 305.640,300.950 304.526 C 301.581 303.412,302.187 302.355,302.298 302.178 C 302.409 302.001,302.750 301.391,303.055 300.824 L 303.610 299.793 298.871 299.846 L 294.132 299.900 293.816 300.430 C 293.117 301.604,290.627 305.947,289.305 308.300 C 288.996 308.850,288.576 309.539,288.371 309.831 C 288.167 310.123,288.000 310.414,288.000 310.477 C 288.000 310.541,287.640 311.181,287.200 311.900 C 286.760 312.619,286.400 313.252,286.400 313.307 C 286.400 313.363,286.188 313.744,285.929 314.154 C 285.470 314.883,284.689 316.221,281.643 321.500 C 280.819 322.930,279.469 325.270,278.644 326.700 C 277.819 328.130,276.466 330.470,275.638 331.900 C 274.809 333.330,273.899 334.927,273.616 335.448 L 273.100 336.397 242.800 336.395 L 212.500 336.393 214.200 335.430 C 215.135 334.901,217.115 333.763,218.600 332.902 C 220.085 332.041,222.425 330.690,223.800 329.900 C 227.069 328.021,230.871 325.828,234.100 323.958 C 235.530 323.130,237.870 321.781,239.300 320.959 C 240.730 320.138,243.970 318.268,246.500 316.804 C 249.030 315.339,252.540 313.313,254.300 312.300 C 256.060 311.287,258.625 309.805,260.000 309.005 C 261.375 308.206,262.905 307.323,263.400 307.043 C 263.895 306.763,265.155 306.027,266.201 305.408 C 267.246 304.788,268.236 304.217,268.401 304.139 C 268.565 304.060,269.015 303.805,269.400 303.570 C 269.785 303.336,270.460 302.940,270.900 302.691 C 271.340 302.442,272.240 301.921,272.900 301.533 C 273.560 301.146,274.496 300.620,274.979 300.365 L 275.859 299.900 267.724 299.848 L 259.589 299.796 256.744 301.420 C 255.180 302.314,253.495 303.275,253.000 303.555 C 252.505 303.836,251.214 304.591,250.131 305.233 C 249.049 305.875,248.123 306.400,248.073 306.400 C 248.024 306.400,247.740 306.568,247.442 306.774 C 247.144 306.979,245.865 307.729,244.600 308.439 C 243.335 309.150,239.915 311.109,237.000 312.793 C 230.798 316.375,227.565 318.242,224.050 320.273 C 222.648 321.083,219.475 322.915,217.000 324.343 C 214.525 325.772,211.600 327.463,210.500 328.101 C 209.400 328.740,207.375 329.910,206.000 330.702 C 204.625 331.495,202.705 332.606,201.734 333.171 C 200.763 333.737,199.938 334.200,199.900 334.200 C 199.862 334.200,199.037 333.737,198.066 333.171 C 197.095 332.606,195.175 331.495,193.800 330.702 C 192.425 329.910,190.400 328.740,189.300 328.101 C 188.200 327.463,185.275 325.772,182.800 324.343 C 180.325 322.915,177.130 321.070,175.700 320.244 C 169.991 316.946,167.886 315.730,162.800 312.795 C 153.576 307.470,152.901 307.082,152.597 306.932 C 152.434 306.851,152.118 306.675,151.897 306.542 C 151.247 306.152,147.364 303.881,146.600 303.445 C 146.215 303.225,144.620 302.314,143.056 301.420 L 140.211 299.796 132.076 299.848 L 123.941 299.900 124.821 300.365 C 125.304 300.620,126.240 301.146,126.900 301.533 C 128.125 302.252,129.505 303.045,130.400 303.543 C 130.675 303.696,131.170 303.984,131.500 304.182 C 131.830 304.380,133.270 305.219,134.700 306.047 C 136.130 306.875,138.425 308.204,139.800 309.000 C 142.648 310.650,146.664 312.970,153.300 316.800 C 157.754 319.370,160.195 320.779,165.550 323.873 C 166.953 324.684,169.630 326.227,171.500 327.302 C 173.370 328.378,175.755 329.754,176.800 330.360 C 179.452 331.897,183.582 334.274,185.600 335.424 L 187.300 336.393 157.100 336.395 L 126.900 336.397 126.384 335.448 C 125.910 334.575,124.598 332.293,121.760 327.400 C 120.780 325.710,117.964 320.834,116.042 317.500 C 115.662 316.840,115.124 315.895,114.847 315.400 C 114.570 314.905,114.176 314.261,113.971 313.969 C 113.767 313.677,113.600 313.386,113.600 313.323 C 113.600 313.259,113.240 312.619,112.800 311.900 C 112.360 311.181,112.000 310.551,112.000 310.500 C 112.000 310.449,111.685 309.915,111.300 309.313 C 110.915 308.712,110.600 308.168,110.600 308.106 C 110.600 308.043,110.389 307.656,110.132 307.246 C 109.874 306.836,109.438 306.095,109.162 305.600 C 108.696 304.762,106.904 301.655,106.184 300.435 L 105.868 299.900 101.129 299.846 L 96.390 299.793 96.945 300.824 C 97.250 301.391,97.590 302.001,97.700 302.178 C 97.810 302.355,98.206 303.040,98.580 303.700 C 99.849 305.937,102.260 310.091,103.433 312.059 C 104.075 313.137,104.600 314.047,104.600 314.081 C 104.600 314.139,105.015 314.865,107.642 319.400 C 108.247 320.445,109.598 322.785,110.644 324.600 C 111.691 326.415,112.758 328.255,113.015 328.688 C 113.273 329.121,113.398 329.426,113.292 329.366 C 113.089 329.250,108.643 326.684,100.700 322.101 C 98.060 320.578,94.865 318.730,93.600 317.993 C 92.335 317.257,89.455 315.591,87.200 314.292 C 84.945 312.992,81.209 310.837,78.897 309.503 C 76.585 308.170,74.560 307.015,74.397 306.938 C 74.234 306.861,73.740 306.572,73.300 306.298 C 72.860 306.023,72.140 305.599,71.700 305.356 C 71.260 305.113,70.749 304.821,70.565 304.707 C 70.381 304.593,69.436 304.056,68.465 303.514 C 67.494 302.971,66.232 302.229,65.660 301.864 C 65.087 301.499,64.574 301.200,64.518 301.200 C 64.462 301.200,63.850 300.841,63.158 300.402 C 62.466 299.963,61.799 299.603,61.674 299.602 C 61.550 299.601,61.334 299.461,61.192 299.291 C 61.051 299.121,60.811 299.030,60.658 299.089 C 60.504 299.147,60.434 299.106,60.501 298.998 C 60.569 298.889,60.546 298.800,60.450 298.800 C 60.355 298.800,59.753 298.485,59.114 298.100 C 58.475 297.715,57.866 297.400,57.761 297.400 C 57.657 297.400,57.436 297.264,57.270 297.098 C 57.104 296.932,56.871 296.856,56.753 296.929 C 56.635 297.002,56.591 296.977,56.654 296.874 C 56.718 296.770,56.237 296.434,55.585 296.126 C 54.933 295.818,54.400 295.478,54.400 295.371 C 54.400 295.264,54.310 295.232,54.200 295.300 C 54.090 295.368,54.000 295.328,54.000 295.212 C 54.000 295.069,52.532 295.000,49.493 295.000 L 44.987 295.000 45.043 297.245 M253.972 348.212 L 253.500 348.624 254.100 348.272 C 254.890 347.810,254.901 347.800,254.655 347.800 C 254.539 347.800,254.232 347.985,253.972 348.212 " stroke="none" fill="#0c6c13" fill-rule="evenodd"></path><path id="path3" d="M173.410 7.990 C 173.250 8.091,173.062 8.139,172.993 8.096 C 172.923 8.053,172.861 8.126,172.854 8.259 C 172.830 8.695,172.583 10.094,172.475 10.400 C 172.417 10.565,172.326 11.055,172.273 11.489 C 172.219 11.923,172.114 12.373,172.038 12.489 C 171.962 12.605,171.884 12.970,171.865 13.300 C 171.846 13.630,171.779 14.125,171.716 14.400 C 171.653 14.675,171.559 15.125,171.508 15.400 C 171.456 15.675,171.326 16.255,171.219 16.689 C 171.112 17.123,171.072 17.554,171.129 17.648 C 171.187 17.741,171.144 17.926,171.034 18.059 C 170.924 18.191,170.826 18.368,170.817 18.450 C 170.808 18.532,170.793 18.622,170.785 18.650 C 170.668 19.033,170.565 19.589,170.545 19.950 C 170.531 20.198,170.444 20.400,170.350 20.400 C 170.257 20.400,170.234 20.760,170.300 21.200 C 170.387 21.781,170.348 22.004,170.160 22.014 C 170.017 22.022,170.080 22.105,170.300 22.200 C 170.626 22.340,170.638 22.374,170.362 22.386 C 169.900 22.405,169.687 22.805,170.024 23.019 C 170.241 23.156,170.244 23.195,170.038 23.197 C 169.894 23.199,169.832 23.290,169.900 23.400 C 169.968 23.510,169.889 23.600,169.724 23.600 C 169.559 23.600,169.366 23.693,169.296 23.807 C 169.214 23.939,169.373 23.976,169.734 23.911 C 170.726 23.730,190.302 23.787,190.259 23.971 C 190.237 24.067,190.597 24.108,191.059 24.062 C 191.716 23.996,191.834 24.027,191.600 24.204 C 191.396 24.358,191.385 24.408,191.565 24.360 C 192.031 24.237,191.832 23.902,191.256 23.840 C 190.950 23.806,190.408 23.645,190.050 23.480 C 189.369 23.167,189.147 22.918,189.750 23.144 C 190.049 23.256,190.062 23.228,189.842 22.957 C 189.631 22.697,189.631 22.620,189.842 22.535 C 190.024 22.461,190.035 22.382,189.881 22.265 C 189.635 22.080,189.356 21.177,189.291 20.358 C 189.252 19.877,189.136 19.181,188.879 17.900 C 188.835 17.680,188.660 16.960,188.489 16.300 C 188.319 15.640,188.177 14.965,188.174 14.800 C 188.166 14.386,187.617 11.714,187.291 10.500 C 187.143 9.950,186.923 9.117,186.803 8.650 L 186.585 7.800 180.142 7.803 C 176.578 7.805,173.570 7.888,173.410 7.990 M144.989 15.580 C 144.720 15.752,144.434 15.985,144.353 16.097 C 144.272 16.208,144.205 16.226,144.203 16.136 C 144.201 16.046,143.952 16.136,143.649 16.336 C 142.732 16.942,142.315 17.196,142.000 17.340 C 141.835 17.416,141.581 17.595,141.436 17.739 C 141.290 17.882,141.043 18.000,140.886 18.000 C 140.729 18.000,140.600 18.105,140.600 18.233 C 140.600 18.362,140.544 18.411,140.476 18.343 C 140.408 18.274,139.866 18.529,139.272 18.909 C 138.678 19.289,138.104 19.600,137.996 19.600 C 137.888 19.600,137.800 19.672,137.800 19.760 C 137.800 19.848,137.478 20.036,137.085 20.178 C 136.692 20.320,136.420 20.487,136.482 20.548 C 136.543 20.610,136.178 20.860,135.670 21.104 C 135.100 21.380,134.853 21.591,135.024 21.659 C 135.236 21.743,135.240 21.772,135.038 21.784 C 134.894 21.793,134.831 21.889,134.899 21.998 C 134.969 22.111,134.888 22.145,134.710 22.076 C 134.540 22.011,134.400 22.057,134.400 22.179 C 134.400 22.300,134.513 22.401,134.650 22.403 C 134.834 22.405,134.828 22.452,134.629 22.578 C 134.436 22.700,134.423 22.790,134.582 22.889 C 134.705 22.965,134.755 23.111,134.691 23.214 C 134.628 23.316,134.672 23.400,134.788 23.400 C 134.905 23.400,135.000 23.525,135.000 23.679 C 135.000 23.832,135.140 24.011,135.310 24.076 C 135.493 24.146,135.569 24.112,135.495 23.992 C 135.410 23.855,138.375 23.807,144.599 23.844 C 153.147 23.896,153.843 23.926,154.024 24.250 C 154.132 24.443,154.305 24.600,154.408 24.600 C 154.511 24.600,154.442 24.420,154.254 24.200 C 154.065 23.980,153.781 23.800,153.622 23.800 C 153.463 23.800,153.388 23.745,153.455 23.679 C 153.718 23.416,151.673 21.337,151.337 21.525 C 151.162 21.624,151.158 21.596,151.322 21.417 C 151.489 21.236,151.349 20.967,150.759 20.338 C 149.519 19.015,149.401 18.880,148.878 18.170 C 148.606 17.802,148.320 17.500,148.242 17.500 C 148.164 17.500,148.121 17.438,148.146 17.362 C 148.172 17.285,147.949 17.031,147.651 16.797 C 147.353 16.562,146.953 16.133,146.763 15.843 C 146.360 15.230,145.690 15.130,144.989 15.580 M212.744 16.215 C 212.225 16.774,211.800 17.319,211.800 17.427 C 211.800 17.535,211.720 17.574,211.623 17.514 C 211.525 17.454,211.323 17.556,211.173 17.741 C 210.939 18.029,210.942 18.055,211.200 17.924 C 211.365 17.839,211.325 17.912,211.112 18.085 C 210.898 18.258,210.790 18.400,210.872 18.400 C 210.954 18.400,210.778 18.625,210.481 18.900 C 210.184 19.175,209.850 19.400,209.737 19.400 C 209.625 19.400,209.588 19.454,209.654 19.521 C 209.721 19.588,209.533 19.868,209.238 20.145 C 208.942 20.422,208.722 20.727,208.750 20.824 C 208.777 20.921,208.662 21.000,208.494 21.000 C 208.325 21.000,208.129 21.157,208.057 21.350 C 207.985 21.543,207.761 21.819,207.560 21.964 C 207.358 22.109,207.245 22.311,207.308 22.414 C 207.372 22.516,207.273 22.600,207.088 22.600 C 206.856 22.600,206.784 22.718,206.855 22.987 C 206.914 23.215,206.838 23.420,206.668 23.485 C 206.478 23.558,206.429 23.511,206.524 23.348 C 206.604 23.211,206.473 23.271,206.234 23.481 C 205.995 23.691,205.800 23.871,205.800 23.881 C 205.800 23.891,209.985 23.874,215.100 23.843 C 221.414 23.804,224.400 23.852,224.400 23.993 C 224.400 24.107,224.537 24.200,224.704 24.200 C 224.919 24.200,224.981 24.054,224.917 23.700 C 224.867 23.425,224.920 23.200,225.035 23.200 C 225.149 23.200,225.189 23.060,225.124 22.890 C 225.055 22.712,225.089 22.631,225.202 22.701 C 225.311 22.769,225.400 22.678,225.400 22.500 C 225.400 22.294,225.309 22.231,225.150 22.327 C 224.959 22.441,224.961 22.401,225.157 22.159 C 225.408 21.849,224.194 20.807,223.750 20.951 C 223.668 20.978,223.600 20.910,223.600 20.800 C 223.600 20.690,223.504 20.600,223.387 20.600 C 223.269 20.600,222.879 20.375,222.519 20.101 C 222.159 19.826,221.805 19.661,221.732 19.734 C 221.660 19.807,221.600 19.752,221.600 19.612 C 221.600 19.468,221.470 19.407,221.300 19.472 C 221.135 19.536,221.000 19.496,221.000 19.384 C 221.000 19.271,220.691 19.051,220.314 18.893 C 219.936 18.735,219.570 18.513,219.500 18.400 C 219.430 18.286,219.289 18.245,219.186 18.309 C 219.084 18.372,219.000 18.342,219.000 18.243 C 219.000 18.144,218.663 17.891,218.250 17.681 C 217.838 17.472,217.212 17.090,216.860 16.834 C 216.508 16.577,216.073 16.346,215.894 16.320 C 215.715 16.293,215.508 16.186,215.434 16.081 C 215.224 15.783,214.243 15.200,213.951 15.200 C 213.806 15.200,213.263 15.657,212.744 16.215 M167.250 24.132 C 166.904 24.272,166.936 24.533,167.300 24.533 C 167.465 24.533,167.600 24.413,167.600 24.267 C 167.600 24.120,167.578 24.007,167.550 24.016 C 167.523 24.024,167.388 24.077,167.250 24.132 M192.710 24.282 C 192.922 24.438,193.181 24.512,193.285 24.448 C 193.388 24.384,193.299 24.263,193.087 24.180 C 192.460 23.934,192.295 23.979,192.710 24.282 M135.007 24.310 C 135.011 24.415,135.150 24.725,135.315 25.000 L 135.617 25.500 135.486 25.000 C 135.349 24.478,134.994 23.967,135.007 24.310 M194.467 24.700 C 194.467 24.865,194.519 25.011,194.583 25.026 C 195.098 25.138,195.627 25.118,195.710 24.983 C 195.765 24.894,195.635 24.855,195.421 24.896 C 195.207 24.937,194.982 24.842,194.922 24.685 C 194.778 24.309,194.467 24.319,194.467 24.700 M162.501 25.274 C 162.147 25.533,162.153 25.546,162.613 25.500 C 163.403 25.421,163.429 25.409,163.300 25.200 C 163.134 24.931,162.947 24.948,162.501 25.274 M223.721 26.116 C 223.558 26.543,223.569 26.800,223.750 26.800 C 223.832 26.800,223.913 26.575,223.929 26.300 C 223.962 25.724,223.895 25.665,223.721 26.116 M200.000 26.300 C 200.947 26.665,201.470 26.658,200.627 26.292 C 200.257 26.131,199.807 26.007,199.627 26.015 C 199.447 26.024,199.615 26.152,200.000 26.300 M122.200 344.400 C 122.365 344.507,122.680 344.598,122.900 344.603 C 123.120 344.608,123.471 344.742,123.679 344.900 C 123.888 345.058,124.136 345.140,124.229 345.082 C 124.323 345.024,124.400 345.072,124.400 345.188 C 124.400 345.305,124.535 345.400,124.700 345.400 C 124.865 345.400,125.000 345.476,125.000 345.568 C 125.000 345.718,125.949 346.243,126.200 346.233 C 126.255 346.230,126.442 346.357,126.616 346.515 C 126.790 346.672,126.991 346.743,127.062 346.672 C 127.133 346.601,127.247 346.690,127.316 346.870 C 127.385 347.050,127.522 347.148,127.621 347.087 C 127.719 347.026,127.800 347.077,127.800 347.200 C 127.800 347.323,127.880 347.374,127.977 347.314 C 128.075 347.254,128.271 347.344,128.413 347.515 C 128.707 347.870,129.708 348.425,129.831 348.302 C 129.876 348.257,130.305 348.531,130.785 348.910 C 131.264 349.290,131.749 349.600,131.862 349.600 C 131.976 349.600,132.211 349.722,132.384 349.870 C 132.558 350.019,133.105 350.354,133.600 350.614 C 134.095 350.874,134.657 351.217,134.850 351.375 C 135.042 351.533,135.200 351.589,135.200 351.500 C 135.200 351.411,135.380 351.501,135.600 351.700 C 135.820 351.899,136.003 351.981,136.006 351.881 C 136.009 351.781,136.105 351.859,136.218 352.054 C 136.332 352.249,136.509 352.356,136.612 352.292 C 136.716 352.229,136.800 352.254,136.800 352.350 C 136.800 352.445,137.498 352.905,138.350 353.373 C 139.203 353.840,140.350 354.498,140.900 354.835 C 141.450 355.172,142.305 355.668,142.800 355.937 C 143.295 356.207,143.970 356.591,144.300 356.791 C 144.630 356.991,145.755 357.646,146.800 358.248 C 147.845 358.850,149.510 359.815,150.500 360.392 C 151.490 360.969,152.660 361.644,153.100 361.892 C 153.540 362.140,155.070 363.020,156.500 363.847 C 187.041 381.523,199.697 388.800,199.900 388.800 C 200.036 388.800,209.588 383.342,221.124 376.670 C 245.035 362.844,247.951 361.160,249.200 360.455 C 249.695 360.175,250.595 359.653,251.200 359.294 C 251.805 358.935,252.975 358.250,253.800 357.773 C 254.625 357.295,255.453 356.814,255.640 356.702 C 255.826 356.591,256.411 356.263,256.940 355.974 C 257.468 355.685,258.350 355.172,258.900 354.835 C 259.450 354.498,260.598 353.840,261.450 353.373 C 262.303 352.905,263.000 352.445,263.000 352.350 C 263.000 352.254,263.081 352.226,263.179 352.287 C 263.278 352.348,263.412 352.258,263.478 352.086 C 263.543 351.915,263.678 351.824,263.776 351.885 C 263.874 351.946,264.065 351.863,264.200 351.700 C 264.335 351.537,264.515 351.447,264.600 351.500 C 264.685 351.553,264.866 351.462,265.002 351.298 C 265.138 351.134,265.318 351.000,265.401 351.000 C 265.625 351.000,268.393 349.383,269.169 348.800 C 269.534 348.525,269.916 348.289,270.017 348.275 C 270.118 348.261,270.287 348.239,270.393 348.225 C 270.499 348.211,270.902 347.923,271.287 347.585 C 271.673 347.246,272.081 347.027,272.195 347.097 C 272.310 347.168,272.457 347.085,272.522 346.914 C 272.588 346.742,272.712 346.646,272.798 346.699 C 272.884 346.752,273.065 346.663,273.200 346.500 C 273.335 346.337,273.515 346.247,273.600 346.300 C 273.685 346.353,273.866 346.262,274.002 346.098 C 274.138 345.934,274.365 345.800,274.508 345.800 C 274.650 345.800,274.797 345.733,274.833 345.650 C 274.944 345.402,276.670 344.599,277.100 344.596 C 277.320 344.595,277.635 344.507,277.800 344.400 C 277.994 344.275,250.495 344.206,200.000 344.206 C 149.505 344.206,122.006 344.275,122.200 344.400 M259.758 344.879 C 259.616 345.032,259.433 345.117,259.350 345.067 C 259.268 345.017,259.200 345.074,259.200 345.193 C 259.200 345.383,258.230 345.880,258.022 345.797 C 257.980 345.780,257.890 345.841,257.822 345.933 C 257.755 346.025,257.385 346.257,257.000 346.449 C 256.073 346.910,255.533 347.256,255.353 347.500 C 255.255 347.633,255.203 347.633,255.197 347.500 C 255.192 347.390,255.078 347.443,254.944 347.617 C 254.689 347.948,253.866 348.453,253.470 348.520 C 253.123 348.579,250.310 350.243,250.233 350.435 C 250.196 350.527,250.094 350.558,250.006 350.503 C 249.917 350.449,249.734 350.538,249.598 350.702 C 249.462 350.866,249.235 351.000,249.092 351.000 C 248.950 351.000,248.803 351.068,248.767 351.150 C 248.730 351.233,248.183 351.567,247.550 351.893 C 246.918 352.219,246.400 352.572,246.400 352.676 C 246.400 352.781,246.343 352.809,246.273 352.739 C 246.202 352.669,245.910 352.773,245.623 352.971 C 245.335 353.168,244.079 353.908,242.831 354.615 C 241.583 355.322,240.278 356.071,239.931 356.279 C 239.584 356.488,238.805 356.928,238.200 357.257 C 237.595 357.587,236.965 357.968,236.800 358.104 C 236.635 358.240,236.185 358.508,235.800 358.700 C 235.415 358.891,232.805 360.378,230.000 362.004 C 213.141 371.777,200.081 379.267,199.901 379.267 C 199.786 379.267,194.969 376.537,189.196 373.200 C 183.423 369.864,177.260 366.307,175.500 365.296 C 169.683 361.955,164.516 358.971,163.400 358.307 C 162.795 357.948,161.895 357.429,161.400 357.155 C 160.905 356.880,160.216 356.486,159.869 356.278 C 159.522 356.070,158.217 355.322,156.969 354.615 C 155.721 353.908,154.465 353.168,154.177 352.971 C 153.890 352.773,153.598 352.669,153.527 352.739 C 153.457 352.809,153.400 352.781,153.400 352.676 C 153.400 352.572,152.883 352.219,152.250 351.893 C 151.618 351.567,151.070 351.233,151.033 351.150 C 150.997 351.068,150.850 351.000,150.708 351.000 C 150.565 351.000,150.338 350.866,150.202 350.702 C 150.066 350.538,149.883 350.449,149.794 350.503 C 149.706 350.558,149.604 350.527,149.567 350.435 C 149.481 350.219,146.651 348.572,146.271 348.516 C 146.112 348.493,145.807 348.323,145.591 348.139 C 145.376 347.955,145.200 347.865,145.200 347.940 C 145.200 348.015,145.058 347.902,144.885 347.688 C 144.712 347.475,144.629 347.435,144.700 347.600 C 144.785 347.796,144.730 347.779,144.543 347.550 C 144.385 347.358,144.164 347.200,144.052 347.200 C 143.941 347.200,143.734 347.061,143.592 346.891 C 143.451 346.721,143.211 346.630,143.058 346.689 C 142.904 346.747,142.833 346.709,142.898 346.604 C 142.963 346.498,142.788 346.354,142.508 346.284 C 142.229 346.214,142.000 346.076,142.000 345.978 C 142.000 345.880,141.933 345.815,141.850 345.832 C 141.557 345.895,140.600 345.406,140.600 345.193 C 140.600 345.074,140.532 345.017,140.450 345.067 C 140.368 345.117,140.184 345.032,140.042 344.879 C 139.822 344.640,148.484 344.600,199.900 344.600 C 251.316 344.600,259.978 344.640,259.758 344.879 " stroke="none" fill="#0b7414" fill-rule="evenodd"></path><path id="path4" d="M145.213 108.619 C 145.198 108.991,145.940 109.726,146.135 109.532 C 146.207 109.459,146.156 109.400,146.022 109.400 C 145.887 109.400,145.841 109.296,145.919 109.169 C 146.008 109.025,145.974 108.993,145.829 109.082 C 145.689 109.168,145.523 109.041,145.411 108.763 C 145.294 108.470,145.221 108.417,145.213 108.619 M225.434 109.990 C 225.317 110.325,225.263 110.600,225.315 110.600 C 225.450 110.600,225.828 109.561,225.729 109.462 C 225.683 109.417,225.551 109.654,225.434 109.990 M213.673 109.899 C 213.610 110.063,213.479 110.149,213.381 110.088 C 213.284 110.028,213.260 110.123,213.327 110.298 C 213.466 110.659,213.462 110.661,213.780 110.050 C 213.909 109.803,213.963 109.600,213.901 109.600 C 213.838 109.600,213.736 109.734,213.673 109.899 M119.000 111.009 C 119.000 111.114,118.865 111.200,118.700 111.200 C 118.535 111.200,118.400 111.340,118.400 111.512 C 118.400 111.683,118.310 111.768,118.200 111.700 C 118.090 111.632,117.989 111.672,117.975 111.788 C 117.893 112.486,117.653 112.808,117.314 112.678 C 117.164 112.620,116.912 112.759,116.753 112.985 C 116.594 113.212,116.416 113.349,116.357 113.290 C 116.298 113.231,116.194 113.326,116.127 113.502 C 116.047 113.710,116.084 113.772,116.233 113.679 C 116.374 113.592,116.407 113.627,116.319 113.769 C 116.241 113.896,116.032 114.000,115.855 114.000 C 115.493 114.000,115.353 114.112,113.763 115.679 C 113.138 116.296,112.570 116.800,112.502 116.800 C 112.433 116.800,112.135 117.053,111.839 117.361 C 111.542 117.670,110.564 118.534,109.664 119.281 C 107.723 120.892,107.673 120.990,108.252 122.023 C 108.498 122.464,108.889 123.171,109.121 123.595 C 109.352 124.019,110.126 125.341,110.840 126.533 C 111.553 127.725,112.194 128.859,112.263 129.052 C 112.436 129.535,114.216 132.263,114.484 132.455 C 114.693 132.604,114.941 132.580,116.000 132.306 C 116.770 132.107,116.864 132.076,117.412 131.850 C 117.693 131.734,118.323 131.525,118.812 131.386 C 119.300 131.247,119.785 131.058,119.890 130.966 C 119.994 130.875,120.272 130.800,120.507 130.800 C 120.741 130.800,121.001 130.733,121.083 130.650 C 121.166 130.567,121.293 130.496,121.367 130.491 C 121.440 130.487,122.175 130.266,123.000 130.000 C 123.825 129.734,124.545 129.505,124.600 129.491 C 124.655 129.477,124.880 129.397,125.100 129.313 C 126.262 128.871,127.006 128.604,127.051 128.614 C 127.112 128.629,127.423 128.531,128.775 128.070 L 129.850 127.703 131.072 129.102 C 132.701 130.966,135.982 134.246,137.639 135.666 C 139.291 137.083,139.317 137.167,138.694 139.007 C 138.416 139.828,138.151 140.658,138.106 140.851 C 138.060 141.044,137.967 141.291,137.900 141.400 C 137.770 141.610,137.593 142.278,137.520 142.833 C 137.496 143.017,137.377 143.287,137.256 143.433 C 137.135 143.580,136.971 144.060,136.892 144.500 C 136.813 144.940,136.686 145.390,136.610 145.500 C 136.381 145.832,135.928 147.395,136.031 147.498 C 136.140 147.607,156.405 147.632,157.255 147.524 C 157.560 147.486,157.853 147.525,157.907 147.611 C 157.960 147.697,158.655 147.961,159.452 148.198 C 160.248 148.435,161.080 148.702,161.300 148.792 C 161.654 148.937,162.962 149.332,163.800 149.546 C 163.965 149.588,164.405 149.666,164.778 149.719 C 165.150 149.772,165.600 149.891,165.778 149.982 C 166.031 150.113,167.433 150.386,168.000 150.415 C 168.055 150.417,168.438 150.496,168.850 150.589 L 169.600 150.758 169.600 150.022 C 169.600 149.399,169.762 149.127,170.656 148.243 L 171.713 147.200 187.814 147.200 C 201.060 147.200,204.110 147.150,205.008 146.917 C 209.788 145.676,217.202 145.968,222.469 147.603 C 224.294 148.169,224.287 148.277,222.708 143.800 C 222.456 143.085,222.048 141.825,221.802 141.000 C 221.556 140.175,221.185 139.048,220.977 138.496 C 220.477 137.165,220.483 137.136,221.350 136.484 C 223.053 135.203,228.800 129.467,228.800 129.047 C 228.800 128.541,230.017 127.846,230.647 127.993 C 231.881 128.280,233.100 128.668,233.290 128.834 C 233.395 128.925,233.669 129.000,233.900 129.000 C 234.131 129.000,234.406 129.086,234.512 129.192 C 234.618 129.298,235.050 129.427,235.473 129.480 C 235.895 129.532,236.412 129.730,236.622 129.920 C 236.831 130.109,237.061 130.206,237.133 130.134 C 237.205 130.062,237.384 130.104,237.532 130.227 C 237.680 130.349,238.318 130.565,238.950 130.706 C 239.583 130.847,240.595 131.157,241.200 131.395 C 241.805 131.633,242.390 131.848,242.500 131.873 C 242.610 131.899,242.880 132.013,243.100 132.128 C 244.692 132.959,246.204 132.128,246.937 130.021 C 247.067 129.646,247.275 129.277,247.398 129.201 C 247.522 129.124,248.052 128.305,248.576 127.381 C 249.101 126.456,249.734 125.340,249.984 124.900 C 250.233 124.460,250.519 124.014,250.619 123.910 C 250.718 123.805,250.800 123.565,250.800 123.375 C 250.800 123.186,251.013 122.776,251.273 122.465 C 252.343 121.185,251.952 120.514,248.759 118.157 C 248.503 117.969,247.948 117.497,247.524 117.110 C 247.101 116.722,246.673 116.455,246.572 116.517 C 246.472 116.579,246.415 116.553,246.445 116.459 C 246.542 116.159,243.703 113.466,243.393 113.563 C 243.232 113.614,243.168 113.582,243.250 113.494 C 243.467 113.262,242.818 112.613,242.051 112.292 C 241.690 112.141,241.418 111.901,241.447 111.759 C 241.476 111.617,241.391 111.521,241.257 111.548 C 241.116 111.575,241.063 111.470,241.129 111.295 C 241.212 111.082,241.152 111.031,240.922 111.119 C 240.745 111.187,240.600 111.147,240.600 111.030 C 240.600 110.884,238.167 110.814,232.805 110.805 C 225.428 110.792,225.016 110.811,225.137 111.146 C 225.206 111.341,225.190 111.433,225.099 111.350 C 224.897 111.167,223.739 113.140,223.898 113.396 C 223.960 113.497,223.829 113.678,223.606 113.797 C 223.383 113.916,223.200 114.196,223.200 114.419 C 223.200 114.641,223.110 114.768,223.000 114.700 C 222.890 114.632,222.800 114.662,222.800 114.767 C 222.800 114.872,222.577 115.170,222.303 115.429 C 222.030 115.688,221.805 116.016,221.803 116.158 C 221.800 116.408,221.648 116.634,220.993 117.360 C 220.824 117.547,220.296 118.218,219.819 118.850 C 219.342 119.483,218.878 120.000,218.789 120.000 C 218.700 120.000,218.572 120.173,218.505 120.385 C 218.347 120.882,213.300 125.854,212.868 125.938 C 212.761 125.959,212.307 126.319,211.859 126.738 C 210.697 127.824,209.939 128.394,209.650 128.397 C 209.513 128.399,209.400 128.468,209.400 128.550 C 209.399 128.633,208.972 128.967,208.450 129.294 C 207.927 129.621,207.381 130.003,207.236 130.144 C 207.090 130.285,206.857 130.400,206.717 130.400 C 206.577 130.400,206.300 130.579,206.102 130.797 C 205.905 131.016,205.441 131.304,205.071 131.438 C 204.702 131.571,204.400 131.762,204.400 131.862 C 204.400 131.961,204.267 131.992,204.105 131.930 C 203.943 131.868,203.733 131.956,203.637 132.126 C 203.542 132.297,203.382 132.434,203.282 132.433 C 203.182 132.431,202.437 132.744,201.626 133.129 C 200.192 133.809,199.308 134.197,198.900 134.324 C 198.790 134.358,197.755 134.714,196.600 135.114 C 195.445 135.514,194.230 135.886,193.900 135.940 C 193.570 135.994,193.202 136.118,193.082 136.217 C 192.961 136.316,192.806 136.339,192.736 136.270 C 192.667 136.200,192.476 136.254,192.314 136.389 C 192.151 136.524,191.930 136.580,191.823 136.514 C 191.715 136.448,191.570 136.486,191.500 136.600 C 191.430 136.714,191.289 136.755,191.186 136.691 C 191.084 136.628,190.888 136.647,190.750 136.733 C 190.331 136.994,189.736 137.096,185.700 137.592 C 181.586 138.098,175.700 138.011,172.300 137.394 C 170.980 137.155,169.630 136.917,169.300 136.865 C 168.970 136.813,168.565 136.718,168.400 136.653 C 168.235 136.589,168.043 136.547,167.973 136.561 C 167.902 136.574,167.542 136.493,167.173 136.382 C 166.118 136.063,165.963 136.020,164.900 135.763 C 164.350 135.630,163.855 135.467,163.800 135.401 C 163.745 135.335,163.295 135.164,162.800 135.021 C 161.752 134.720,160.797 134.332,159.760 133.788 C 159.354 133.575,158.882 133.400,158.713 133.400 C 158.544 133.400,157.970 133.132,157.437 132.804 C 156.904 132.476,156.033 132.015,155.501 131.780 C 154.692 131.422,152.496 130.036,149.317 127.877 C 148.974 127.644,148.571 127.306,148.422 127.127 C 148.273 126.947,148.086 126.800,148.008 126.800 C 147.150 126.800,140.347 119.578,138.117 116.301 C 137.593 115.531,137.075 114.846,136.965 114.778 C 136.856 114.711,136.761 114.575,136.756 114.478 C 136.732 114.047,136.323 113.424,136.140 113.537 C 136.029 113.606,135.992 113.574,136.059 113.467 C 136.241 113.172,135.434 111.956,135.166 112.121 C 135.032 112.204,134.993 112.173,135.070 112.048 C 135.143 111.930,135.089 111.789,134.951 111.733 C 134.753 111.653,134.755 111.628,134.957 111.616 C 135.153 111.604,135.162 111.503,134.998 111.196 C 134.758 110.748,119.000 110.563,119.000 111.009 M146.935 111.050 C 147.022 111.188,147.098 111.345,147.102 111.400 C 147.128 111.714,147.891 112.600,148.135 112.600 C 148.294 112.600,148.381 112.668,148.330 112.752 C 148.205 112.954,148.778 113.729,148.956 113.600 C 149.032 113.545,149.129 113.680,149.171 113.900 C 149.277 114.448,154.373 119.400,154.831 119.400 C 154.924 119.400,155.000 119.490,155.000 119.600 C 155.000 119.710,155.135 119.800,155.300 119.800 C 155.465 119.800,155.600 119.877,155.600 119.970 C 155.600 120.115,157.508 121.439,157.800 121.497 C 157.855 121.508,158.395 121.836,159.000 122.225 C 160.887 123.440,164.027 125.004,165.796 125.611 C 167.355 126.146,170.242 126.967,171.033 127.101 C 171.400 127.162,171.970 127.296,172.300 127.397 C 172.630 127.498,173.530 127.640,174.300 127.713 C 175.070 127.786,175.764 127.883,175.842 127.930 C 176.139 128.106,184.152 127.997,185.200 127.802 C 185.805 127.690,186.525 127.565,186.800 127.524 C 188.034 127.340,188.959 127.157,189.700 126.951 C 190.140 126.828,190.567 126.710,190.650 126.689 C 190.733 126.668,190.822 126.627,190.850 126.599 C 190.878 126.572,191.080 126.522,191.300 126.489 C 192.984 126.238,200.140 123.095,200.778 122.326 C 200.927 122.147,201.150 121.999,201.274 121.997 C 202.406 121.984,210.869 114.596,210.477 113.963 C 210.388 113.819,210.429 113.794,210.591 113.895 C 210.739 113.986,210.915 113.938,211.012 113.781 C 211.112 113.618,211.083 113.450,210.939 113.358 C 210.783 113.259,210.839 113.204,211.100 113.199 C 211.320 113.196,211.812 112.817,212.193 112.358 C 212.721 111.723,212.792 111.557,212.493 111.663 C 212.105 111.799,212.105 111.797,212.488 111.500 C 212.702 111.335,212.955 111.200,213.050 111.200 C 213.145 111.200,213.168 111.110,213.100 111.000 C 213.018 110.868,201.727 110.800,179.876 110.800 C 153.445 110.800,146.808 110.850,146.935 111.050 M272.500 125.112 C 272.390 125.141,272.056 125.219,271.759 125.284 C 271.211 125.405,271.203 125.423,270.912 127.200 C 270.867 127.475,270.812 127.700,270.789 127.700 C 270.767 127.700,270.729 127.885,270.704 128.112 C 270.679 128.338,270.558 128.968,270.436 129.512 C 270.313 130.055,269.984 131.580,269.704 132.900 C 269.424 134.220,269.103 135.660,268.990 136.100 C 268.878 136.540,268.745 137.125,268.693 137.400 C 267.433 144.182,267.509 143.953,266.488 144.086 C 264.723 144.315,263.881 144.481,261.700 145.033 C 260.380 145.367,258.535 145.863,257.600 146.135 C 256.665 146.407,255.765 146.663,255.600 146.703 C 255.435 146.744,254.805 146.974,254.200 147.215 C 252.983 147.700,251.600 147.939,251.600 147.666 C 251.600 147.569,251.353 147.217,251.050 146.884 C 250.748 146.551,249.915 145.617,249.200 144.809 C 248.485 144.001,247.758 143.196,247.585 143.020 C 247.411 142.844,247.021 142.366,246.717 141.958 C 246.413 141.550,245.991 141.161,245.780 141.094 C 245.569 141.027,245.270 140.731,245.117 140.436 C 244.774 139.775,243.515 138.317,241.800 136.594 C 241.085 135.876,240.215 134.953,239.867 134.544 C 239.081 133.619,239.164 133.613,237.491 134.719 C 236.726 135.225,235.920 135.711,235.700 135.799 C 235.480 135.888,234.985 136.173,234.600 136.433 C 234.215 136.693,233.495 137.079,233.000 137.290 C 232.505 137.502,231.965 137.772,231.800 137.890 C 231.635 138.008,231.185 138.277,230.800 138.487 C 230.415 138.698,229.740 139.095,229.300 139.369 C 228.860 139.644,228.500 139.833,228.500 139.790 C 228.500 139.747,228.095 139.982,227.600 140.312 C 227.105 140.642,226.461 141.033,226.169 141.180 C 225.465 141.534,225.358 142.244,225.836 143.376 C 226.673 145.359,227.386 147.461,227.577 148.507 C 227.791 149.687,227.831 149.722,230.287 150.898 C 236.507 153.877,242.831 159.971,245.746 165.795 C 246.381 167.063,246.923 168.138,246.950 168.184 C 247.010 168.283,247.975 167.816,248.400 167.481 C 248.661 167.276,251.240 165.886,253.400 164.787 C 253.785 164.591,255.135 164.015,256.400 163.506 C 257.665 162.998,258.880 162.494,259.100 162.387 C 259.320 162.279,259.703 162.154,259.951 162.107 C 260.199 162.061,260.491 161.967,260.601 161.900 C 260.726 161.822,260.800 159.463,260.800 155.531 L 260.800 149.286 261.856 148.243 L 262.913 147.200 283.706 147.182 C 296.866 147.171,304.243 147.096,303.800 146.979 C 303.415 146.877,302.954 146.711,302.775 146.610 C 302.596 146.510,302.101 146.364,301.675 146.288 C 301.249 146.211,300.810 146.083,300.700 146.003 C 300.505 145.861,299.002 145.454,298.000 145.271 C 297.725 145.221,297.005 145.054,296.400 144.900 C 295.795 144.746,295.075 144.575,294.800 144.519 C 294.525 144.464,294.030 144.362,293.700 144.293 C 293.370 144.224,292.747 144.106,292.316 144.031 C 291.457 143.881,291.340 143.661,290.818 141.200 C 290.020 137.436,289.761 136.201,289.605 135.400 C 289.508 134.905,289.252 133.735,289.035 132.800 C 288.818 131.865,288.584 130.740,288.517 130.300 C 288.282 128.776,287.550 125.898,287.290 125.479 C 287.056 125.103,273.776 124.773,272.500 125.112 M90.713 131.870 C 90.472 132.254,90.067 134.012,89.299 138.000 C 88.967 139.725,88.430 142.263,88.136 143.497 L 87.898 144.493 85.499 145.016 C 82.840 145.595,79.301 146.585,78.111 147.083 L 77.337 147.406 76.519 146.549 C 76.068 146.078,75.032 144.930,74.216 143.997 C 73.400 143.063,72.037 141.535,71.188 140.600 C 70.339 139.665,69.401 138.608,69.104 138.250 C 68.423 137.430,68.140 137.436,66.828 138.300 C 66.243 138.685,65.690 139.000,65.599 139.000 C 65.508 139.000,65.403 139.067,65.367 139.150 C 65.330 139.233,64.985 139.460,64.600 139.654 C 64.215 139.849,63.404 140.299,62.797 140.654 C 62.191 141.010,61.142 141.613,60.467 141.996 C 59.073 142.786,58.702 143.227,58.988 143.750 C 59.094 143.942,59.641 145.585,60.205 147.400 C 60.769 149.215,61.367 151.060,61.533 151.499 C 62.005 152.745,62.795 155.273,62.797 155.548 C 62.799 155.685,62.513 156.045,62.162 156.348 C 59.650 158.521,56.816 161.351,55.937 162.565 C 55.247 163.518,55.299 163.513,53.348 162.809 C 52.715 162.581,51.725 162.262,51.148 162.102 C 49.738 161.709,46.476 160.629,45.558 160.252 C 45.151 160.084,44.611 159.920,44.358 159.886 C 44.106 159.853,43.597 159.708,43.226 159.563 C 42.596 159.317,42.530 159.331,42.226 159.773 C 41.743 160.473,37.853 167.161,37.343 168.169 L 36.902 169.037 37.401 169.436 C 37.676 169.656,38.524 170.390,39.287 171.068 C 40.740 172.358,41.144 172.725,42.744 174.200 C 43.281 174.695,44.414 175.724,45.262 176.487 C 46.902 177.962,46.888 177.924,46.299 179.300 C 45.608 180.916,44.397 185.423,44.111 187.445 C 43.951 188.576,44.547 188.367,37.400 189.794 C 31.342 191.003,31.073 191.081,30.930 191.659 C 30.731 192.466,30.783 201.594,30.988 201.979 C 31.192 202.359,31.927 202.595,34.458 203.094 C 43.680 204.912,43.918 204.982,44.084 205.948 C 44.155 206.362,44.263 206.947,44.323 207.250 L 44.432 207.800 50.139 207.800 L 55.845 207.800 55.742 207.250 C 54.968 203.149,54.754 201.679,54.582 199.300 C 54.141 193.188,55.461 185.484,57.872 180.100 C 58.975 177.636,61.364 173.411,62.153 172.529 C 62.365 172.293,62.915 171.560,63.377 170.900 C 64.483 169.319,67.883 165.886,69.950 164.262 L 71.600 162.967 71.600 156.327 L 71.600 149.686 72.656 148.643 L 73.713 147.600 81.413 147.600 L 89.114 147.600 90.157 148.656 L 91.200 149.713 91.200 152.414 L 91.200 155.116 95.950 155.108 C 99.010 155.103,101.056 155.186,101.700 155.342 C 102.250 155.475,103.015 155.625,103.400 155.675 C 104.559 155.826,105.447 156.006,106.500 156.305 C 107.050 156.462,108.040 156.741,108.700 156.926 C 109.360 157.111,109.986 157.339,110.090 157.431 C 110.195 157.524,110.449 157.600,110.656 157.600 C 111.174 157.600,116.520 160.075,117.830 160.921 C 119.278 161.856,118.880 162.091,125.025 156.674 C 131.512 150.956,131.022 151.493,131.583 149.500 C 131.831 148.620,132.151 147.630,132.294 147.300 C 132.625 146.534,132.881 145.792,133.319 144.327 L 133.669 143.154 133.185 142.778 C 132.918 142.571,131.710 141.830,130.500 141.130 C 129.290 140.430,127.427 139.349,126.361 138.728 C 124.164 137.450,124.090 137.432,123.561 138.050 C 123.349 138.297,122.522 139.220,121.723 140.100 C 120.923 140.980,119.652 142.420,118.897 143.300 C 116.805 145.740,115.348 147.200,115.007 147.198 C 114.838 147.197,113.710 146.877,112.500 146.486 C 110.416 145.814,107.660 145.103,106.307 144.888 C 104.580 144.613,104.537 144.577,104.282 143.188 C 104.152 142.480,103.718 140.460,103.318 138.700 C 102.918 136.940,102.446 134.745,102.269 133.823 C 101.788 131.321,102.160 131.465,96.123 131.451 C 91.075 131.440,90.978 131.448,90.713 131.870 M317.756 135.656 C 316.805 136.677,315.821 137.774,315.570 138.093 C 315.319 138.412,314.840 138.950,314.507 139.288 C 314.173 139.626,313.315 140.572,312.600 141.389 C 311.885 142.206,311.165 143.020,311.000 143.196 C 310.835 143.373,310.205 144.090,309.600 144.790 C 308.995 145.489,308.298 146.244,308.050 146.467 C 307.803 146.690,307.600 146.946,307.600 147.036 C 307.600 147.126,311.901 147.200,317.157 147.200 L 326.714 147.200 327.757 148.256 L 328.800 149.313 328.800 151.335 L 328.800 153.358 324.383 162.929 C 321.954 168.193,319.835 172.823,319.675 173.217 L 319.383 173.935 322.048 176.617 C 328.392 183.004,333.469 190.926,335.944 198.300 C 337.020 201.506,337.779 204.060,338.216 205.950 L 338.645 207.800 346.822 207.800 C 351.320 207.800,355.000 207.743,355.000 207.673 C 355.000 207.603,354.914 207.221,354.810 206.823 C 354.705 206.425,354.468 205.380,354.284 204.500 C 353.496 200.740,351.921 195.069,351.013 192.724 C 350.737 192.012,350.877 191.526,351.470 191.138 C 351.720 190.974,352.554 190.268,353.323 189.570 C 354.092 188.871,355.335 187.760,356.086 187.100 C 356.836 186.440,358.025 185.369,358.728 184.721 C 359.431 184.072,360.207 183.371,360.453 183.162 C 361.017 182.683,363.720 180.245,364.336 179.659 C 364.982 179.045,364.949 178.909,363.624 176.679 C 362.327 174.497,359.295 169.272,358.200 167.333 C 356.928 165.079,357.196 165.280,355.830 165.562 C 355.168 165.698,354.372 165.942,354.063 166.104 C 353.753 166.265,353.390 166.398,353.256 166.399 C 352.983 166.400,343.329 169.529,342.700 169.820 C 342.238 170.034,339.739 170.783,339.000 170.930 C 338.581 171.013,338.370 170.857,337.700 169.973 C 336.738 168.703,330.977 162.870,329.318 161.486 C 327.313 159.814,327.443 160.113,328.010 158.481 C 328.236 157.831,328.510 156.985,328.620 156.600 C 328.729 156.215,328.896 155.720,328.991 155.500 C 329.086 155.280,329.412 154.290,329.716 153.300 C 330.020 152.310,330.331 151.410,330.407 151.300 C 330.535 151.115,330.825 150.161,330.893 149.700 C 330.909 149.590,330.979 149.365,331.047 149.200 C 331.210 148.805,331.871 146.782,332.287 145.400 C 332.469 144.795,332.675 144.165,332.743 144.000 C 333.472 142.244,333.332 141.186,332.332 140.886 C 332.094 140.815,330.856 140.136,329.579 139.378 C 328.303 138.620,327.204 138.000,327.138 138.000 C 327.072 138.000,326.676 137.766,326.259 137.481 C 325.841 137.195,324.915 136.652,324.200 136.272 C 322.057 135.136,321.306 134.708,321.193 134.558 C 321.100 134.435,319.724 133.800,319.550 133.800 C 319.515 133.800,318.708 134.635,317.756 135.656 M44.729 210.350 C 44.823 210.543,44.925 213.963,44.955 217.950 L 45.010 225.200 48.988 225.200 C 51.984 225.200,52.992 225.138,53.068 224.950 C 53.137 224.779,53.173 224.795,53.184 225.000 C 53.201 225.323,62.120 225.360,62.442 225.038 C 62.523 224.957,62.322 224.488,61.996 223.995 C 61.669 223.503,61.401 222.988,61.401 222.850 C 61.400 222.713,61.310 222.600,61.200 222.600 C 61.090 222.600,61.000 222.471,61.000 222.314 C 61.000 222.157,60.859 221.887,60.686 221.714 C 60.513 221.541,60.437 221.400,60.517 221.400 C 60.597 221.400,60.527 221.243,60.362 221.050 C 60.197 220.857,59.629 219.890,59.098 218.900 C 58.568 217.910,58.075 217.055,58.003 217.000 C 57.930 216.945,57.813 216.765,57.742 216.600 C 57.671 216.435,57.342 215.850,57.010 215.300 C 56.678 214.750,56.324 214.116,56.224 213.891 C 56.123 213.666,55.578 212.698,55.013 211.741 L 53.985 210.000 49.271 210.000 C 44.850 210.000,44.568 210.022,44.729 210.350 M344.987 211.741 C 344.422 212.698,343.877 213.666,343.776 213.891 C 343.676 214.116,343.322 214.750,342.990 215.300 C 342.658 215.850,342.329 216.435,342.258 216.600 C 342.187 216.765,342.071 216.945,341.999 217.000 C 341.817 217.140,340.000 220.409,340.000 220.597 C 340.000 220.682,339.866 220.862,339.702 220.998 C 339.538 221.134,339.454 221.325,339.514 221.423 C 339.574 221.520,339.528 221.600,339.412 221.600 C 339.295 221.600,339.200 221.724,339.200 221.876 C 339.200 222.027,339.065 222.263,338.900 222.400 C 338.735 222.537,338.600 222.810,338.600 223.008 C 338.600 223.205,338.529 223.397,338.441 223.433 C 338.267 223.507,337.400 224.872,337.400 225.074 C 337.400 225.143,341.315 225.200,346.100 225.200 L 354.800 225.200 354.806 218.150 C 354.812 212.268,354.861 211.036,355.106 210.712 C 355.268 210.498,355.400 210.251,355.400 210.162 C 355.400 210.073,353.288 210.000,350.708 210.000 L 346.015 210.000 344.987 211.741 " stroke="none" fill="#0c4c04" fill-rule="evenodd"></path></g></svg>